<?xml version="1.0" encoding="UTF-8"?>
<svg id="Layer_2" data-name="Layer 2" xmlns="http://www.w3.org/2000/svg" viewBox="0 0 700 840">
  <defs>
    <style>
      .cls-1 {
        fill: #fff;
      }
    </style>
  </defs>
  <g id="Layer_1-2" data-name="Layer 1" id="Black">
    <g id="Color">
      <path class="cls-1" d="m700,840H0C0,560,0,280,0,0,233.33,0,466.67,0,700,0v840Zm-168.58-206.9s-.08-.07-.08-.07c-.61,1.11-1.13,2.28-1.83,3.33-2.72,4.07-5.54,8.08-8.26,12.14-2.01,3-3.93,6.06-5.88,9.1-.78,1.22-1.22,2.49-.5,4.1.56-.14,1.2-.13,1.6-.43.83-.63,1.56-1.4,2.3-2.14,2.65-2.65,5.61-4.92,8.72-6.99,2.26-1.51,4.75-2.31,7.71-2.39-.14.65-.15,1.12-.34,1.49-5.5,10.83-5.22,11.67-14.85,20.9-.67.65-1.36,1.27-2.04,1.91-4.56,4.27-9.79,7.48-15.49,10.01-6.34,2.82-13.07,4.23-19.82,5.49-15.46,2.88-30.92,5.73-46.25,9.23-9.31,2.12-18.62,4.2-27.76,7-12.83,3.92-24.71,9.67-35.35,17.89-5.95,4.6-11.18,9.87-15.34,16.16-1.42,2.15-2.61,4.4-3.25,6.93-.36,1.42-.27,2.73.58,4.23,1.87-.63,3.71-1.3,5.57-1.88,11.13-3.43,22.12-7.29,32.96-11.55,5.63-2.22,11.32-4.31,17.02-6.35,8.25-2.95,16.69-5.15,25.43-6.08,5.56-.59,11.11-1.31,16.68-1.82,4.41-.41,8.84-.59,13.27-.84.51-.03,1.16-.28,1.63.59-.52.37-1.05.77-1.6,1.12-2.57,1.61-5.19,3.14-7.7,4.83-14.1,9.43-26.34,20.82-35.97,34.83-4.42,6.43-8.46,13.12-12.59,19.75-1.17,1.87-2.07,3.91-3.03,5.9-.4.83-.71,1.74-.88,2.64-.2,1.03-.22,2.11,1.03,2.95,1.3-.82,2.67-1.68,4.03-2.54,7.87-5,15.73-10.02,24.11-14.16,5.16-2.55,10.58-4.17,16.31-4.93,5.31-.71,10.55-1.87,15.61-3.71,16.12-5.88,30.94-13.94,44.16-25.03,17.6-14.77,30.74-32.74,39.69-53.78,2.42-5.69,4.91-11.32,7.71-16.82.32-.62.68-1.23.93-1.88,2.73-7.01,7.71-12.75,11.07-19.4.32-.62.66-1.55,1.84-1.42,0,.47.05.93,0,1.38-.5,4.12-.03,8.13,1.14,12.09.69,2.35,1.14,4.76,1.1,7.23-.01.67-.09,1.43.69,1.82,1.14-1.32,1.17-1.32,1.38-2.52,1.18-6.67,1.77-13.39,2.04-20.15.13-3.26.37-6.51.59-9.77.04-.62.25-1.22.38-1.83.52,1.64.75,3.26.69,4.87-.22,5.7-.53,11.4-.81,17.11-.03.58-.15,1.16-.12,1.74.02.48-.37,1.12.37,1.44,2.17-3.57,3.73-7.01,4.28-9.5,1.77-7.97,3.24-15.98,3.81-24.14.02-.35.17-.69.27-1.03.42.97.51,1.88.53,2.8.01.81-.06,1.63-.11,2.44-.05.93-.08,1.86-.16,2.79-.07.81-.22,1.62-.32,2.42-.12.92-.2,1.85-.34,2.78-.14.92-.33,1.83-.48,2.75-.13.8-.24,1.61-.37,2.42-.12.8-.62,1.61-.09,2.67,1.91-2.28,3.12-4.57,3.71-7.26,1.77-8.12,2.48-16.34,2.87-24.62.05-1.14.1-2.29.15-3.43,1.54,8.25.71,16.43-.67,25.02.59-.57.97-.8,1.17-1.15,1.09-1.93,2.12-3.88,3.2-5.82.98-1.77,1.44-3.68,1.59-5.68.63-8.49,1.07-16.98.37-25.49-.08-1.02-.01-2.05-.01-3.07,1.93,7.86,1.63,15.84,1.35,23.85.32-.05.5-.02.54-.09.23-.39.5-.79.62-1.22,1.74-6.34,2.42-12.81,2.15-19.38-.3-7.02-.92-13.97-4.81-20.02,1.76-9.67,2.83-19.28,3.3-28.95,1.03-21.02-.16-41.94-3.54-62.72-2.92-17.97-7.24-35.59-12.88-52.9-3.46-10.64-7.4-21.1-11.82-31.38-.39-.9-1.17-1.76-.86-2.87.17-.06.28-.14.34-.11.74.35,1.48.69,2.19,1.08,4.23,2.33,8.72,3.98,13.51,4.51,3.11.35,6.28.25,9.42.17,1.79-.05,2.7-1.08,3.01-2.84.08-.45.06-.93.07-1.39.09-2.62-.41-5.12-1.68-7.41-1.47-2.65-2.97-5.28-4.62-7.82-3.57-5.48-7.61-10.61-12.05-15.41-.5-.54-1.16-1.01-1.29-2.34,1.04.66,1.73,1.02,2.33,1.48,5.98,4.6,10.75,10.32,14.97,16.51,3.25,4.77,5.75,9.86,6.51,15.67.04.34.2.66.29.94,4.16,2.24,14.03,3.33,18.46,2.14,1.13-.3,1.86-.86,2.22-1.96.74-2.27,1.04-4.57.11-6.84-.65-1.61-1.34-3.23-2.19-4.75-2.42-4.29-5.42-8.16-8.95-11.58-3.77-3.65-7.6-7.24-11.38-10.88-.54-.52-1.48-.84-1.29-1.88l-.06.08c1.42-.05,2.34.96,3.34,1.69,7.72,5.61,14.09,12.52,19.35,20.45,2.15,3.23,3.71,6.82,3.96,10.7.19,2.86,1.31,4.82,3.65,6.27.89.55,1.68,1.25,2.56,1.83,4.74,3.14,9.93,5.08,15.62,5.6,1.74.16,3.49.3,5.12-1.02.03-.63.12-1.31.1-1.99-.14-4.85-1.46-9.39-3.47-13.78-5.75-12.51-13.62-23.55-22.97-33.6-8.87-9.53-19.41-16.62-31.43-21.58-6.35-2.63-12.88-4.72-19.46-6.68-6.43-1.91-12.98-2.81-19.67-2.15-4.16.42-8.32,1.01-12.44,1.75-3.51.63-6.96,1.59-10.5,2.41-.81-.91-1.65-1.85-2.46-2.77-.52.27-.93.48-1.33.68.41-1.61-.11-2.92-1.18-4.14-5.2-5.96-10.22-12.07-15.57-17.88-8.53-9.25-17.84-17.68-27.89-25.26-.81-.61-1.67-1.13-2.75-1.86.35,2.64.74,4.9.94,7.18.27,3.02.69,5.99,1.54,8.91.42,1.44.82,2.96.81,4.44-.02,3.62.96,6.86,3.01,9.8-2.63-1.68-3.32-4.33-3.65-7.18-.21-1.85-.27-3.74-.72-5.53-1.12-4.42-1.78-8.87-2.16-13.42-.25-3-1.54-5.75-4.3-7.62-7.83-5.31-15.94-10.11-24.65-13.85-10.86-4.67-22.09-8.03-33.89-9.32-7.22-.79-14.42-.86-21.63.02-2.06.25-4.12.44-6.37.68,1.65-5.38,4.3-9.79,8.64-13.07,3.36-2.54,6.87-4.84,10.73-6.52,1.7-.74,3.46-1.4,5.26-1.86,4.99-1.28,10.11-1.89,15.24-1.82,10.11.14,19.91,2.04,29.28,5.93,9.87,4.1,18.88,9.48,26.96,16.6,7.02,6.19,13.65,12.66,19.62,19.88,4.23,5.11,8.8,9.97,13.52,14.64,11.96,11.85,26.82,18.27,42.88,22.32.36.09.77-.06,1.87-.16-1.32-.87-2.04-1.41-2.82-1.85-4.26-2.41-8.57-4.73-12.8-7.19-11.56-6.74-22.1-14.73-30.87-24.94-3.42-3.98-6.99-7.83-10.45-11.77-3.24-3.68-6.61-7.23-10.36-10.4-3.83-3.24-7.69-6.44-11.56-9.63-4.06-3.35-8.45-6.21-13.19-8.52-3.35-1.63-6.72-3.23-10.17-4.65-14.1-5.8-28.67-7.58-43.84-5.61-10.48,1.36-24.52,10.55-29.04,17.88-1.88,3.05-3.25,6.16-3.64,9.7-.09.78-.24,1.56-.34,2.21-3.18,1.11-6.15,2.12-9.09,3.21-.81.3-1.55.3-2.37.09-3.27-.84-6.29-.09-8.95,1.84-2.44,1.78-4.84,3.66-7.02,5.75-3.3,3.16-5.97,6.84-8.15,10.86-1.45,2.67-1.6,5.3.08,7.93.3.47.53.99.72,1.34-.7,1.84-1.31,3.44-1.93,5.05-2.16-.01-4.08.22-5.94,1.08-14.39,6.6-22.31,17.98-24.32,33.43-1.16,8.9.07,17.66,3.23,26.12,2.87,7.69,6.85,14.79,11.52,21.51,5.39,7.77,11.4,15.06,17.74,22.07,5.79,6.4,11.62,12.76,17.52,19.06,11.26,12.02,18.11,26.43,22.98,41.93.38,1.22.67,2.47,1.04,3.7.12.4.21.96,1.14.7.05-.45.19-.98.14-1.5-.29-3.48-.36-7-.98-10.42-2.41-13.34-8.18-25.23-16.6-35.77-4.07-5.09-8.58-9.84-13.03-14.61-8.67-9.3-17.07-18.83-24.41-29.25-3.43-4.87-6.4-10.01-8.83-15.45-3.73-8.34-5.6-17.01-4.79-26.17,1.11-12.61,7.16-22.17,17.9-28.82,1.39-.86,2.8-1.64,4.62-1.69.32,1.33.11,2.6.02,3.85-.37,4.77-.53,9.52-.09,14.31,1.18,12.88,4.91,24.86,12.1,35.69,6.55,9.87,14.53,18.5,23.22,26.5,2.83,2.6,5.52,5.36,8.31,8,1.94,1.85,3.9,3.68,5.92,5.44,4.16,3.6,8.74,6.59,13.45,9.41,3.6,2.16,7.15,4.38,10.7,6.62.52.33.89.89,1.47,1.48-6.09,3.7-10.02,9.02-13.39,14.81-3.11,5.36-5.63,10.99-7.63,16.85-2.94,8.65-4.55,17.53-5.2,26.66-.7,9.84.06,19.55,1.48,29.26.76,5.21,2.38,10.2,3.53,15.31,1.14,5.07,3.6,9.58,5.93,14.13,1.2,2.34,2.53,2.64,4.93,1.58.64-.28,1.29-.57,1.85-.97,2.44-1.79,4.92-3.54,7.25-5.47,4.11-3.4,6.25-8.03,7.75-13.02.35-1.17.28-2.19-.31-3.34-2.5-4.85-3.52-10.08-3.58-15.51-.07-6.35,1.26-12.5,2.55-18.66.72-3.43,1.7-6.78,3.13-9.98.41-.93.98-1.79,1.61-2.91.15.57.28.78.24.96-.74,4.01-1.57,8-2.22,12.02-1.02,6.33-1.89,12.68-1.8,19.12.06,4.13.97,8.09,2.43,11.92.45,1.17,1.19,2.23,1.82,3.4,8.27.53,15.67-1.31,22.02-6.5,1.51-1.24,2.85-2.79,3.93-4.42,1.35-2.03,2.38-4.26,3.48-6.45.35-.7.46-1.52.68-2.25-1.78-2.24-2.98-4.62-3.56-7.28-1.27-5.8-2.52-11.6-3.77-17.4h.02c.8-.08.9.51,1.06,1.07,1.33,4.7,2.69,9.4,4.02,14.1.58,2.03,1.4,3.93,2.58,5.7,1.25,1.86,2.77,2.78,5.03,1.9.43-.16.93-.12,1.37-.25,7.04-2.05,12.72-5.71,15.48-12.89.36-.93.78-1.84,1.29-3.03.7.73,1.22,1.17,1.62,1.71,5.57,7.63,10.89,15.45,15.34,23.75,5.6,10.47,10.55,21.27,14.26,32.59,1.56,4.75,3.26,9.46,5,14.15,2.31,6.23,4.04,12.62,5.55,19.09.91,3.91,1.13,7.69.52,11.71-1.69,11.05-3.14,22.12-6.21,32.91-.17.6-.15,1.26-.28,2.43,1.24-.98,1.87-1.8,2.57-2.53q.9-.95,2.37-1.61c-1.54,2.88-3.51,5.33-5.37,7.86-.68.93-1.41,1.9-1.78,2.97-.92,2.63-1.64,5.33-2.42,8.01-.03.11.2.3.42.63.91-.96,1.78-1.86,2.64-2.79.87-.94,1.71-1.91,2.58-2.85.95-1.02,1.9-2.06,2.91-3.02.87-.83,1.6-1.86,2.87-2.22-1.07,1.68-2.26,3.22-3.5,4.72-3.12,3.77-6.28,7.51-9.39,11.28-.66.8-1.38,1.64-1.73,2.59-1.89,5.02-3.47,10.13-4.08,15.49-.03.26.19.54.29.83.23-.12.36-.14.4-.21,4.1-7.21,9.36-13.62,14.17-20.34.37-.52.64-1.29,1.54-1.14Zm-397.59-218.03c.27.68.53,1.32.76,1.96,1.83,5.03,3.56,10.11,5.51,15.1,6.77,17.32,15.12,33.81,25.82,49.06,8.83,12.58,18.96,23.92,31.33,33.17,12.87,9.64,26.94,16.6,42.87,19.49.98.18,1.92.51,3.16.84-2.79,3.57-5.63,6.61-9.59,8.3-6.51,2.77-13.29,4.44-20.4,3.91-3.35-.25-6.7-.91-9.97-1.73-12-3.01-22.42-9.03-31.62-17.2-2.7-2.4-5.19-5.03-7.74-7.59-3.3-3.33-6.12-7.03-8.52-11.06-2.44-4.1-4.85-8.23-7.27-12.35-2.19-3.73-3.92-7.66-5.53-11.67-2.82-7.02-5.59-14.07-8.69-20.97-5.3-11.77-12.96-21.81-23.07-29.9-3.73-2.98-7.64-5.74-11.48-8.58-.54-.4-1.1-.93-1.93-.31.44,1.23,1.48,2.02,2.3,2.96,3.76,4.3,7.61,8.52,11.29,12.89,7.63,9.06,13.92,18.96,18.41,29.97,2.11,5.18,4.22,10.36,6.47,15.47,1.83,4.15,3.7,8.31,5.89,12.28,2.69,4.9,5.7,9.62,8.63,14.39,2.7,4.39,5.9,8.39,9.56,12.01,2.32,2.3,4.63,4.61,7.05,6.8,8.94,8.08,19.12,14.08,30.6,17.8,4.66,1.51,9.44,2.6,14.33,3.05,6.03.56,11.81-.76,17.55-2.44,4.55-1.33,8.6-3.51,12.32-6.42,2.35-1.84,4.11-4.1,5.35-6.8.34-.73.66-1.46,1.09-2.41,3.48,0,6.97-.02,10.45.02.43,0,.91.23,1.27.48,3.25,2.33,6.79,2.2,10.38,1.16,6.82-1.97,12.86-5.39,18.24-10.01,2.86-2.45,4.02-5.34,2.83-9.02-.06-.2.03-.45.05-.65,1.13-1.34,2.24-2.67,3.35-3.98,1.34.32,2.55.76,3.8.88,1.26.12,2.57.05,3.84-.13,14.15-2.02,24.63-9.4,31.46-21.88,3.98-7.27,5.86-15.18,6.25-23.44.37-7.86-.72-15.58-2.54-23.2-2.5-10.45-6.19-20.51-10.36-30.39-3.71-8.8-7.54-17.55-11.4-26.28-4.49-10.16-6.44-20.88-7.21-31.87-.38-5.47-.68-10.94-.06-16.41.08-.73.28-1.55-.22-2.2-.92.1-.95.75-1.14,1.27-1.96,5.41-3.03,11.01-3.33,16.74-.54,10.22.81,20.23,3.84,30,1.86,6.02,4.48,11.75,6.99,17.51,3.3,7.58,6.62,15.16,9.64,22.85,3.87,9.88,7.13,19.96,8.41,30.57.91,7.48.74,14.89-1.19,22.2-2.47,9.33-7.28,17.09-15.32,22.68-4.78,3.32-10.05,5.35-15.83,6.03-.87.1-1.83.25-2.68-.65.54-1.3,1.06-2.58,1.61-3.85,3.74-8.74,6.12-17.78,6.73-27.33.57-8.84-.34-17.44-2.8-25.91-3.01-10.34-7.32-20.12-12.4-29.59-1.92-3.59-3.67-7.27-5.53-10.9-1.01-1.97-2.05-3.93-3.16-5.84-2.81-4.85-6.1-9.36-9.74-13.64-2.87-3.38-5.64-6.84-8.41-10.29-.4-.49-1.06-1.01-.48-1.97,5.07-1.2,9.64-3.69,13.81-6.95,10.06-7.87,18.1-17.49,24.27-28.62,7.53-13.6,12.1-28.22,14.08-43.63.4-3.12.37-6.29.85-9.39.89-5.76-.06-11.38-.86-17.03-.06-.45-.25-.89-.42-1.33-.42-1.08-1.21-1.79-2.37-1.72-1.5.09-3.01.29-4.47.6-8.71,1.89-15.78,6.16-20.26,14.14-.15.26-.54.39-.89.64-.64-.26-1.28-.5-1.91-.77-5.35-2.3-10.92-3.27-16.73-2.78-4.76.41-9.15,1.88-12.8,5.03-2.11,1.82-3.96,3.94-5.93,5.92-.48.48-.97.95-1.39,1.36-2.1-.39-4.03-.96-5.98-1.08-7.77-.47-14.53,1.63-19.47,8.07-.39.51-.99.86-1.61,1.39-.25-.67-.45-1.09-.57-1.53-3.16-10.84-6.18-21.71-7.67-32.95-1.55-11.7-2.3-23.42-2.1-35.21.06-3.61-.04-7.23-.14-10.84-.19-7.13.4-14.21,1.2-21.27.33-2.92.99-5.71,2.65-8.22.77-1.16,1.31-2.47,1.92-3.72,8.21-16.84,18.31-32.45,30.36-46.81,3.15-3.76,6.03-7.71,8.49-11.96,1.69-2.92,2.99-6,4.09-9.45-.7-.13-1.27-.43-1.72-.29-1,.3-1.94.79-2.88,1.23-3.7,1.74-7.53,3.11-11.52,4.03-2.74.64-4.75.39-6.93-.77,0-.12-.05-.28,0-.34,1.46-1.5,2.92-3,4.4-4.48,2.32-2.31,4.68-4.59,7.52-6.24,5.75-3.34,11.72-6.23,18.09-8.22,8.05-2.52,16.31-2.77,24.59-1.89,7.06.75,14.08,1.95,21.12,2.95,7.38,1.04,14.76,2.17,22.16,3.08,7.29.9,14.61,1.5,21.9,2.37,8.59,1.03,17.19,1.39,25.83,1.32,9.63-.09,19.03-1.67,28.23-4.41,8.1-2.41,15.75-5.82,22.45-11.05,1.82-1.42,3.46-3.11,5.04-4.81,1.2-1.3,1.87-2.91,1.51-4.87-.57-.09-1.13-.24-1.7-.25-3.85-.06-7.69-.09-11.54-.14-4.08-.05-8.17-.24-12.24-.15-8.51.21-17.02.54-25.53.87-10.87.42-21.69.05-32.39-2.06-10.29-2.03-20.42-4.71-30.52-7.5-.76-.21-1.49-.55-2.82-1.04,2.95-.68,5.29-1.22,7.63-1.75,18.65-4.26,35.81-11.81,51.13-23.32,5.41-4.06,10.64-8.35,15.87-12.63,1.98-1.62,3.77-3.48,5.6-5.27.66-.65,1.24-1.4,1.76-2.17.69-1.02.94-2.11.08-3.29-.45.08-.9.15-1.34.25-8.53,1.88-17.02,3.89-25.58,5.59-7.61,1.51-15.26,1.57-22.92-.03-5.49-1.14-11.08-1.75-16.69-1.47-5.7.28-11.41.68-17.08,1.35-10.34,1.21-20.31,3.91-30.09,7.52-22.12,8.17-40.88,21.21-56.58,38.67-3.82,4.25-7.65,8.48-11.8,12.4-.76.72-1.54,1.43-2.23,2.22-4.91,5.71-11.47,9.53-16.82,14.73-.25.24-.55.45-.87.57-.35.14-.69.73-1.13.17-.02-.15-.07-.27-.04-.36.11-.33.22-.66.37-.97,1.9-3.7,2.65-7.69,2.88-11.8.14-2.46.51-4.86,1.26-7.21.2-.63.16-1.34.28-2.42-.77.52-1.28.77-1.66,1.15-1.41,1.39-2.82,2.79-4.16,4.25-5.39,5.83-11.1,11.32-17.37,16.22-2.11,1.65-4.12,3.43-6.19,5.14-12.11,10.07-19.66,22.87-22.87,38.24-.76,3.65-1.52,7.4-.68,11.09.47,2.05-.01,3.57-.93,5.26-6.46,11.91-11.79,24.31-16.2,37.1-8.09,23.46-13.06,47.58-15.5,72.25-1.04,10.56-1.59,21.15-1.79,31.75-.19,10.14.24,20.28,1.06,30.39.09,1.1.31,2.23-.12,3.75-1.06-1.07-1.87-1.84-2.64-2.66-4.47-4.78-9.81-8.21-15.99-10.32-3.35-1.14-6.74-1.9-10.27-.83-.2.06-.46-.04-.85-.09-3.67-3.6-8.48-5.41-13.29-7.2-2.66-.99-5.4-1.51-8.18-.32-.27.12-.65-.02-1.01-.03-.41-.76-.77-1.49-1.17-2.19-3.28-5.79-7.54-10.66-13.42-13.91-1.82-1.01-3.81-1.73-5.79-2.4-1.41-.48-2.26,0-2.64,1.43-.6,2.24-1.22,4.51-1.49,6.8-.65,5.5.22,10.93,1.12,16.34,1.4,8.42,3.88,16.55,6.91,24.51,4.91,12.92,12.01,24.43,22.1,34.01,7.3,6.93,15.26,13,23.72,18.42,4.15,2.66,8.65,4.6,13.46,5.7,3.97.91,8,1.56,12.01,2.28,3.65.65,7.31,1.25,11.14.93Z"/>
      <path d="m533.34,339.23c.4-.21.81-.42,1.33-.68.82.92,1.66,1.86,2.46,2.77,3.54-.83,6.99-1.78,10.5-2.41,4.12-.74,8.27-1.34,12.44-1.75,6.69-.67,13.24.23,19.67,2.15,6.58,1.96,13.11,4.05,19.46,6.68,12.02,4.97,22.57,12.06,31.43,21.58,9.35,10.04,17.22,21.09,22.97,33.6,2.02,4.39,3.33,8.94,3.47,13.78.02.68-.06,1.36-.1,1.99-1.63,1.32-3.38,1.18-5.12,1.02-5.69-.51-10.87-2.45-15.62-5.6-.87-.58-1.67-1.28-2.56-1.83-2.34-1.45-3.46-3.41-3.65-6.27-.26-3.88-1.82-7.47-3.96-10.7-5.26-7.92-11.64-14.83-19.35-20.45-1-.73-1.93-1.73-3.34-1.69-.19-.18-.37-.37-.56-.55-.06.09-.12.18-.17.27.27.07.53.13.8.2-.19,1.04.75,1.36,1.29,1.88,3.78,3.64,7.61,7.23,11.38,10.88,3.54,3.43,6.53,7.3,8.95,11.58.85,1.51,1.54,3.13,2.19,4.75.92,2.28.63,4.57-.11,6.84-.36,1.1-1.09,1.66-2.22,1.96-4.43,1.19-14.31.1-18.46-2.14-.09-.29-.24-.61-.29-.94-.77-5.81-3.26-10.9-6.51-15.67-4.23-6.2-8.99-11.91-14.97-16.51-.6-.46-1.29-.82-2.33-1.48.13,1.33.8,1.81,1.29,2.34,4.45,4.8,8.48,9.93,12.05,15.41,1.65,2.54,3.15,5.17,4.62,7.82,1.27,2.29,1.77,4.79,1.68,7.41-.02.47,0,.94-.07,1.39-.31,1.76-1.22,2.79-3.01,2.84-3.14.09-6.31.18-9.42-.17-4.79-.53-9.28-2.18-13.51-4.51-.71-.39-1.45-.73-2.19-1.08-.06-.03-.17.05-.34.11-.3,1.11.47,1.96.86,2.87,4.42,10.28,8.36,20.74,11.82,31.38,5.64,17.31,9.96,34.93,12.88,52.9,3.37,20.78,4.57,41.69,3.54,62.72-.47,9.66-1.54,19.28-3.3,28.95,3.89,6.05,4.52,13.01,4.81,20.02.28,6.56-.41,13.03-2.15,19.38-.12.43-.39.82-.62,1.22-.04.06-.22.04-.54.09.28-8,.58-15.99-1.35-23.85,0,1.02-.07,2.05.01,3.07.7,8.51.26,17-.37,25.49-.15,1.99-.6,3.91-1.59,5.68-1.08,1.93-2.11,3.89-3.2,5.82-.19.34-.58.58-1.17,1.15,1.38-8.58,2.2-16.77.67-25.02-.05,1.14-.1,2.29-.15,3.43-.39,8.27-1.1,16.5-2.87,24.62-.59,2.69-1.79,4.98-3.71,7.26-.52-1.06-.03-1.87.09-2.67.13-.81.24-1.61.37-2.42.15-.92.35-1.83.48-2.75.14-.92.22-1.85.34-2.78.1-.81.25-1.61.32-2.42.09-.93.11-1.86.16-2.79.04-.81.12-1.63.11-2.44-.01-.92-.11-1.83-.53-2.8-.09.34-.24.69-.27,1.03-.57,8.16-2.05,16.17-3.81,24.14-.55,2.5-2.11,5.93-4.28,9.5-.74-.32-.35-.96-.37-1.44-.03-.58.09-1.16.12-1.74.28-5.7.6-11.4.81-17.11.06-1.61-.17-3.23-.69-4.87-.13.61-.34,1.22-.38,1.83-.22,3.25-.46,6.51-.59,9.77-.27,6.76-.86,13.49-2.04,20.15-.21,1.21-.24,1.2-1.38,2.52-.79-.39-.7-1.15-.69-1.82.04-2.48-.4-4.88-1.1-7.23-1.17-3.97-1.64-7.98-1.14-12.09.05-.45,0-.91,0-1.38-1.18-.13-1.52.79-1.84,1.42-3.36,6.65-8.34,12.39-11.07,19.4-.25.65-.62,1.25-.93,1.88-2.81,5.5-5.29,11.13-7.71,16.82-8.95,21.04-22.1,39.01-39.69,53.78-13.22,11.09-28.04,19.16-44.16,25.03-5.06,1.84-10.3,3-15.61,3.71-5.72.76-11.15,2.38-16.31,4.93-8.38,4.13-16.23,9.16-24.11,14.16-1.37.87-2.74,1.73-4.03,2.54-1.25-.84-1.23-1.92-1.03-2.95.17-.91.48-1.81.88-2.64.95-2,1.86-4.03,3.03-5.9,4.13-6.62,8.17-13.32,12.59-19.75,9.63-14.01,21.87-25.4,35.97-34.83,2.52-1.68,5.14-3.21,7.7-4.83.56-.35,1.08-.75,1.6-1.12-.47-.87-1.12-.62-1.63-.59-4.42.25-8.86.44-13.27.84-5.57.51-11.12,1.23-16.68,1.82-8.74.93-17.18,3.12-25.43,6.08-5.7,2.04-11.39,4.13-17.02,6.35-10.84,4.26-21.82,8.12-32.96,11.55-1.86.57-3.7,1.24-5.57,1.88-.85-1.5-.94-2.81-.58-4.23.64-2.53,1.83-4.78,3.25-6.93,4.16-6.29,9.39-11.56,15.34-16.16,10.64-8.22,22.53-13.97,35.35-17.89,9.14-2.8,18.46-4.87,27.76-7,15.33-3.49,30.79-6.35,46.25-9.23,6.75-1.26,13.48-2.67,19.82-5.49,5.69-2.53,10.93-5.75,15.49-10.01.68-.64,1.37-1.27,2.04-1.91,9.63-9.22,9.35-10.07,14.85-20.9.19-.37.2-.83.34-1.49-2.96.08-5.44.88-7.71,2.39-3.11,2.07-6.06,4.35-8.72,6.99-.74.74-1.47,1.52-2.3,2.14-.4.3-1.04.29-1.6.43-.72-1.6-.28-2.88.5-4.1,1.95-3.04,3.87-6.1,5.88-9.1,2.72-4.07,5.53-8.08,8.26-12.14.7-1.05,1.23-2.22,1.83-3.33.35-.42.7-.83,1.32-1.57-1.21.42-1.48.9-1.24,1.65-.9-.15-1.17.62-1.54,1.14-4.81,6.72-10.07,13.13-14.17,20.34-.04.07-.17.09-.4.21-.11-.29-.32-.57-.29-.83.61-5.36,2.19-10.47,4.08-15.49.36-.95,1.07-1.79,1.73-2.59,3.11-3.78,6.27-7.51,9.39-11.28,1.24-1.5,2.43-3.04,3.5-4.72-1.27.35-2,1.39-2.87,2.22-1.01.97-1.95,2-2.91,3.02-.87.94-1.71,1.91-2.58,2.85-.86.93-1.73,1.83-2.64,2.79-.22-.32-.46-.51-.42-.63.78-2.68,1.5-5.38,2.42-8.01.37-1.07,1.1-2.04,1.78-2.97,1.85-2.53,3.82-4.97,5.37-7.86q-1.48.66-2.37,1.61c-.7.74-1.33,1.56-2.57,2.53.13-1.17.11-1.83.28-2.43,3.06-10.78,4.51-21.86,6.21-32.91.62-4.02.39-7.8-.52-11.71-1.51-6.47-3.24-12.85-5.55-19.09-1.74-4.69-3.44-9.4-5-14.15-3.71-11.32-8.66-22.13-14.26-32.59-4.45-8.31-9.77-16.13-15.34-23.75-.39-.54-.92-.98-1.62-1.71-.51,1.2-.93,2.1-1.29,3.03-2.76,7.18-8.44,10.85-15.48,12.89-.44.13-.95.09-1.37.25-2.26.87-3.78-.05-5.03-1.9-1.18-1.76-2.01-3.67-2.58-5.7-1.34-4.7-2.69-9.4-4.02-14.1-.16-.57-.26-1.15-1.06-1.06.02-.39.04-.78.05-1.17-.02,0-.05,0-.07,0v1.17c1.26,5.8,2.51,11.6,3.77,17.4.58,2.66,1.78,5.04,3.56,7.28-.21.74-.33,1.55-.68,2.25-1.09,2.18-2.13,4.42-3.48,6.45-1.08,1.63-2.42,3.18-3.93,4.42-6.36,5.2-13.75,7.03-22.02,6.5-.64-1.17-1.38-2.23-1.82-3.4-1.46-3.83-2.37-7.78-2.43-11.92-.09-6.44.78-12.79,1.8-19.12.65-4.02,1.49-8.01,2.22-12.02.03-.18-.09-.4-.24-.96-.63,1.13-1.2,1.99-1.61,2.91-1.43,3.2-2.41,6.55-3.13,9.98-1.3,6.16-2.62,12.31-2.55,18.66.06,5.44,1.08,10.66,3.58,15.51.59,1.15.66,2.17.31,3.34-1.5,4.99-3.64,9.62-7.75,13.02-2.33,1.93-4.81,3.68-7.25,5.47-.56.41-1.21.69-1.85.97-2.4,1.05-3.73.75-4.93-1.58-2.34-4.55-4.79-9.06-5.93-14.13-1.15-5.11-2.77-10.1-3.53-15.31-1.41-9.71-2.17-19.41-1.48-29.26.65-9.13,2.25-18.01,5.2-26.66,1.99-5.86,4.52-11.49,7.63-16.85,3.37-5.8,7.3-11.11,13.39-14.81-.57-.59-.95-1.15-1.47-1.48-3.55-2.24-7.1-4.47-10.7-6.62-4.71-2.82-9.29-5.82-13.45-9.41-2.03-1.75-3.98-3.59-5.92-5.44-2.79-2.65-5.48-5.4-8.31-8-8.7-8-16.67-16.64-23.22-26.5-7.19-10.82-10.92-22.81-12.1-35.69-.44-4.79-.28-9.54.09-14.31.1-1.25.3-2.53-.02-3.85-1.82.05-3.23.83-4.62,1.69-10.74,6.65-16.79,16.21-17.9,28.82-.81,9.16,1.06,17.84,4.79,26.17,2.43,5.44,5.4,10.58,8.83,15.45,7.34,10.41,15.73,19.94,24.41,29.25,4.45,4.77,8.96,9.52,13.03,14.61,8.42,10.54,14.18,22.42,16.6,35.77.62,3.42.69,6.94.98,10.42.04.52-.1,1.06-.14,1.5-.92.25-1.01-.3-1.14-.7-.37-1.22-.66-2.48-1.04-3.7-4.88-15.5-11.73-29.91-22.98-41.93-5.9-6.3-11.73-12.66-17.52-19.06-6.34-7.01-12.34-14.3-17.74-22.07-4.67-6.72-8.65-13.82-11.52-21.51-3.16-8.46-4.39-17.22-3.23-26.12,2.01-15.45,9.93-26.83,24.32-33.43,1.86-.85,3.78-1.09,5.94-1.08.61-1.61,1.23-3.21,1.93-5.05-.19-.36-.41-.87-.72-1.34-1.68-2.63-1.53-5.26-.08-7.93,2.18-4.03,4.85-7.71,8.15-10.86,2.18-2.08,4.58-3.97,7.02-5.75,2.65-1.93,5.67-2.68,8.95-1.84.82.21,1.56.21,2.37-.09,2.94-1.08,5.91-2.09,9.09-3.21.1-.65.25-1.43.34-2.21.39-3.54,1.76-6.65,3.64-9.7,4.52-7.33,18.56-16.52,29.04-17.88,15.18-1.97,29.74-.19,43.84,5.61,3.44,1.42,6.82,3.02,10.17,4.65,4.73,2.3,9.13,5.16,13.19,8.52,3.87,3.19,7.73,6.39,11.56,9.63,3.74,3.17,7.12,6.72,10.36,10.4,3.46,3.94,7.03,7.79,10.45,11.77,8.76,10.21,19.31,18.2,30.87,24.94,4.23,2.47,8.54,4.79,12.8,7.19.77.44,1.49.97,2.82,1.85-1.1.1-1.51.25-1.87.16-16.06-4.06-30.92-10.48-42.88-22.32-4.71-4.67-9.29-9.53-13.52-14.64-5.97-7.22-12.6-13.69-19.62-19.88-8.08-7.11-17.09-12.5-26.96-16.6-9.37-3.89-19.17-5.79-29.28-5.93-5.13-.07-10.25.54-15.24,1.82-1.79.46-3.56,1.12-5.26,1.86-3.87,1.68-7.38,3.98-10.73,6.52-4.35,3.29-6.99,7.7-8.64,13.07,2.25-.24,4.31-.43,6.37-.68,7.21-.88,14.41-.81,21.63-.02,11.8,1.29,23.03,4.66,33.89,9.32,8.7,3.74,16.81,8.54,24.65,13.85,2.76,1.87,4.05,4.62,4.3,7.62.38,4.55,1.04,9,2.16,13.42.45,1.79.51,3.68.72,5.53.33,2.85,1.02,5.5,3.64,7.17,1.17,1.91,2.81,3.34,4.71,4.5.17.85.72,1.15,1.54,1.06l-.15-.11c.18.92.91.77,1.55.8l-.15-.1c.2.87.91.76,1.54.8l-.15-.1c1.19,1.25,2.84,1.59,4.34,2.21l-.15-.11c.75.56,1.49,1.13,2.24,1.69,2.17,2.22,4.31,4.47,6.52,6.64.73.71,1.65,1.23,2.48,1.84.3,1.14,1.05,1.73,2.22,1.82l-.14-.11c.4,1,1.23,1.38,2.22,1.52l-.14-.1c1.24,1.12,2.72,1.53,4.36,1.47l-.15-.07c.98.75,1.96.91,2.94,0l-.14.06c.79-.14,1.78.3,2.25-.78,0,0-.15.1-.15.1.61-.26,1.22-.52,1.83-.78.11-.09.22-.19.33-.28.25-.62.51-1.24.76-1.86,0,0-.09.14-.09.14.86-.2.63-.97.79-1.53l-.09.09Zm-33.15,145.7c.6-.04.95-.38,1.1-.95.75-1.03.68-2.11.25-3.23.84-.22.98-.87,1.01-1.6.23-5.4-.62-10.62-2.82-15.56-.74-1.67-1.9-3.17-2.91-4.71-.2-.3-.44-.83-1.01-.55-.05.12-.15.25-.12.3.3.49.6.98.93,1.46,4.35,6.28,5.75,13.26,5.02,20.79-.08,1.06-.16,2.12-.25,3.18-.43.3-.85.6-1.27.9.28.15.57.31,0,.48.02-.17.04-.35.07-.52Zm-15.27-37.16c1.58,3.09,4.44,4.97,6.9,7.23.18.17.55.14.89.22-.03-.27,0-.4-.06-.46-2.47-2.42-4.95-4.84-7.43-7.26-.19-.41-.33-.87-.59-1.24-3.41-4.84-7.69-8.74-12.8-11.71-5.5-3.18-11.48-4.45-17.79-4.08-1.59.09-2.98-.05-4.31-.93-.39-.25-.84-.89-1.42-.21,2.38,2.21,2.4,2.22,5.2,2.2,1.05,0,2.1-.03,3.15-.03,5.87-.01,11.24,1.65,16.17,4.81,3.87,2.48,7.2,5.53,10.04,9.13.64.81,1.38,1.55,2.07,2.32Zm59.12,186.75c1.45-.42,2.26-1.59,3.07-2.71,2.24-3.09,3.44-6.57,3.7-10.37.31-4.57-.29-9.07-1.43-13.47-.64-2.48-1.68-4.88-3.79-6.54-2.35-1.85-3.41-4.33-3.86-7.17-.2-1.26-.38-2.53-.62-3.79-.06-.32-.29-.61-.75-1.54-.23,2.25-.06,3.73.23,5.2.64,3.26,1.78,6.19,4.56,8.37,2.1,1.64,2.88,4.2,3.5,6.69.84,3.4,1.12,6.89,1.15,10.38.04,5.47-1.55,10.3-5.66,14.13-.16.15-.21.4-.32.6-1.17.26-2.13.84-3.46,2.04,1.83-.36,2.99-.62,3.68-1.8Zm-2.02-128.6l-.1-.1c1.1.57,2.2,1.13,3.64,1.87.77,2.48,1.7,5.23,2.49,8.01,4.63,16.29,7.62,32.88,9.21,49.73,1.24,13.22,2.66,26.43,3.3,39.7.03.7.1,1.4.26,2.08.1.42.39.8.61,1.2.46-.07.82-.07,1.12-.19,4.84-1.84,7.62-5.57,9.32-10.25,1.95-5.35,2.34-10.87,1.85-16.53-.38-4.4-.41-8.84-.55-13.26-.02-.63-.18-1.4.76-1.91.62.57,1.25,1.22,1.95,1.78,1.79,1.42,3.79.7,4.17-1.55.19-1.13.15-2.33.05-3.48-.35-4.18-.87-8.33-1.78-12.44-2.84-12.86-6.07-25.6-11.19-37.79-.16-.38-.12-.84-.18-1.39,1.17-.27,2.19-.48,3.2-.74,2.57-.65,3.76-2.14,3.69-4.74-.02-.8-.23-1.61-.39-2.41-.9-4.6-2.51-8.97-4.53-13.18-4.19-8.73-8.92-17.16-14.33-25.19-1.43-2.12-2.85-4.24-4.25-6.33.68-1.87,1.38-3.59,1.93-5.36,2.53-8.21,1.71-16.34-.68-24.42-.69-2.31-2.1-4.12-3.93-5.66-4.11-3.44-8.24-6.87-12.3-10.37-2.62-2.25-5.6-3.68-8.91-4.62-2.68-.76-5.32-1.69-7.91-2.72-2.53-1-5.05-1.79-7.81-1.4-1.84.26-3.41-.36-4.92-1.37-1.09-.74-2.05-1.95-3.71-1.3-.26.1-.83-.36-1.16-.66-.87-.78-1.69-1.61-2.52-2.43-7.19-7.16-14.67-14.01-22.41-20.57-6.49-5.51-13.31-10.6-20.24-15.54-.8-.57-1.8-.98-2.27-2.11.68-.61,1.3-1.12,1.89-1.68,7.45-7.09,10.3-15.71,7.96-25.73-3.35-14.33-17.76-22.8-32.01-19.18-13.74,3.5-21.96,17.34-19.05,30.97,2.5,11.69,13.09,20.43,25.06,20.47,2.2,0,4.4-.17,6.69-.26.32.24.71.48,1.05.79,6.93,6.24,13.93,12.41,20.77,18.74,5.05,4.67,9.89,9.56,14.82,14.35,10.22,9.94,19.66,20.55,27.88,32.21,2.41,3.42,4.43,7.13,6.91,10.51,1.84,2.5,2.13,5.05,1.43,7.89-.11.45-.19.92-.35,1.35-.75,2.07-.57,4.12.08,6.17.28.89.52,1.79.87,2.65.97,2.39,1.53,4.87,1.98,7.4,1.22,6.92,3.17,13.58,6.65,19.76,2.87,5.09,6.09,9.93,9.61,14.58.84,1.11,1.85,2.09,2.87,3.04.94.87,2.01,1.6,3.4,1.58Zm-84.63-219.21c-.73,0-.96-.01-1.19,0-1.69.1-3.23.56-4.12,2.12-.96,1.69-.11,3.22.88,4.49,2.46,3.18,5.88,4.87,9.81,5.25,2.95.29,4.83-2.44,3.55-5.12-1.88-3.9-5.07-6.19-8.93-6.75Zm-72.75,74.85c-2.32.07-3.41,1.12-3.44,2.87-.01.69.06,1.41.28,2.06,1,2.92,2.6,5.44,5.12,7.31.46.34.97.67,1.5.88,2.03.82,3.86-.22,4.05-2.38.09-1.02-.02-2.11-.32-3.08-.87-2.74-2.68-4.88-4.88-6.65-.76-.61-1.86-.82-2.3-1Zm83.04-57.36c-.79-1.18-1.9-1.16-2.9-1.32-4.5-.73-8.43-2.66-11.76-5.72-2.83-2.59-5.52-5.33-8.27-8.01-.38-.37-.73-.76-1.09-1.13-.22.61-.12,1.03.06,1.41.36.73.69,1.48,1.16,2.14,4.43,6.29,10.23,10.78,17.64,13.01,1.29.39,2.75.3,4.13.32.34,0,.68-.44,1.03-.69Zm-80.43,54.19c1.76,1.83,3.49,3.69,5.27,5.49,2.98,3.02,4.87,6.47,4.52,10.87-.04.51-.19,1.19.84,1.44.29-.51.78-1.02.9-1.62.44-2.07.42-4.13-.32-6.16-1.59-4.38-6.19-8.83-11.22-10.03Zm177.41,298.43c-2.13-2.88-2.12-5.54-2.1-8.18.01-1.62.12-3.25.27-4.87.47-4.96,2.36-9.14,6.49-12.21,3.79-2.81,7.84-4.91,12.58-5.56,1.02-.14,2.02-.5,2.99-.87.29-.11.86-.38.47-1.04-1.33.34-2.63.85-3.98.99-4.18.42-7.83,2.18-11.19,4.49-2.87,1.98-5.62,4.25-6.82,7.72-1.82,5.24-2.36,10.63-1.34,16.13.24,1.26.74,2.32,2.61,3.41Zm-188.2-376.73c-.64-.85-1.22-.38-1.71.13-3.06,3.16-6.1,6.34-9.13,9.53-.17.18-.17.52-.3.94,5.05-2.17,9.78-6.73,11.13-10.6Zm-8.4,30.16c.85-.81,1.39-1.13,1.63-1.6.77-1.54,1.47-3.11,2.13-4.7.26-.63.43-1.33.44-1.99,0-.35-.37-.92-.68-1-.32-.08-.92.2-1.11.51-1.39,2.13-2.42,4.44-2.85,6.97-.07.38.19.82.45,1.82Zm21.31-29.73c3,1.35,5.45.76,7.85.75.54,0,1.19.02,1.46-.81-.15-.2-.28-.6-.52-.68-2.39-.72-4.82-.34-7.24-.2-.35.02-.69.4-1.55.94Zm105.52,176.02c-.11-.06-.39-.25-.7-.36-.15-.05-.36.04-.54.06.03.18.02.39.12.54.11.17.29.34.48.42.14.06.35-.02.52-.07.04-.01.04-.16.12-.6Z"/>
      <path d="m133.84,415.07c-3.83.32-7.49-.28-11.14-.93-4.01-.72-8.04-1.37-12.01-2.28-4.8-1.1-9.3-3.03-13.46-5.7-8.46-5.43-16.42-11.49-23.72-18.42-10.09-9.58-17.19-21.09-22.1-34.01-3.03-7.96-5.51-16.09-6.91-24.51-.9-5.4-1.78-10.84-1.12-16.34.27-2.3.9-4.56,1.49-6.8.38-1.44,1.23-1.92,2.64-1.43,1.97.67,3.97,1.4,5.79,2.4,5.88,3.25,10.15,8.12,13.42,13.91.4.71.77,1.43,1.17,2.19.36.02.73.15,1.01.03,2.79-1.19,5.52-.67,8.18.32,4.81,1.79,9.62,3.6,13.29,7.2.39.05.65.15.85.09,3.54-1.06,6.93-.3,10.27.83,6.19,2.11,11.52,5.54,15.99,10.32.77.82,1.58,1.6,2.64,2.66.44-1.52.21-2.65.12-3.75-.83-10.11-1.25-20.24-1.06-30.39.19-10.6.74-21.19,1.79-31.75,2.44-24.67,7.41-48.79,15.5-72.25,4.41-12.8,9.75-25.2,16.2-37.1.91-1.69,1.4-3.21.93-5.26-.85-3.69-.08-7.44.68-11.09,3.21-15.37,10.76-28.17,22.87-38.24,2.06-1.72,4.07-3.49,6.19-5.14,6.26-4.9,11.98-10.38,17.37-16.22,1.34-1.46,2.75-2.86,4.16-4.25.38-.38.89-.62,1.66-1.15-.12,1.09-.08,1.79-.28,2.42-.75,2.35-1.12,4.75-1.26,7.21-.23,4.1-.99,8.09-2.88,11.8-.16.31-.27.64-.37.97-.03.09.02.22.04.36.44.56.78-.03,1.13-.17.32-.13.62-.34.87-.57,5.35-5.2,11.91-9.02,16.82-14.73.68-.79,1.46-1.5,2.23-2.22,4.15-3.93,7.98-8.15,11.8-12.4,15.71-17.45,34.46-30.5,56.58-38.67,9.77-3.61,19.75-6.31,30.09-7.52,5.67-.66,11.38-1.07,17.08-1.35,5.61-.27,11.2.33,16.69,1.47,7.66,1.6,15.31,1.54,22.92.03,8.56-1.7,17.06-3.72,25.58-5.59.44-.1.89-.17,1.34-.25.86,1.18.6,2.28-.08,3.29-.52.77-1.1,1.52-1.76,2.17-1.83,1.8-3.62,3.65-5.6,5.27-5.23,4.28-10.47,8.57-15.87,12.63-15.32,11.5-32.48,19.06-51.13,23.32-2.34.53-4.68,1.07-7.63,1.75,1.33.49,2.06.83,2.82,1.04,10.1,2.8,20.23,5.47,30.52,7.5,10.7,2.11,21.52,2.49,32.39,2.06,8.51-.33,17.02-.66,25.53-.87,4.08-.1,8.16.09,12.24.15,3.85.05,7.69.08,11.54.14.57,0,1.14.16,1.7.25.36,1.96-.32,3.57-1.51,4.87-1.57,1.71-3.21,3.39-5.04,4.81-6.71,5.23-14.36,8.64-22.45,11.05-9.2,2.74-18.59,4.32-28.23,4.41-8.64.08-17.25-.29-25.83-1.32-7.29-.88-14.61-1.47-21.9-2.37-7.4-.91-14.77-2.04-22.16-3.08-7.04-.99-14.05-2.2-21.12-2.95-8.28-.88-16.54-.63-24.59,1.89-6.37,1.99-12.34,4.89-18.09,8.22-2.84,1.65-5.2,3.93-7.52,6.24-1.48,1.48-2.94,2.98-4.4,4.48-.06.06,0,.23,0,.34,2.18,1.16,4.19,1.41,6.93.77,3.98-.92,7.82-2.29,11.52-4.03.95-.45,1.89-.93,2.88-1.23.45-.13,1.02.16,1.72.29-1.09,3.45-2.39,6.52-4.09,9.45-2.46,4.25-5.34,8.2-8.49,11.96-12.05,14.36-22.15,29.97-30.36,46.81-.61,1.26-1.16,2.56-1.92,3.72-1.66,2.51-2.32,5.3-2.65,8.22-.8,7.07-1.4,14.15-1.2,21.27.1,3.61.2,7.23.14,10.84-.2,11.79.55,23.51,2.1,35.21,1.49,11.25,4.51,22.11,7.67,32.95.13.44.32.86.57,1.53.62-.52,1.22-.88,1.61-1.39,4.94-6.44,11.7-8.54,19.47-8.07,1.95.12,3.88.69,5.98,1.08.42-.41.91-.88,1.39-1.36,1.97-1.98,3.82-4.1,5.93-5.92,3.64-3.15,8.03-4.63,12.8-5.03,5.81-.49,11.38.48,16.73,2.78.63.27,1.27.52,1.91.77.36-.25.75-.38.89-.64,4.48-7.98,11.54-12.25,20.26-14.14,1.47-.32,2.97-.51,4.47-.6,1.17-.07,1.96.64,2.37,1.72.17.43.35.87.42,1.33.8,5.65,1.75,11.28.86,17.03-.48,3.1-.45,6.28-.85,9.39-1.98,15.41-6.54,30.03-14.08,43.63-6.16,11.13-14.21,20.75-24.27,28.62-4.17,3.26-8.74,5.75-13.81,6.95-.58.96.08,1.48.48,1.97,2.78,3.45,5.55,6.91,8.41,10.29,3.63,4.28,6.93,8.79,9.74,13.64,1.11,1.91,2.14,3.87,3.16,5.84,1.86,3.62,3.61,7.31,5.53,10.9,5.08,9.47,9.39,19.26,12.4,29.59,2.46,8.47,3.37,17.07,2.8,25.91-.61,9.55-2.99,18.59-6.73,27.33-.54,1.27-1.07,2.55-1.61,3.85.85.9,1.8.75,2.68.65,5.78-.68,11.05-2.71,15.83-6.03,8.04-5.58,12.85-13.35,15.32-22.68,1.94-7.31,2.1-14.72,1.19-22.2-1.29-10.61-4.55-20.69-8.41-30.57-3.01-7.7-6.33-15.27-9.64-22.85-2.51-5.77-5.12-11.49-6.99-17.51-3.03-9.78-4.38-19.78-3.84-30,.3-5.72,1.36-11.33,3.33-16.74.19-.51.21-1.16,1.14-1.27.51.65.31,1.47.22,2.2-.62,5.47-.32,10.94.06,16.41.77,10.99,2.73,21.71,7.21,31.87,3.86,8.74,7.69,17.48,11.4,26.28,4.16,9.88,7.86,19.94,10.36,30.39,1.82,7.62,2.91,15.34,2.54,23.2-.38,8.26-2.26,16.16-6.25,23.44-6.83,12.47-17.31,19.86-31.46,21.88-1.26.18-2.57.25-3.84.13-1.25-.12-2.47-.56-3.8-.88-1.11,1.31-2.22,2.64-3.35,3.98-.02.2-.11.45-.05.65,1.2,3.68.03,6.57-2.83,9.02-5.39,4.62-11.42,8.04-18.24,10.01-3.59,1.04-7.13,1.17-10.38-1.16-.36-.26-.84-.48-1.27-.48-3.48-.04-6.97-.02-10.45-.02-.43.95-.75,1.68-1.09,2.41-1.24,2.69-3,4.96-5.35,6.8-3.71,2.91-7.77,5.09-12.32,6.42-5.74,1.68-11.52,3-17.55,2.44-4.89-.45-9.66-1.54-14.33-3.05-11.48-3.72-21.65-9.72-30.6-17.8-2.42-2.19-4.73-4.5-7.05-6.8-3.66-3.62-6.86-7.63-9.56-12.01-2.93-4.76-5.94-9.49-8.63-14.39-2.19-3.97-4.06-8.12-5.89-12.28-2.26-5.11-4.36-10.29-6.47-15.47-4.48-11.01-10.78-20.9-18.41-29.97-3.68-4.37-7.53-8.59-11.29-12.89-.82-.94-1.86-1.73-2.3-2.96.83-.62,1.39-.09,1.93.31,3.84,2.84,7.75,5.6,11.48,8.58,10.11,8.09,17.78,18.13,23.07,29.9,3.1,6.9,5.87,13.95,8.69,20.97,1.61,4.01,3.34,7.94,5.53,11.67,2.42,4.12,4.82,8.25,7.27,12.35,2.4,4.02,5.22,7.73,8.52,11.06,2.55,2.57,5.04,5.2,7.74,7.59,9.2,8.17,19.61,14.19,31.62,17.2,3.26.82,6.62,1.48,9.97,1.73,7.11.53,13.89-1.14,20.4-3.91,3.97-1.69,6.8-4.73,9.59-8.3-1.23-.33-2.18-.66-3.16-.84-15.94-2.89-30-9.85-42.87-19.49-12.36-9.26-22.5-20.59-31.33-33.17-10.7-15.25-19.06-31.74-25.82-49.06-1.95-4.99-3.68-10.06-5.51-15.1-.24-.65-.5-1.28-.76-1.96Zm84.26-243.44c.32-.04.79.05.92-.13.64-.83,1.19-1.73,1.77-2.6,6.99-10.49,14.2-20.8,23.18-29.74,1.98-1.97,3.76-4.15,5.54-6.3,2.25-2.73,3.9-5.85,4.77-8.72-1.47.19-2.53,1.12-3.69,1.84-4.37,2.71-9.03,3.64-14.07,2.44-.76-.18-1.56-.25-2.5-.4-1.56,3.67-3.09,7.18-4.55,10.71-3.51,8.51-6.72,17.13-9.19,26-.65,2.34-1.51,4.63-2.25,6.94.02.15.03.29.05.44,0-.16.02-.32.03-.48ZM395.81,33.79c-.59.35-1.15.78-1.78,1.03-7.29,2.91-14.9,4.67-22.67,5.58-4.75.55-9.53.44-14.3-.34-5.06-.83-10.18-1.4-15.32-1.34-9.69.11-19.34.92-28.86,2.76-13.48,2.6-26.26,7.31-38.36,13.72-11.71,6.21-22.04,14.39-31.55,23.6-6.64,6.43-12.35,13.66-17.68,21.19-2.32,3.28-4.93,6.04-8.74,7.73-4.91,2.17-9.37,5.2-13.72,8.35-.64.46-1.18,1.06-1.8,1.63,2.13,2.67,3.16,5.6,3.3,8.81.19,4.34-.26,8.6-1.84,12.71-.67,1.73-1.06,3.58-1.72,5.31-1.65,4.34-1.77,9.14-4.08,13.15.44.9.69,1.72,1.18,2.35.97,1.22,1.06,2.46.64,3.9-1.39,4.81-2.64,9.66-4.08,14.45-4.31,14.4-8.38,28.85-11.42,43.58-1.32,6.39-2.46,12.81-3.13,19.31-.75,7.32-.96,14.66-.96,22,0,7.11.06,14.23.55,21.32.58,8.48,1.54,16.94,2.54,25.38,1.02,8.56,2.48,17.05,4.59,25.43,6.3,25.07,16.52,48.45,30.31,70.3.18.29.42.54.62.78,3.7-.36,3.64-.26,7.06,1.96,4.3,2.79,8.62,5.57,13.11,8.03,5.66,3.11,10.66,7.09,15.7,11.05,2.33,1.83,3.8,4.13,4.08,7.04.2,2.04,1.21,3.32,2.77,4.55,5.89,4.65,9.22,10.83,9.8,18.26,1.45,18.64-16.04,32.52-33.68,27.31-11.81-3.49-18.61-14.29-18.75-24.35-.11-8.33,2.97-15.19,9.17-20.7.77-.68,1.53-1.36,2.35-2.09-.59-.83-1.04-1.5-1.53-2.14-5.01-6.44-10.05-12.86-15.04-19.32-10.5-13.57-20.33-27.58-28.32-42.81-2.54-4.85-5.18-9.66-7.54-14.59-4.51-9.46-9.13-18.89-13.2-28.54-6.58-15.57-12.21-31.49-15.47-48.15-.99-5.04-1.87-10.08-2.02-15.22-.18-6.21.19-12.36,2.43-18.24.54-1.4,1.15-2.82,1.97-4.07,2.33-3.54,5.7-4.58,9.74-3.2.72.25,1.45.48,2.52.82-.12-1.01-.15-1.69-.29-2.35-1.15-5.36-1.79-10.79-2.3-16.25-.52-5.48-.73-10.93.21-16.38.9-5.16,1.78-10.33,2.8-15.46.29-1.46.86-2.92,1.59-4.22,1.42-2.52,3.76-3,6.24-1.48.56.34,1.09.73,1.73,1.17.65-2.84,1.15-5.47,1.87-8.05.72-2.58,1.68-5.08,2.5-7.64.16-.5.14-1.07.21-1.59-1.28-.2-2.35-.23-3.33-.53-4.62-1.43-8.25-3.85-8.76-9.22-.02-.24-.24-.47-.55-1.05-1.04,1.7-1.9,3.07-2.71,4.46-11.43,19.68-19.52,40.71-25.43,62.62-3.65,13.51-6.35,27.22-8.22,41.08-.69,5.08-1.14,10.19-1.66,15.29-.07.65.08,1.32.12,1.91.43.12.66.25.87.23,2.63-.21,4.33,1.15,5.85,3.13,3.71,4.84,5.86,10.24,6.65,16.29.76,5.79,2.03,11.43,5.15,16.55,2.12,3.49,3.34,7.43,4.2,11.44.64,2.98.18,5.88-1.45,8.39-1.12,1.74-2.64,3.28-4.22,4.64-3.11,2.68-6.65,3.32-10.36,1.29-1.62-.89-3.04-2.14-4.57-3.18-.83-.56-1.28-1.7-2.7-1.7,1.15,15.86,3.51,31.49,7,46.94.58,2.57.88,5.25,2.08,7.61.41-.04.64-.01.84-.08,4.79-1.68,9.39-1.44,13.71,1.37,2.25,1.46,4.51,2.92,6.62,4.56,4.88,3.8,8.58,8.53,10.79,14.35.8,2.1,1.25,4.27.88,6.51-.21,1.25-.49,2.54-1.02,3.69-1.14,2.49-1.06,4.86-.15,7.43.9,2.51,1.46,5.14,2.04,7.75.63,2.84,1.21,5.7,1.63,8.58.3,2.07.35,4.18.41,6.27.09,3.13-1.18,5.65-3.64,7.58-1.26.99-2.55,1.96-3.89,2.99.31.59.55,1.12.85,1.61,7.82,12.67,17.1,24.15,28.03,34.28,7.13,6.61,14.91,12.33,23.57,16.8,9.94,5.13,20.37,8.6,31.62,9.24,3.14.18,6.28.32,9.43.4,1.44.04,2.78.11,3.75,1.4.83,1.1,2.09,1.44,3.38,1.57,1.64.16,3.23,0,4.82-.53,5.92-1.96,11.33-4.87,16.32-8.59,1.79-1.34,3.04-2.85,2.61-5.28-.17-.93,0-1.99.9-2.49,1.45-.8,2.03-2.19,2.73-3.52,5.23-9.92,8.45-20.46,9.36-31.61.7-8.51.33-16.98-1.81-25.34-1.68-6.57-3.97-12.91-6.68-19.1-4.71-10.8-10.46-21.07-16.13-31.38-1.75-3.18-3.84-6.09-6.25-8.81-5.96-6.71-11.89-13.45-16.95-20.9-.26-.38-.59-.7-.95-1.12-3.61.42-7.14,1.01-10.47,2.5-4.22,1.89-8.54,2.05-12.97.75-1.67-.49-3.39-.92-5.12-1.09-4.2-.43-7.49-2.44-10.12-5.6-1.57-1.88-3-3.87-4.52-5.79-3.62-4.57-5.81-9.76-6.94-15.47-.93-4.69-.97-9.25,1.01-13.7.24-.53.38-1.1.61-1.64,1.27-3.03,1.32-6.13.48-9.25-.6-2.24-1.33-4.46-2.09-6.66-.61-1.76-1.34-3.48-2.04-5.2-.94-2.32-1.23-4.73-.93-7.2.91-7.4,3.23-14.3,7.58-20.42,1.01-1.42,2.16-2.73,3.37-4.25-1.73-6.77-2.03-13.88-2.99-20.93-.57-.31-1.05-.65-1.59-.84-.88-.3-1.81-.45-2.69-.74-3.81-1.22-6.55-3.48-7.37-7.6-.23-1.14-.54-2.27-.75-3.41-.7-3.7-1.83-7.22-3.95-10.38-3.7-5.52-3.3-11.5-1.75-17.51.72-2.81,1.75-5.57,2.96-8.21,1.45-3.16,2.95-6.39,4.97-9.2,2.92-4.07,6.35-7.76,11.69-8.56,1.14-5.09,2.07-10.13,3.41-15.07,3.98-14.74,8.67-29.25,14.86-43.23,2.12-4.79,4.25-9.58,6.26-14.42.7-1.68,1.54-3.05,3.24-3.88.82-.4,1.48-1.12,2.19-1.73,6.57-5.68,13.84-10.24,21.82-13.72,8.13-3.54,16.57-5.48,25.45-5.31,7.71.15,15.31,1.39,22.93,2.46,7.15,1,14.29,2.1,21.45,3.11,5.77.81,11.55,1.54,17.32,2.32,8.32,1.12,16.64,2.14,25.01,2.78,7.61.58,15.13.27,22.67-.76,7.67-1.05,15.05-3.07,22.21-5.95,5.54-2.23,10.73-5.11,15.5-8.7.46-.34,1.37-.54.94-1.58-.44,0-.91-.05-1.36,0-4.4.52-8.79,1.11-13.19,1.58-6.37.68-12.75,1.33-19.13,1.89-4.53.4-9.08.57-13.61.97-9.7.85-19.36.36-28.94-1.23-9.31-1.54-18.49-3.77-27.52-6.5-9.38-2.83-18.81-5.42-28.61-6.32-3.48-.32-6.94-.49-10.44.19-6.75,1.3-13.45,2.8-20.05,4.72-1.82.53-3.61.78-5.7.23.15-.63.1-1.31.42-1.61.76-.7,1.67-1.26,2.57-1.79,4.05-2.39,8.49-3.77,12.98-5.05,8.17-2.33,16.51-3.19,24.92-2.2,4.15.49,8.1.56,12.01-.94.11-.04.23-.04.34-.07,8.78-2.32,17.57-4.61,26.12-7.71,12.54-4.55,24.54-10.16,35.2-18.35,5.08-3.91,10.21-7.77,15.3-11.66.37-.28.77-.58.97-.97.12-.23-.11-.65-.17-.96.16.13.31.31.49.37.09.03.26-.17.39-.26-.1-.01-.19-.02-.29-.03-.19-.02-.39-.04-.58-.06Zm-105.26,252.53c-.25,4.81-1.46,11.39-3.19,16.54-3.86,11.45-9.43,22.03-16.52,31.8-3.3,4.54-7.2,8.56-11.53,12.14-.39.32-.75.94-1.67.41,13.55-17.37,23.6-36.37,27.47-58.5-2.34-.59-4.55-1.31-6.82-1.69-4.41-.73-8.84-.81-13.14.61-5.13,1.69-9.75,4.34-13.81,7.45.04,3.84.2,7.44.07,11.04-.12,3.25-.42,6.51-.87,9.74-1.24,8.82-3.85,17.25-7.78,25.25-.21.43-.62.76-1.36,1.64.15-1.24.14-1.83.3-2.36,2.23-7.62,3.72-15.39,4.37-23.3.46-5.57.64-11.16.89-16.74.03-.76-.23-1.54-.35-2.24-10.7-1.45-17.79,2.12-23.19,8.78.06.3.08.65.2.97.67,1.74,1.31,3.49,2.06,5.19,4.99,11.42,10.51,22.59,16.68,33.42,5.01,8.8,10.19,17.52,16.12,25.76.46.64,1.05,1.17,1.52,1.68,6.37-1.89,11.51-5.41,16.25-9.66,14.73-13.23,24.2-29.68,29.66-48.54,2.89-9.99,4.55-20.21,5.08-30.6.17-3.38-.13-6.73-1.08-10.11-7.45,2.06-13.61,6.12-19.34,11.33Zm-242.73,23.01c.1.66.16,1.1.24,1.54.78,4.23,1.54,8.48,2.36,12.7,1.92,9.83,4.14,19.59,7.72,28.98,5.2,13.62,12.89,25.53,24.16,34.99,5.81,4.88,11.89,9.39,18.25,13.51,3.84,2.49,7.97,4.36,12.44,5.39,6.12,1.41,12.26,2.75,18.4,4.09.26.06.59-.2,1.03-.37-5.66-19.22-9.08-38.8-11.28-58.39-2.43-2.06-4.65-3.93-6.87-5.81-3.03-2.56-6.23-4.89-9.72-6.8-2.67-1.46-5.51-2.52-8.45-3.25-.97-.24-2.05-.47-3.01.63,1.06,4.13,2.45,8.19,3.78,12.27,1.37,4.2,2.8,8.39,4.07,12.63,1.22,4.08,2.68,8.1,3.13,12.41-.69-.67-1.26-1.38-1.65-2.18-2.73-5.53-5.53-11.04-8.1-16.65-1.83-4.02-3.41-8.16-4.94-12.31-.64-1.73-1.21-3.62-1.17-5.42.05-2.26-.98-3.43-2.73-4.41-3.47-1.95-7.16-3.38-10.89-4.69-1.19-.42-2.49-.56-3.79.08,0,.5-.08.97.01,1.4.89,4.34,2.09,8.59,3.74,12.71,2.77,6.93,6.28,13.51,9.7,20.13,2.03,3.93,3.88,7.95,5.77,11.95.21.43.14,1,.3,2.31-1.32-1.59-2.15-2.53-2.93-3.52-4.99-6.34-9-13.31-13.08-20.24-4.44-7.53-7.39-15.54-7.73-24.39-.03-.76-.32-1.64-.79-2.23-3.99-5.03-8.22-9.84-13.16-13.97-1.39-1.16-2.78-2.42-4.79-3.11Zm147.58-146.16c-.78-.92-1.57-1.91-2.42-2.86-.66-.74-1.55-.96-2.53-.97-1.31-.01-2.3.64-2.9,1.66-1,1.69-1.97,3.44-2.69,5.27-2.55,6.51-4.45,13.23-6.37,19.94-.99,3.46-2.23,6.85-3.46,10.23-.37,1.03-.69,2.22-2.01,2.8-.85-1.33-.15-3.09-1.4-4.26-1.17-1.09-1.84-2.65-3.2-3.71-.78.96-.97,1.95-1.13,2.97-.45,2.99-1,5.97-1.33,8.98-.41,3.7-.79,7.41-.91,11.13-.15,4.9.5,9.77,1.21,14.61.61,4.14,1.53,8.24,2.18,12.37.27,1.71.39,3.5.19,5.2-.3,2.52-2.63,3.68-4.94,2.66-.85-.38-1.62-.92-2.43-1.38-.81-.46-1.6-.97-2.45-1.33-1.99-.84-3.29-.35-4.3,1.64-.47.93-.81,1.93-1.14,2.92-2.05,6.24-1.96,12.66-1.21,19.03,1.06,9.03,3.28,17.86,5.77,26.59,3.2,11.21,7.46,22.05,11.98,32.77,5.88,13.95,12.62,27.5,19.63,40.92,1.56,2.99,3.22,5.93,4.87,8.88.55.98,1.21,1.9,1.81,2.85.28-.58.22-1.01.06-1.39-1-2.36-2.09-4.68-3.03-7.06-7.35-18.69-13.07-37.81-15.7-57.8-1.31-9.93-2.5-19.87-3.11-29.87-.73-11.87-.78-23.75-.02-35.62.44-6.86,1.03-13.71,2.55-20.43,1.9-8.4,3.7-16.82,5.86-25.15,2.71-10.47,5.4-20.96,9.06-31.16,1.21-3.38,2.29-6.82,3.5-10.42Zm52.69,204.41c-.74-1.25-1.36-2.36-2.04-3.43-6-9.45-11.55-19.15-16.65-29.11-7.57-14.76-14.11-29.9-17.58-46.22-.16-.73-.44-1.44-.8-2.61-.7,1.05-1.21,1.66-1.56,2.34-2.19,4.27-3.79,8.73-4.68,13.47-.73,3.9-.66,7.57,1.09,11.23,1.71,3.57,2.98,7.33,3.73,11.24.67,3.51.61,6.94-.73,10.3-.52,1.3-1.06,2.6-1.4,3.95-.4,1.57-.94,3.21-.82,4.78.35,4.79,1.26,9.52,3.95,13.61,2.23,3.4,4.78,6.6,7.26,9.83,1.56,2.03,3.7,3.09,6.27,3.42,2.07.27,4.18.53,6.17,1.12,3.09.91,5.93.54,8.83-.71,2.23-.96,4.62-1.56,6.92-2.35.63-.22,1.23-.52,2.03-.87Zm-112.06,31.91c3.39,17.71,18.76,56.2,25.29,63.32.49-.48.93-1.02,1.48-1.41,3.19-2.23,3.71-5.43,3.36-8.96-.08-.81-.11-1.63-.28-2.42-1.16-5.45-1.76-11.02-3.82-16.26-.97-2.47-.79-5.02.25-7.49.27-.64.49-1.31.78-1.94.93-2.03.83-4.04.03-6.09-1.11-2.84-2.54-5.45-4.51-7.81-3.57-4.27-8.11-7.32-12.75-10.21-2.41-1.5-5.25-1.86-8.09-1.56-.62.07-1.19.55-1.74.82Zm57.7-244.94c.49-1.44.94-2.63,1.29-3.85,1.24-4.35,2.42-8.73,3.68-13.08,1.05-3.61,1.51-7.29,1.38-11.03-.08-2.31-.41-4.62-1.5-6.74-7.06,3.42-27.83,27.08-31.48,35.83,1.28.8,1.19,2.18,1.4,3.41.45,2.63,1.92,4.34,4.36,5.45,2.15.98,4.26.85,6.54.41.38-.74.72-1.46,1.12-2.17.8-1.42,1.5-2.91,2.45-4.21,2.04-2.78,4.69-4.47,8.35-4.04.67.08,1.37.01,2.4.01Zm-67.5,133.71c-.12.57-.23.9-.25,1.24-1.03,12.89-.91,25.79-.66,38.7.02,1.19.24,2.31.81,3.35,2.27,4.16,5.43,7.55,9.29,10.22,2.19,1.51,3.99,1.2,6.01-.62.6-.54,1.08-1.22,1.68-1.77,2.37-2.22,2.84-4.92,2.15-7.98-.85-3.77-2.21-7.34-4.05-10.73-1.46-2.67-2.55-5.47-3.1-8.48-.48-2.63-1.1-5.24-1.4-7.89-.64-5.62-3.01-10.43-6.39-14.86-1.06-1.39-2.26-1.91-4.09-1.18Zm75.27-190.65c-.24-.04-.41-.11-.46-.06-.58.57-1.18,1.11-1.69,1.74-4,4.89-8.43,9.34-13.4,13.25-1.74,1.37-3.41,2.82-5.14,4.2-13.29,10.61-20.54,24.73-23.85,41.12-.19.96-.49,1.99-.04,2.94.24,0,.42.05.46,0,.53-.76,1.06-1.53,1.55-2.32,5.3-8.53,11.21-16.61,17.85-24.14,5.41-6.13,11.23-11.83,17.61-16.96.8-.64,1.72-1.38,2.09-2.27,1.55-3.76,3.03-7.57,4.29-11.44.63-1.92,1.17-3.97.74-6.05Zm5.89,99.09c-3.58,2.7-6.63,5.63-8.66,9.53-2.54,4.87-4.29,10.07-5.87,15.27-1.36,4.48-1.41,9.16,1.57,13.39,2.45,3.48,3.68,7.48,4.37,11.66.21,1.26.56,2.49.87,3.73.44,1.73,1.65,2.81,3.24,3.39,1.05.38,2.21.47,3.58.75-.16-4.11-.37-7.93-.43-11.75-.06-3.84.04-7.67.04-11.51,0-3.84-.12-7.68-.03-11.51.09-3.83.31-7.67.58-11.49.26-3.78,1.05-7.51.75-11.45Zm46.33,238.4c-.02-2.03-.81-3.12-1.92-4.06-4.09-3.46-8.38-6.67-13.12-9.15-5.45-2.84-10.98-5.54-16.2-8.81-.13-.08-.39.03-.79.07.78,1.98,2.06,3.62,3.08,5.39,1.04,1.81,2.17,3.57,3.26,5.36,1.14,1.89,2.25,3.79,3.43,5.66,1.09,1.75,1.95,3.66,3.42,5.22,6.29-2.04,12.43-1.92,18.84.32Z"/>
      <path d="m496.95,324.91c-1.9-1.16-3.53-2.59-4.71-4.5-2.05-2.94-3.03-6.18-3.01-9.8,0-1.48-.39-3-.81-4.44-.85-2.92-1.27-5.89-1.54-8.91-.2-2.28-.59-4.54-.94-7.18,1.08.72,1.95,1.25,2.75,1.86,10.05,7.59,19.36,16.01,27.89,25.26,5.36,5.81,10.38,11.93,15.57,17.88,1.07,1.22,1.59,2.53,1.18,4.14,0,0,.09-.09.09-.09-.26.51-.52,1.02-.79,1.53l.09-.14c-.25.62-.51,1.24-.76,1.86-.11.09-.22.19-.33.28-.72,0-1.46-.03-1.83.78,0,0,.15-.1.15-.1-.75.26-1.5.52-2.25.78,0,0,.14-.06.14-.06-.98,0-1.96,0-2.94,0l.15.07c-1.32-.89-2.79-1.34-4.36-1.47l.14.1c-.4-1.01-1.31-1.26-2.22-1.52,0,0,.14.11.14.11-.74-.61-1.48-1.21-2.22-1.82-.83-.61-1.75-1.13-2.48-1.84-2.21-2.17-4.35-4.42-6.52-6.64-.34-1.1-1.08-1.67-2.24-1.69,0,0,.15.11.15.11-1.02-1.58-2.64-1.98-4.34-2.21,0,0,.15.1.15.1-.22-.83-.91-.76-1.54-.8,0,0,.15.1.15.1-.28-.72-.91-.77-1.55-.8l.15.11c-.51-.35-1.02-.71-1.54-1.06Z"/>
      <path class="cls-1" d="m542.03,505.92c-1.39.02-2.46-.7-3.4-1.58-1.02-.95-2.04-1.94-2.87-3.04-3.51-4.65-6.74-9.49-9.61-14.58-3.48-6.17-5.43-12.84-6.65-19.76-.45-2.53-1.01-5.02-1.98-7.4-.35-.86-.59-1.77-.87-2.65-.65-2.05-.83-4.1-.08-6.17.16-.44.24-.9.35-1.35.7-2.84.42-5.39-1.43-7.89-2.48-3.37-4.5-7.08-6.91-10.51-8.22-11.66-17.66-22.27-27.88-32.21-4.93-4.8-9.78-9.68-14.82-14.35-6.84-6.34-13.83-12.51-20.77-18.74-.34-.31-.74-.56-1.05-.79-2.29.09-4.49.26-6.69.26-11.97-.03-22.56-8.78-25.06-20.47-2.91-13.63,5.31-27.48,19.05-30.97,14.24-3.63,28.66,4.85,32.01,19.18,2.34,10.01-.5,18.64-7.96,25.73-.58.56-1.2,1.07-1.89,1.68.47,1.13,1.47,1.54,2.27,2.11,6.93,4.95,13.75,10.03,20.24,15.54,7.74,6.57,15.22,13.41,22.41,20.57.83.82,1.65,1.65,2.52,2.43.33.3.89.76,1.16.66,1.66-.65,2.61.56,3.71,1.3,1.5,1.02,3.08,1.64,4.92,1.37,2.76-.39,5.28.4,7.81,1.4,2.59,1.02,5.23,1.96,7.91,2.72,3.31.94,6.29,2.37,8.91,4.62,4.06,3.5,8.19,6.93,12.3,10.37,1.83,1.53,3.24,3.35,3.93,5.66,2.4,8.08,3.22,16.21.68,24.42-.55,1.77-1.25,3.49-1.93,5.36,1.4,2.09,2.82,4.21,4.25,6.33,5.42,8.03,10.15,16.46,14.33,25.19,2.02,4.21,3.63,8.58,4.53,13.18.16.8.37,1.6.39,2.41.07,2.6-1.12,4.09-3.69,4.74-1.01.25-2.03.47-3.2.74.07.55.02,1.01.18,1.39,5.12,12.19,8.35,24.93,11.19,37.79.91,4.11,1.42,8.26,1.78,12.44.1,1.15.14,2.35-.05,3.48-.38,2.25-2.38,2.97-4.17,1.55-.7-.55-1.33-1.2-1.95-1.78-.94.51-.78,1.29-.76,1.91.14,4.42.17,8.86.55,13.26.49,5.66.1,11.17-1.85,16.53-1.7,4.68-4.49,8.41-9.32,10.25-.31.12-.66.11-1.12.19-.21-.41-.51-.78-.61-1.2-.16-.68-.23-1.38-.26-2.08-.63-13.27-2.06-26.48-3.3-39.7-1.58-16.85-4.58-33.44-9.21-49.73-.79-2.79-1.72-5.53-2.49-8.01-1.44-.74-2.54-1.31-3.65-1.88.85,0,1.71,0,2.76,0-.21-.82-.33-1.49-.55-2.12-3.22-9.74-7.03-19.25-11.07-28.67-3.86-9.01-8.4-17.67-13.33-26.13-.32-.55-.47-1.41-1.53-1.15-.1.66-.09,1.39-.32,2.03-1.16,3.15-.74,6.18.49,9.19,1.24,3.04,1.84,6.24,2.43,9.45.97,5.29,2.47,10.41,4.89,15.24,3.09,6.17,6.92,11.87,11.05,17.38,1.2,1.6,2.61,2.97,4.4,3.93.36.19.59.64.89.97Zm-95.34-141.74c.68.63,1.16,1.12,1.68,1.57,3.61,3.13,7.33,6.14,10.82,9.4,7.67,7.16,15.25,14.4,22.81,21.67,10.69,10.29,20.57,21.28,29.02,33.5,2.25,3.25,4.43,6.58,6.4,10,4.12,7.16,8.31,14.31,12.04,21.67,3.37,6.63,6.35,13.48,9.2,20.36,5.26,12.7,9.93,25.61,13.38,38.93,3.51,13.55,5.97,27.29,7.37,41.21.62,6.14,1.36,12.27,1.76,18.43.48,7.32,1.68,14.59,1.6,21.95,0,.39.21.79.32,1.18.33-.1.46-.1.54-.16.26-.22.54-.44.76-.7,3.29-3.86,4.98-8.4,5.39-13.38.25-3.01.22-6.05.17-9.07-.08-5-.51-10.01.37-14.99.12-.69.2-1.39.43-2.04.55-1.57,1.84-2.1,3.33-1.39.8.38,1.54.88,2.6,1.51,0-1.28.13-2.19-.02-3.06-.62-3.67-1.18-7.36-2.03-10.98-2.93-12.47-6.13-24.86-11.01-36.75-.26-.64-.51-1.31-.67-1.98-.3-1.28.36-2.26,1.69-2.57,1.24-.29,2.52-.45,3.74-.82,1.87-.57,2.17-1.14,1.79-3.12-.89-4.59-2.34-9-4.39-13.21-5.27-10.81-11.46-21.07-18.52-30.8-3.22-4.43-6.47-8.83-9.71-13.25-6.33-8.66-13.1-16.99-20.43-24.81-11.48-12.24-23.34-24.12-36.07-35.1-9.63-8.3-19.52-16.25-30.13-23.27-1.4-.93-2.63-1.51-4.25.08Zm102.97,93.79c.68-1.77,1.14-2.81,1.49-3.89,2.7-8.31,1.94-16.54-.55-24.73-.59-1.95-1.78-3.52-3.33-4.83-4.47-3.75-8.94-7.48-13.39-11.24-1.81-1.53-3.83-2.7-6.11-3.28-3.85-.98-7.56-2.3-11.23-3.81-1.61-.67-3.32-1.18-5.11-.75-2.09.5-3.89-.18-5.65-1.22-.65-.38-1.1-1.24-2.33-.93,8.06,8.7,16.58,16.77,24.04,25.84,7.54,9.18,14.55,18.76,22.17,28.84Z"/>
      <path class="cls-1" d="m457.4,286.71c3.86.56,7.05,2.85,8.93,6.75,1.29,2.67-.59,5.4-3.55,5.12-3.94-.38-7.35-2.07-9.81-5.25-.98-1.27-1.83-2.8-.88-4.49.88-1.56,2.43-2.02,4.12-2.12.23-.01.46,0,1.19,0Z"/>
      <path class="cls-1" d="m384.66,361.56c.44.18,1.53.39,2.3,1,2.2,1.77,4.01,3.9,4.88,6.65.31.97.41,2.07.32,3.08-.19,2.16-2.02,3.2-4.05,2.38-.53-.22-1.03-.54-1.5-.88-2.52-1.86-4.11-4.39-5.12-7.31-.22-.64-.29-1.37-.28-2.06.03-1.75,1.12-2.81,3.44-2.87Z"/>
      <path class="cls-1" d="m467.7,304.2c-.36.25-.7.7-1.03.69-1.38-.02-2.83.07-4.13-.32-7.41-2.23-13.21-6.72-17.64-13.01-.46-.66-.8-1.41-1.16-2.14-.19-.38-.29-.8-.06-1.41.36.38.72.77,1.09,1.13,2.75,2.68,5.44,5.42,8.27,8.01,3.33,3.06,7.26,4.99,11.76,5.72,1,.16,2.11.15,2.9,1.32Z"/>
      <path class="cls-1" d="m543.83,634.29c.1-.2.16-.45.32-.6,4.11-3.82,5.71-8.65,5.66-14.13-.03-3.5-.31-6.98-1.15-10.38-.62-2.49-1.4-5.05-3.5-6.69-2.78-2.17-3.92-5.11-4.56-8.37-.29-1.47-.46-2.96-.23-5.2.46.93.69,1.22.75,1.54.23,1.26.42,2.52.62,3.79.45,2.84,1.51,5.32,3.86,7.17,2.11,1.66,3.15,4.06,3.79,6.54,1.14,4.41,1.74,8.9,1.43,13.47-.26,3.8-1.46,7.28-3.7,10.37-.81,1.12-1.62,2.29-3.07,2.71l-.23-.23Z"/>
      <path class="cls-1" d="m387.27,358.39c5.02,1.21,9.63,5.65,11.22,10.03.74,2.03.75,4.1.32,6.16-.13.59-.61,1.11-.9,1.62-1.03-.26-.88-.93-.84-1.44.36-4.41-1.54-7.85-4.52-10.87-1.78-1.81-3.52-3.66-5.27-5.49Z"/>
      <path class="cls-1" d="m564.68,656.83c-1.87-1.08-2.38-2.14-2.61-3.41-1.02-5.5-.48-10.88,1.34-16.13,1.2-3.46,3.95-5.74,6.82-7.72,3.36-2.31,7-4.08,11.19-4.49,1.34-.13,2.65-.65,3.98-.99.39.67-.19.94-.47,1.04-.97.37-1.97.73-2.99.87-4.74.65-8.79,2.75-12.58,5.56-4.13,3.07-6.03,7.24-6.49,12.21-.15,1.62-.26,3.25-.27,4.87-.02,2.64-.02,5.3,2.1,8.18Z"/>
      <path class="cls-1" d="m484.93,447.77c-.69-.77-1.43-1.51-2.07-2.32-2.84-3.6-6.18-6.65-10.04-9.13-4.93-3.16-10.3-4.82-16.17-4.81-1.05,0-2.1.02-3.15.03-2.8.02-2.82.01-5.2-2.2.58-.68,1.04-.04,1.42.21,1.33.88,2.72,1.02,4.31.93,6.3-.37,12.29.89,17.79,4.08,5.12,2.96,9.4,6.87,12.8,11.71.26.37.4.82.59,1.24-.1.09-.2.18-.3.27Z"/>
      <path class="cls-1" d="m376.48,280.09c-1.35,3.87-6.08,8.43-11.13,10.6.13-.42.13-.76.3-.94,3.03-3.19,6.07-6.37,9.13-9.53.49-.51,1.07-.98,1.71-.13Z"/>
      <path class="cls-1" d="m368.09,310.26c-.26-1-.51-1.44-.45-1.82.43-2.53,1.46-4.83,2.85-6.97.2-.31.8-.59,1.11-.51.31.08.68.65.68,1-.01.67-.18,1.37-.44,1.99-.66,1.59-1.35,3.17-2.13,4.7-.24.47-.78.78-1.63,1.6Z"/>
      <path class="cls-1" d="m501.61,480.86c.75-7.5-.64-14.49-4.99-20.76-.33-.47-.63-.96-.93-1.46-.03-.05.07-.18.12-.3.57-.27.81.25,1.01.55,1.02,1.54,2.17,3.04,2.91,4.71,2.2,4.94,3.04,10.16,2.82,15.56-.03.73-.16,1.39-1,1.62.01.02.06.08.06.08Z"/>
      <path class="cls-1" d="m389.39,280.52c.86-.54,1.19-.92,1.55-.94,2.42-.13,4.85-.51,7.24.2.24.07.38.48.52.68-.27.84-.92.81-1.46.81-2.4.01-4.84.61-7.85-.75Z"/>
      <path class="cls-1" d="m485.23,447.5c2.48,2.42,4.95,4.83,7.43,7.26.05.05.03.19.06.46-.34-.08-.71-.05-.89-.22-2.45-2.26-5.31-4.14-6.9-7.23.1-.09.2-.18.3-.27Z"/>
      <path class="cls-1" d="m501.12,327.28c1.71.23,3.32.63,4.34,2.21-1.51-.62-3.16-.96-4.34-2.21Z"/>
      <path class="cls-1" d="m544.05,634.52c-.69,1.19-1.85,1.45-3.68,1.8,1.33-1.2,2.29-1.78,3.46-2.04l.23.23Z"/>
      <path class="cls-1" d="m520.71,342.67c1.57.14,3.04.59,4.36,1.47-1.64.05-3.12-.35-4.36-1.47Z"/>
      <path class="cls-1" d="m501.39,484.08c.08-1.06.16-2.12.23-3.2-.01-.02-.06-.08-.07-.1.41,1.1.49,2.19-.26,3.21,0,0,.1.09.1.09Z"/>
      <path class="cls-1" d="m531.42,633.1c-.24-.75.03-1.23,1.24-1.65-.62.74-.97,1.16-1.32,1.57,0,0,.08.07.08.07Z"/>
      <path class="cls-1" d="m518.64,341.25c.91.26,1.83.51,2.22,1.52-.99-.14-1.82-.51-2.22-1.52Z"/>
      <path class="cls-1" d="m516.56,339.55c.74.61,1.48,1.21,2.22,1.82-1.17-.09-1.92-.68-2.22-1.82Z"/>
      <path class="cls-1" d="m524.92,344.08c.98,0,1.96,0,2.94,0-.98.91-1.96.75-2.94,0Z"/>
      <path class="cls-1" d="m505.32,329.38c1.16.02,1.9.59,2.24,1.69-.75-.56-1.49-1.13-2.24-1.69Z"/>
      <path class="cls-1" d="m527.72,344.14c.75-.26,1.5-.52,2.25-.78-.47,1.07-1.46.64-2.25.78Z"/>
      <path class="cls-1" d="m494.91,456.55c-.08.43-.08.58-.12.6-.17.05-.37.12-.52.07-.19-.08-.37-.24-.48-.42-.09-.14-.08-.36-.12-.54.18-.03.39-.12.54-.06.31.11.59.3.7.36Z"/>
      <path class="cls-1" d="m460.29,470.52v-1.17s.05,0,.07,0c-.02.39-.04.78-.05,1.17,0,0-.02-.01-.02-.01Z"/>
      <path class="cls-1" d="m603.45,371.32c-.27-.07-.53-.13-.8-.2.06-.09.12-.18.17-.27.19.18.37.37.56.55,0,0,.06-.08.06-.08Z"/>
      <path class="cls-1" d="m500.1,484.98c.43-.3.85-.6,1.28-.9,0,0-.1-.09-.1-.09-.15.57-.49.91-1.09.95l-.09.04Z"/>
      <path class="cls-1" d="m500.2,484.94c-.02.17-.04.35-.07.52.56-.17.27-.32-.02-.48,0,0,.08-.04.08-.04Z"/>
      <path class="cls-1" d="m499.73,326.57c.63.05,1.32-.02,1.54.8-.63-.04-1.34.06-1.54-.8Z"/>
      <path class="cls-1" d="m532.65,340.67c.26-.51.52-1.02.79-1.53-.16.56.08,1.33-.79,1.53Z"/>
      <path class="cls-1" d="m498.33,325.87c.64.04,1.27.09,1.55.8-.64-.03-1.37.11-1.55-.8Z"/>
      <path class="cls-1" d="m531.98,342.4c.25-.62.51-1.24.76-1.86-.25.62-.51,1.24-.76,1.86Z"/>
      <path class="cls-1" d="m529.82,343.46c.37-.81,1.11-.78,1.83-.78-.61.26-1.22.52-1.83.78Z"/>
      <path class="cls-1" d="m496.95,324.91c.51.35,1.02.71,1.54,1.06-.82.09-1.37-.21-1.54-1.06Z"/>
      <path class="cls-1" d="m395.78,33.75c.07.34.31.76.19.99-.2.39-.61.69-.97.97-5.1,3.89-10.22,7.75-15.3,11.66-10.65,8.19-22.66,13.79-35.2,18.35-8.54,3.1-17.34,5.39-26.12,7.71-.11.03-.23.03-.34.07-3.92,1.49-7.86,1.43-12.01.94-8.41-.99-16.75-.13-24.92,2.2-4.49,1.28-8.93,2.66-12.98,5.05-.9.53-1.8,1.09-2.57,1.79-.32.29-.27.98-.42,1.61,2.09.56,3.89.3,5.7-.23,6.6-1.92,13.3-3.42,20.05-4.72,3.5-.67,6.96-.51,10.44-.19,9.8.9,19.23,3.48,28.61,6.32,9.04,2.73,18.21,4.96,27.52,6.5,9.58,1.59,19.23,2.08,28.94,1.23,4.53-.4,9.08-.57,13.61-.97,6.38-.57,12.76-1.21,19.13-1.89,4.4-.47,8.79-1.06,13.19-1.58.45-.05.92,0,1.36,0,.43,1.04-.48,1.24-.94,1.58-4.78,3.59-9.97,6.47-15.5,8.7-7.16,2.88-14.54,4.9-22.21,5.95-7.54,1.03-15.06,1.35-22.67.76-8.38-.64-16.7-1.66-25.01-2.78-5.77-.78-11.56-1.5-17.32-2.32-7.15-1.01-14.29-2.11-21.45-3.11-7.62-1.07-15.22-2.31-22.93-2.46-8.89-.17-17.32,1.77-25.45,5.31-7.98,3.48-15.24,8.03-21.82,13.72-.7.61-1.37,1.33-2.19,1.73-1.7.83-2.54,2.2-3.24,3.88-2.01,4.84-4.14,9.63-6.26,14.42-6.19,13.99-10.88,28.49-14.86,43.23-1.33,4.94-2.27,9.99-3.41,15.07-5.34.8-8.77,4.49-11.69,8.56-2.02,2.81-3.51,6.03-4.97,9.2-1.21,2.64-2.24,5.4-2.96,8.21-1.55,6.01-1.95,11.99,1.75,17.51,2.12,3.16,3.25,6.68,3.95,10.38.22,1.14.53,2.27.75,3.41.82,4.13,3.56,6.38,7.37,7.6.89.28,1.81.44,2.69.74.54.18,1.02.53,1.59.84.97,7.04,1.27,14.15,2.99,20.93-1.21,1.52-2.37,2.84-3.37,4.25-4.35,6.13-6.67,13.02-7.58,20.42-.3,2.47-.01,4.88.93,7.2.7,1.73,1.43,3.44,2.04,5.2.76,2.2,1.49,4.41,2.09,6.66.84,3.12.79,6.22-.48,9.25-.23.54-.37,1.11-.61,1.64-1.99,4.45-1.94,9.01-1.01,13.7,1.13,5.71,3.32,10.9,6.94,15.47,1.52,1.92,2.95,3.91,4.52,5.79,2.64,3.16,5.92,5.17,10.12,5.6,1.73.18,3.44.61,5.12,1.09,4.43,1.29,8.75,1.14,12.97-.75,3.33-1.49,6.86-2.08,10.47-2.5.36.42.69.75.95,1.12,5.05,7.45,10.99,14.19,16.95,20.9,2.42,2.72,4.5,5.63,6.25,8.81,5.67,10.31,11.42,20.58,16.13,31.38,2.7,6.2,5,12.53,6.68,19.1,2.14,8.36,2.5,16.83,1.81,25.34-.92,11.16-4.13,21.7-9.36,31.61-.7,1.33-1.28,2.72-2.73,3.52-.9.5-1.07,1.56-.9,2.49.43,2.44-.82,3.95-2.61,5.28-4.99,3.72-10.4,6.63-16.32,8.59-1.59.53-3.18.69-4.82.53-1.3-.13-2.55-.47-3.38-1.57-.97-1.29-2.32-1.36-3.75-1.4-3.14-.08-6.29-.22-9.43-.4-11.25-.64-21.69-4.11-31.62-9.24-8.66-4.47-16.44-10.19-23.57-16.8-10.93-10.13-20.21-21.61-28.03-34.28-.3-.49-.54-1.02-.85-1.61,1.34-1.03,2.63-2,3.89-2.99,2.46-1.93,3.73-4.45,3.64-7.58-.06-2.09-.11-4.2-.41-6.27-.42-2.88-1-5.74-1.63-8.58-.58-2.61-1.14-5.24-2.04-7.75-.92-2.57-1-4.94.15-7.43.53-1.15.81-2.43,1.02-3.69.37-2.24-.08-4.41-.88-6.51-2.21-5.82-5.91-10.55-10.79-14.35-2.11-1.64-4.38-3.1-6.62-4.56-4.32-2.81-8.93-3.06-13.71-1.37-.2.07-.43.05-.84.08-1.21-2.35-1.5-5.04-2.08-7.61-3.49-15.45-5.86-31.08-7-46.94,1.42,0,1.87,1.14,2.7,1.7,1.54,1.04,2.95,2.29,4.57,3.18,3.71,2.03,7.25,1.39,10.36-1.29,1.58-1.36,3.1-2.91,4.22-4.64,1.62-2.51,2.09-5.42,1.45-8.39-.86-4.01-2.08-7.95-4.2-11.44-3.12-5.13-4.39-10.77-5.15-16.55-.79-6.05-2.94-11.45-6.65-16.29-1.52-1.98-3.22-3.34-5.85-3.13-.21.02-.43-.11-.87-.23-.04-.59-.18-1.26-.12-1.91.52-5.1.97-10.21,1.66-15.29,1.88-13.86,4.58-27.57,8.22-41.08,5.91-21.91,14-42.95,25.43-62.62.81-1.39,1.67-2.76,2.71-4.46.31.58.52.81.55,1.05.51,5.36,4.14,7.78,8.76,9.22.98.3,2.05.34,3.33.53-.06.52-.05,1.08-.21,1.59-.82,2.55-1.77,5.06-2.5,7.64-.72,2.57-1.22,5.21-1.87,8.05-.64-.44-1.17-.83-1.73-1.17-2.48-1.52-4.83-1.03-6.24,1.48-.73,1.3-1.3,2.76-1.59,4.22-1.02,5.14-1.91,10.3-2.8,15.46-.95,5.44-.73,10.9-.21,16.38.51,5.46,1.15,10.89,2.3,16.25.14.66.17,1.35.29,2.35-1.07-.35-1.79-.58-2.52-.82-4.03-1.39-7.41-.34-9.74,3.2-.82,1.25-1.43,2.67-1.97,4.07-2.25,5.88-2.61,12.03-2.43,18.24.15,5.14,1.03,10.18,2.02,15.22,3.26,16.66,8.89,32.58,15.47,48.15,4.08,9.65,8.69,19.08,13.2,28.54,2.36,4.94,4.99,9.75,7.54,14.59,7.99,15.23,17.83,29.24,28.32,42.81,4.99,6.46,10.03,12.88,15.04,19.32.5.64.94,1.32,1.53,2.14-.82.73-1.59,1.41-2.35,2.09-6.2,5.51-9.28,12.37-9.17,20.7.13,10.06,6.93,20.87,18.75,24.35,17.64,5.21,35.13-8.66,33.68-27.31-.58-7.43-3.91-13.61-9.8-18.26-1.56-1.23-2.57-2.51-2.77-4.55-.28-2.92-1.75-5.21-4.08-7.04-5.04-3.96-10.04-7.95-15.7-11.05-4.49-2.46-8.81-5.24-13.11-8.03-3.43-2.22-3.36-2.32-7.06-1.96-.19-.24-.44-.49-.62-.78-13.78-21.85-24-45.23-30.31-70.3-2.11-8.38-3.57-16.87-4.59-25.43-1-8.44-1.96-16.9-2.54-25.38-.49-7.09-.54-14.21-.55-21.32,0-7.34.21-14.68.96-22,.66-6.5,1.81-12.92,3.13-19.31,3.04-14.73,7.11-29.18,11.42-43.58,1.43-4.8,2.69-9.65,4.08-14.45.42-1.44.33-2.69-.64-3.9-.49-.62-.74-1.45-1.18-2.35,2.31-4.01,2.43-8.8,4.08-13.15.66-1.74,1.05-3.58,1.72-5.31,1.58-4.11,2.04-8.36,1.84-12.71-.14-3.21-1.17-6.14-3.3-8.81.62-.57,1.17-1.17,1.8-1.63,4.35-3.15,8.81-6.18,13.72-8.35,3.81-1.69,6.42-4.45,8.74-7.73,5.32-7.53,11.04-14.75,17.68-21.19,9.51-9.21,19.84-17.38,31.55-23.6,12.09-6.41,24.88-11.12,38.36-13.72,9.52-1.83,19.17-2.65,28.86-2.76,5.14-.06,10.25.51,15.32,1.34,4.77.78,9.55.9,14.3.34,7.77-.91,15.37-2.67,22.67-5.58.63-.25,1.19-.69,1.78-1.03,0,0-.03-.04-.03-.04Zm-207.09,443.92c-3.53-.08-4.98,1.4-4.67,4.28.1.9.38,1.83.78,2.64,2,4.04,4.99,7.25,8.64,9.85.56.4,1.21.7,1.85.94,1.44.55,2.77.18,3.73-1.02.75-.93,1.12-2,1.17-3.21.08-1.93-.52-3.68-1.44-5.31-1.88-3.34-4.6-5.82-8.01-7.53-.81-.41-1.74-.55-2.06-.64Zm102.52-36.01c-.07-4.49-2.14-7.75-5.29-10.42-.6-.51-1.39-.89-2.15-1.09-2.67-.71-4.65.79-4.77,3.53-.02.35.02.7.06,1.04.41,3.65,1.57,7.04,3.59,10.11.44.67,1,1.3,1.6,1.84,1.27,1.15,2.73,1.26,4.18.36,2.06-1.29,3.1-3.1,2.79-5.38Zm-105.81,29.49c.51.72.72,1.26,1.11,1.55,1.67,1.26,3.3,2.62,5.12,3.62,6.68,3.67,10.5,9.34,12.12,16.66.38,1.7.83,3.39,1.29,5.07.11.41.27.92.92.76.15-.16.42-.31.43-.47.38-6.15-.43-12.07-3.54-17.51-1.36-2.37-3.18-4.28-5.72-5.46-2.01-.93-3.95-2-5.97-2.87-1.68-.72-3.42-1.36-5.75-1.35Zm93.2-44.86c-1.53-.24-2.22.43-2.81,1.13-2.25,2.69-3.53,5.81-3.06,9.32.79,5.95,3.75,10.65,8.82,13.96.41.27.83.39,1.24-.26-.19-.45-.37-1-.65-1.49-.88-1.5-1.79-2.99-2.72-4.46-2.43-3.84-3.15-7.93-1.87-12.33.32-1.11.64-2.23.86-3.37.15-.77.12-1.57.18-2.51Zm0,93.26c-5.03-.13-9.44,1.58-13.09,5.09-.08.08-.16.16-.24.25-.37.45-.81.95-.4,1.54.49.71,1.23.56,1.86.23.92-.48,1.79-1.06,2.68-1.6,2.37-1.45,4.73-2.91,7.1-4.35.68-.41,1.39-.77,2.09-1.15Zm-1.95-13.06c.21.94.72,1.29,1.49.77,2.22-1.51,3.74-3.69,5.27-5.84.06-.09.14-.22.12-.32-.09-.43-.08-.99-.35-1.23-.23-.2-.88-.18-1.2,0-.48.27-.88.73-1.23,1.18-1.39,1.81-2.75,3.64-4.1,5.43Zm-30.57,11.07c-.31.26-.81.48-.91.82-.09.33.14,1.04.39,1.12,2.16.76,4.35,1.45,6.56,2.07.28.08.91-.34,1.02-.66.1-.3-.16-.91-.46-1.11-1.93-1.37-4.26-1.6-6.61-2.24Z"/>
      <path class="cls-1" d="m290.55,286.32c5.73-5.21,11.89-9.27,19.34-11.33.95,3.38,1.26,6.72,1.08,10.11-.53,10.39-2.19,20.61-5.08,30.6-5.46,18.86-14.93,35.3-29.66,48.54-4.73,4.25-9.88,7.77-16.25,9.66-.47-.51-1.06-1.05-1.52-1.68-5.93-8.24-11.11-16.95-16.12-25.76-6.17-10.83-11.69-22-16.68-33.42-.74-1.71-1.39-3.46-2.06-5.19-.12-.31-.14-.67-.2-.97,5.4-6.66,12.49-10.23,23.19-8.78.12.71.38,1.48.35,2.24-.25,5.58-.43,11.17-.89,16.74-.65,7.91-2.15,15.68-4.37,23.3-.16.54-.15,1.12-.3,2.36.74-.89,1.15-1.22,1.36-1.64,3.93-8,6.54-16.43,7.78-25.25.45-3.22.75-6.48.87-9.74.13-3.59-.03-7.2-.07-11.04,4.06-3.11,8.68-5.76,13.81-7.45,4.31-1.42,8.74-1.33,13.14-.61,2.27.38,4.48,1.1,6.82,1.69-3.87,22.14-13.92,41.13-27.47,58.5.91.53,1.28-.09,1.67-.41,4.33-3.58,8.23-7.59,11.53-12.14,7.09-9.77,12.67-20.35,16.52-31.8,1.73-5.15,2.95-11.72,3.19-16.54Z"/>
      <path class="cls-1" d="m47.82,309.34c2.01.7,3.4,1.95,4.79,3.11,4.94,4.13,9.17,8.94,13.16,13.97.47.59.76,1.47.79,2.23.33,8.85,3.28,16.86,7.73,24.39,4.08,6.92,8.09,13.9,13.08,20.24.78.99,1.61,1.94,2.93,3.52-.16-1.32-.09-1.88-.3-2.31-1.89-4-3.74-8.02-5.77-11.95-3.42-6.62-6.93-13.2-9.7-20.13-1.65-4.12-2.84-8.37-3.74-12.71-.09-.43-.01-.89-.01-1.4,1.3-.64,2.59-.5,3.79-.08,3.74,1.31,7.43,2.74,10.89,4.69,1.75.98,2.78,2.15,2.73,4.41-.04,1.8.54,3.69,1.17,5.42,1.53,4.15,3.11,8.29,4.94,12.31,2.56,5.61,5.36,11.11,8.1,16.65.39.8.96,1.51,1.65,2.18-.45-4.31-1.91-8.34-3.13-12.41-1.27-4.23-2.7-8.42-4.07-12.63-1.33-4.08-2.72-8.14-3.78-12.27.96-1.1,2.03-.87,3.01-.63,2.95.73,5.78,1.79,8.45,3.25,3.49,1.91,6.69,4.24,9.72,6.8,2.22,1.87,4.44,3.75,6.87,5.81,2.2,19.59,5.62,39.17,11.28,58.39-.44.17-.77.43-1.03.37-6.14-1.34-12.27-2.68-18.4-4.09-4.47-1.03-8.59-2.9-12.44-5.39-6.36-4.13-12.44-8.64-18.25-13.51-11.26-9.45-18.96-21.37-24.16-34.99-3.58-9.39-5.8-19.15-7.72-28.98-.82-4.23-1.58-8.47-2.36-12.7-.08-.44-.14-.88-.24-1.54Z"/>
      <path class="cls-1" d="m195.4,163.18c-1.21,3.6-2.29,7.03-3.5,10.42-3.66,10.2-6.35,20.69-9.06,31.16-2.16,8.33-3.96,16.76-5.86,25.15-1.52,6.72-2.11,13.57-2.55,20.43-.76,11.87-.71,23.75.02,35.62.61,10,1.8,19.94,3.11,29.87,2.63,19.99,8.36,39.11,15.7,57.8.94,2.38,2.03,4.7,3.03,7.06.16.39.22.82-.06,1.39-.61-.95-1.26-1.87-1.81-2.85-1.65-2.95-3.31-5.89-4.87-8.88-7.01-13.41-13.75-26.97-19.63-40.92-4.52-10.72-8.78-21.57-11.98-32.77-2.49-8.73-4.71-17.55-5.77-26.59-.75-6.37-.83-12.79,1.21-19.03.33-.99.67-1.99,1.14-2.92,1.01-1.99,2.3-2.48,4.3-1.64.85.36,1.64.88,2.45,1.33.81.46,1.58,1,2.43,1.38,2.3,1.03,4.63-.14,4.94-2.66.21-1.71.08-3.5-.19-5.2-.65-4.14-1.57-8.23-2.18-12.37-.71-4.84-1.36-9.71-1.21-14.61.12-3.72.5-7.43.91-11.13.33-3.01.89-5.99,1.33-8.98.15-1.02.35-2.01,1.13-2.97,1.36,1.06,2.04,2.63,3.2,3.71,1.25,1.16.55,2.92,1.4,4.26,1.32-.58,1.64-1.77,2.01-2.8,1.23-3.38,2.47-6.77,3.46-10.23,1.91-6.72,3.82-13.44,6.37-19.94.72-1.83,1.69-3.57,2.69-5.27.6-1.02,1.59-1.67,2.9-1.66.98,0,1.87.23,2.53.97.85.94,1.64,1.93,2.42,2.86Z"/>
      <path class="cls-1" d="m248.08,367.59c-.8.35-1.4.66-2.03.87-2.31.79-4.69,1.4-6.92,2.35-2.91,1.24-5.75,1.62-8.83.71-1.99-.59-4.1-.85-6.17-1.12-2.56-.33-4.71-1.38-6.27-3.42-2.48-3.23-5.03-6.43-7.26-9.83-2.68-4.09-3.6-8.82-3.95-13.61-.11-1.57.42-3.21.82-4.78.34-1.35.88-2.65,1.4-3.95,1.33-3.36,1.4-6.8.73-10.3-.75-3.91-2.02-7.67-3.73-11.24-1.76-3.66-1.83-7.33-1.09-11.23.89-4.74,2.49-9.2,4.68-13.47.35-.69.86-1.3,1.56-2.34.36,1.17.64,1.88.8,2.61,3.46,16.32,10.01,31.46,17.58,46.22,5.1,9.96,10.65,19.66,16.65,29.11.68,1.07,1.3,2.18,2.04,3.43Z"/>
      <path class="cls-1" d="m136.03,399.5c.55-.27,1.12-.76,1.74-.82,2.84-.3,5.68.06,8.09,1.56,4.64,2.89,9.18,5.94,12.75,10.21,1.97,2.36,3.41,4.97,4.51,7.81.8,2.05.9,4.06-.03,6.09-.29.63-.51,1.3-.78,1.94-1.04,2.47-1.22,5.02-.25,7.49,2.06,5.25,2.66,10.82,3.82,16.26.17.79.2,1.61.28,2.42.35,3.54-.17,6.74-3.36,8.96-.55.39-.99.93-1.48,1.41-6.53-7.13-21.9-45.61-25.29-63.32Z"/>
      <path class="cls-1" d="m193.73,154.56c-1.03,0-1.73.07-2.4-.01-3.65-.43-6.31,1.25-8.35,4.04-.96,1.3-1.66,2.79-2.45,4.21-.39.7-.74,1.43-1.12,2.17-2.28.44-4.38.57-6.54-.41-2.44-1.11-3.91-2.82-4.36-5.45-.21-1.23-.12-2.61-1.4-3.41,3.65-8.74,24.42-32.41,31.48-35.83,1.09,2.12,1.42,4.43,1.5,6.74.13,3.74-.34,7.42-1.38,11.03-1.26,4.35-2.44,8.72-3.68,13.08-.35,1.22-.81,2.41-1.29,3.85Z"/>
      <path class="cls-1" d="m126.23,288.27c1.83-.73,3.03-.22,4.09,1.18,3.37,4.43,5.75,9.24,6.39,14.86.3,2.65.92,5.26,1.4,7.89.55,3,1.64,5.8,3.1,8.48,1.84,3.39,3.2,6.96,4.05,10.73.69,3.05.23,5.76-2.15,7.98-.59.56-1.08,1.23-1.68,1.77-2.02,1.83-3.82,2.14-6.01.62-3.87-2.68-7.03-6.06-9.29-10.22-.57-1.04-.78-2.16-.81-3.35-.26-12.91-.38-25.82.66-38.7.03-.34.13-.67.25-1.24Z"/>
      <path class="cls-1" d="m201.49,97.62c.43,2.08-.11,4.13-.74,6.05-1.26,3.87-2.74,7.67-4.29,11.44-.37.9-1.29,1.63-2.09,2.27-6.37,5.13-12.2,10.83-17.61,16.96-6.64,7.54-12.55,15.61-17.85,24.14-.49.79-1.02,1.55-1.55,2.32-.04.05-.22,0-.46,0-.45-.95-.15-1.98.04-2.94,3.31-16.39,10.55-30.51,23.85-41.12,1.73-1.38,3.4-2.84,5.14-4.2,4.97-3.91,9.41-8.35,13.4-13.25.51-.62,1.11-1.17,1.69-1.74.05-.05.22.03.46.06Z"/>
      <path class="cls-1" d="m207.38,196.71c.3,3.94-.49,7.68-.75,11.45-.27,3.83-.49,7.66-.58,11.49-.09,3.83.03,7.67.03,11.51,0,3.84-.1,7.68-.04,11.51.06,3.82.27,7.64.43,11.75-1.37-.27-2.53-.37-3.58-.75-1.59-.58-2.8-1.66-3.24-3.39-.31-1.24-.67-2.47-.87-3.73-.69-4.18-1.92-8.18-4.37-11.66-2.97-4.23-2.93-8.91-1.57-13.39,1.58-5.2,3.34-10.4,5.87-15.27,2.03-3.9,5.08-6.83,8.66-9.53Z"/>
      <path class="cls-1" d="m218,171.68c.76-2.31,1.62-4.6,2.27-6.94,2.47-8.88,5.68-17.49,9.19-26,1.46-3.54,2.99-7.05,4.55-10.71.94.15,1.73.22,2.5.4,5.05,1.21,9.7.27,14.07-2.44,1.16-.72,2.22-1.65,3.69-1.84-.87,2.87-2.52,5.99-4.77,8.72-1.78,2.16-3.56,4.33-5.54,6.3-8.98,8.94-16.19,19.25-23.18,29.74-.58.87-1.13,1.77-1.77,2.6-.14.18-.61.09-.92.13l-.09.05Z"/>
      <path class="cls-1" d="m253.71,435.11c-6.4-2.24-12.55-2.35-18.84-.32-1.46-1.56-2.32-3.48-3.42-5.22-1.17-1.87-2.28-3.78-3.43-5.66-1.08-1.79-2.22-3.55-3.26-5.36-1.02-1.77-2.31-3.41-3.08-5.39.39-.04.65-.16.79-.07,5.22,3.27,10.75,5.96,16.2,8.81,4.74,2.47,9.03,5.69,13.12,9.15,1.11.94,1.9,2.03,1.92,4.06Z"/>
      <path class="cls-1" d="m218.1,171.63c0,.16-.02.32-.03.48-.02-.15-.03-.29-.06-.44,0,0,.09-.05.09-.05Z"/>
      <path class="cls-1" d="m395.81,33.79c.19.02.39.04.58.06.1.01.19.02.29.03-.13.09-.3.29-.39.26-.18-.06-.33-.24-.5-.39-.01-.02.02.03.02.03Z"/>
      <path d="m446.69,364.18c1.62-1.6,2.85-1.01,4.25-.08,10.61,7.03,20.51,14.97,30.13,23.27,12.73,10.97,24.58,22.86,36.07,35.1,7.34,7.82,14.1,16.15,20.43,24.81,3.23,4.42,6.49,8.82,9.71,13.25,7.06,9.73,13.25,19.99,18.52,30.8,2.05,4.21,3.5,8.62,4.39,13.21.38,1.98.09,2.55-1.79,3.12-1.22.37-2.5.54-3.74.82-1.33.31-1.99,1.29-1.69,2.57.16.68.4,1.34.67,1.98,4.88,11.89,8.08,24.28,11.01,36.75.85,3.62,1.41,7.31,2.03,10.98.15.87.02,1.78.02,3.06-1.07-.63-1.81-1.13-2.6-1.51-1.49-.72-2.78-.18-3.33,1.39-.23.65-.31,1.36-.43,2.04-.88,4.98-.45,9.99-.37,14.99.05,3.02.08,6.06-.17,9.07-.41,4.98-2.1,9.53-5.39,13.38-.22.26-.49.48-.76.7-.08.06-.2.07-.54.16-.11-.39-.32-.79-.32-1.18.08-7.36-1.12-14.63-1.6-21.95-.41-6.16-1.14-12.29-1.76-18.43-1.4-13.92-3.86-27.66-7.37-41.21-3.45-13.32-8.12-26.24-13.38-38.93-2.85-6.88-5.83-13.73-9.2-20.36-3.74-7.36-7.92-14.51-12.04-21.67-1.97-3.43-4.15-6.75-6.4-10-8.45-12.22-18.33-23.22-29.02-33.5-7.56-7.27-15.14-14.52-22.81-21.67-3.49-3.26-7.21-6.27-10.82-9.4-.52-.45-1.01-.94-1.68-1.57Z"/>
      <path d="m549.66,457.97c-7.62-10.08-14.62-19.66-22.17-28.84-7.46-9.07-15.98-17.14-24.04-25.84,1.22-.31,1.68.54,2.33.93,1.76,1.03,3.56,1.72,5.65,1.22,1.79-.43,3.5.09,5.11.75,3.66,1.52,7.38,2.83,11.23,3.81,2.28.58,4.3,1.75,6.11,3.28,4.45,3.76,8.93,7.5,13.39,11.24,1.55,1.3,2.74,2.88,3.33,4.83,2.49,8.19,3.25,16.43.55,24.73-.35,1.08-.81,2.12-1.49,3.89Z"/>
      <path d="m542.03,505.92c-.29-.33-.52-.77-.89-.97-1.79-.96-3.2-2.32-4.4-3.93-4.12-5.51-7.96-11.21-11.05-17.38-2.41-4.83-3.91-9.96-4.89-15.24-.59-3.21-1.19-6.41-2.43-9.45-1.23-3.01-1.65-6.04-.49-9.19.24-.64.22-1.37.32-2.03,1.06-.26,1.21.61,1.53,1.15,4.93,8.46,9.48,17.12,13.33,26.13,4.04,9.42,7.85,18.93,11.07,28.67.21.64.34,1.3.55,2.12-1.05,0-1.91,0-2.76,0,0,0,.1.11.1.11Z"/>
      <path d="m188.69,477.68c.31.09,1.25.23,2.06.64,3.4,1.71,6.13,4.2,8.01,7.53.92,1.64,1.52,3.38,1.44,5.31-.05,1.21-.42,2.28-1.17,3.21-.96,1.2-2.28,1.57-3.73,1.02-.65-.24-1.29-.55-1.85-.94-3.65-2.6-6.64-5.81-8.64-9.85-.4-.81-.68-1.74-.78-2.64-.31-2.88,1.14-4.36,4.67-4.28Z"/>
      <path d="m291.21,441.67c.32,2.27-.72,4.09-2.79,5.38-1.45.9-2.91.79-4.18-.36-.6-.54-1.16-1.16-1.6-1.84-2.01-3.07-3.18-6.46-3.59-10.11-.04-.35-.08-.7-.06-1.04.12-2.74,2.1-4.24,4.77-3.53.76.2,1.55.58,2.15,1.09,3.15,2.67,5.22,5.93,5.29,10.42Z"/>
      <path d="m185.39,471.16c2.32,0,4.07.63,5.75,1.35,2.03.87,3.97,1.94,5.97,2.87,2.54,1.17,4.36,3.09,5.72,5.46,3.11,5.44,3.92,11.36,3.54,17.51-.01.17-.28.31-.43.47-.64.15-.8-.35-.92-.76-.46-1.68-.91-3.37-1.29-5.07-1.62-7.32-5.44-12.99-12.12-16.66-1.82-1-3.45-2.37-5.12-3.62-.39-.29-.6-.83-1.11-1.55Z"/>
      <path d="m278.59,426.29c-.06.95-.03,1.75-.18,2.51-.22,1.14-.54,2.26-.86,3.37-1.28,4.4-.57,8.49,1.87,12.33.93,1.47,1.84,2.96,2.72,4.46.29.49.46,1.04.65,1.49-.42.64-.83.52-1.24.26-5.07-3.31-8.03-8-8.82-13.96-.47-3.51.81-6.63,3.06-9.32.59-.7,1.28-1.37,2.81-1.13Z"/>
      <path d="m278.59,519.55c-.7.38-1.41.74-2.09,1.15-2.37,1.44-4.74,2.9-7.1,4.35-.89.54-1.76,1.12-2.68,1.6-.63.33-1.38.48-1.86-.23-.4-.59.03-1.08.4-1.54.07-.09.15-.17.24-.25,3.65-3.5,8.06-5.22,13.09-5.09Z"/>
      <path d="m276.64,506.49c1.35-1.79,2.71-3.62,4.1-5.43.35-.45.75-.9,1.23-1.18.32-.18.96-.21,1.2,0,.27.24.26.8.35,1.23.02.09-.05.23-.12.32-1.53,2.15-3.05,4.32-5.27,5.84-.76.52-1.28.17-1.49-.77Z"/>
      <path d="m246.08,517.56c2.34.64,4.68.87,6.61,2.24.29.21.56.82.46,1.11-.11.31-.74.73-1.02.66-2.21-.62-4.4-1.31-6.56-2.07-.25-.09-.49-.8-.39-1.12.1-.34.6-.56.91-.82Z"/>
    </g>
  </g>
</svg>