<?xml version="1.0" encoding="UTF-8"?>
<svg id="Layer_2" data-name="Layer 2" xmlns="http://www.w3.org/2000/svg" viewBox="0 0 700 725">
  <defs>
    <style>
      .cls-1 {
        fill: #fff;
      }
    </style>
  </defs>
  <g id="Layer_1-2" data-name="Layer 1">
    <g id="Color">
      <path class="cls-1" d="m0,700V0h700v700H0Zm101.91-440.12c-1.5,0-2.63-.11-3.73.02-5.12.59-10.29.96-15.33,1.95-6.12,1.2-7.42,3.81-5.87,9.99,3.66,14.51,9.9,27.78,19.18,39.55,1.04,1.32,1.11,2.01-.36,3.06-3.22,2.3-6.43,4.64-9.38,7.25-7.52,6.65-13.99,14.17-17.25,23.86-.72,2.13-.75,4.89-.04,7,1.2,3.55,2.99,6.97,4.98,10.17,5.34,8.58,12.88,15.04,20.93,20.96.8.59,1.55,1.26,2.03,1.65-3.23,4.94-6.44,9.48-9.29,14.25-5.2,8.72-8.63,18.2-11.06,28.03-1.22,4.95.45,7.92,5.49,8.88,5.53,1.06,11.16,1.64,16.77,2.18,2.99.29,3,.05,2.32,3-3.8,16.35-5.97,32.86-5.38,49.69.13,3.58,1.55,6.04,4.59,7.92,14.44,8.94,29.94,15.44,46.19,20.18,2.04.6,2.1,1.12,1.25,2.94-2.44,5.25-4.86,10.54-6.77,16-1.82,5.21-.26,7.74,4.97,9.29,9.41,2.8,19.03,4.46,28.86,4.38,5.94-.04,11.87-.53,17.84-.82.67,4.43,1.19,9,2.08,13.48,1.82,9.2,5.05,17.84,10.72,25.43,2.09,2.79,4.54,4.78,8.27,5.31,7.65,1.08,15.19.65,22.55-1.45,6.48-1.85,12.79-4.31,19.22-6.51,1.88,3.9,3.81,8.13,5.96,12.26,5.11,9.84,11.9,18.45,19.94,26.03,4.33,4.08,7.13,4.02,11.11-.5,3.56-4.04,6.58-8.56,9.83-12.88.6-.8,1.16-1.64,1.67-2.36,3.54,3.14,6.81,6.13,10.17,9.01,10.09,8.64,20.85,16.31,32.66,22.45,2.74,1.42,5.29,1.4,8.06,0,12.42-6.25,23.53-14.39,34.01-23.45,3.02-2.62,5.98-5.31,9.1-8.08.58.88,1.03,1.64,1.55,2.34,3.23,4.33,6.27,8.82,9.78,12.92,3.95,4.62,6.89,4.65,11.27.48,10.73-10.21,19.08-22.08,24.7-35.82,1.23-2.99,1.17-2.96,4.22-1.54,11.29,5.23,23.01,8.36,35.6,7.5,4.84-.33,8.69-1.9,11.68-6.1,6.81-9.57,9.88-20.38,11.54-31.75.35-2.35.57-4.72.8-6.66,6.91.25,13.42.7,19.94.67,9.25-.05,18.3-1.74,27.13-4.48,4.89-1.52,6.44-4.09,4.82-8.78-1.84-5.32-4.2-10.46-6.36-15.66-.42-1.02-.96-1.99-1.5-3.11,1.33-.31,2.44-.5,3.49-.84,15.17-4.87,29.88-10.71,43.57-19.03,4.36-2.65,6-5.89,6.06-10.84.2-16.26-1.9-32.21-5.64-47.98-.52-2.19.1-2.48,2.13-2.68,5.85-.56,11.7-1.22,17.48-2.28,4.5-.83,6.27-3.99,5.1-8.47-1.14-4.36-2.39-8.72-3.95-12.94-3.94-10.66-9.3-20.56-16.82-29.42,2.29-1.71,4.51-3.3,6.65-4.98,8.73-6.88,16.17-14.79,20.8-25.12,1.87-4.18,2.06-8.01.11-12.26-4.42-9.66-11.37-17.17-19.31-23.91-2.61-2.22-5.43-4.2-8.11-6.25.16-.36.2-.53.3-.64,10.35-12.3,16.68-26.57,20.4-42.08,1.05-4.37-.57-7.1-4.91-8.16-3.13-.77-6.32-1.32-9.52-1.7-3.49-.42-7.02-.53-10.77-.79.2-.93.35-1.7.52-2.46,3.73-16.35,6.02-32.86,5.48-49.69-.12-3.84-1.62-6.47-4.93-8.5-11.61-7.13-23.94-12.68-36.79-17.11-3.7-1.28-7.44-2.46-11.38-3.76.53-.99,1.06-1.8,1.42-2.67,2.32-5.74,4.76-11.43,6.82-17.27,1.01-2.87-.42-5.21-3.19-6.5-.87-.4-1.79-.74-2.72-1.01-14.54-4.19-29.3-5.57-44.31-3.21-1.81.28-2.11-.33-2.36-1.93-.89-5.89-1.68-11.83-3.08-17.6-1.78-7.35-5.04-14.11-9.69-20.15-2.3-2.99-5.16-4.55-8.98-5-7.68-.9-15.19-.15-22.52,2-5.24,1.54-10.27,3.77-15.43,5.59-1.06.37-2.45,1.95-3.3-.38-3.01-8.25-7.19-15.91-12.59-22.8-3.93-5.01-8.16-9.81-12.56-14.41-3.9-4.09-7.21-4.06-10.92.2-3.64,4.18-6.77,8.8-10.13,13.24-.55.72-1.08,1.46-2.09,2.84-.83-1.17-1.27-2.09-1.97-2.74-11.91-10.99-24.64-20.85-38.93-28.62-4.07-2.22-7.66-2.1-11.61.13-11.66,6.57-22.43,14.35-32.52,23.11-2.79,2.42-5.5,4.93-8.45,7.57-.82-1.21-1.51-2.37-2.33-3.43-3.15-4.08-6.16-8.3-9.56-12.16-3.65-4.14-6.7-4.07-10.74-.23-7.13,6.77-13.3,14.35-18.21,22.85-2.92,5.06-5.36,10.4-8.07,15.73-2.73-1.16-5.66-2.5-8.66-3.64-10.07-3.81-20.37-6.12-31.26-4.83-3.9.46-6.98,1.84-9.42,5.1-6.42,8.55-9.77,18.29-11.52,28.68-.62,3.69-1.08,7.41-1.52,10.45-7.87-.18-15.36-.72-22.82-.43-8.39.33-16.69,1.81-24.7,4.47-4.2,1.4-5.76,3.94-4.4,7.99,1.77,5.25,4.01,10.35,6.09,15.49.5,1.24,1.2,2.4,1.87,3.7-.76.27-1.28.49-1.82.65-16.28,4.71-31.73,11.32-46.26,20.1-3.28,1.98-4.84,4.62-4.96,8.49-.4,13.38.91,26.61,3.36,39.74.77,4.1,1.7,8.18,2.66,12.71Z"/>
      <path d="m101.91,259.88c-.95-4.54-1.89-8.61-2.66-12.71-2.45-13.13-3.76-26.36-3.36-39.74.12-3.87,1.67-6.51,4.96-8.49,14.53-8.77,29.98-15.38,46.26-20.1.54-.15,1.05-.37,1.82-.65-.66-1.3-1.36-2.46-1.87-3.7-2.09-5.14-4.32-10.24-6.09-15.49-1.36-4.05.2-6.6,4.4-7.99,8.01-2.66,16.31-4.14,24.7-4.47,7.46-.29,14.95.25,22.82.43.44-3.04.89-6.76,1.52-10.45,1.75-10.39,5.1-20.12,11.52-28.68,2.44-3.25,5.52-4.63,9.42-5.1,10.89-1.29,21.19,1.02,31.26,4.83,3,1.14,5.93,2.48,8.66,3.64,2.72-5.34,5.15-10.67,8.07-15.73,4.91-8.51,11.09-16.08,18.21-22.85,4.04-3.84,7.09-3.91,10.74.23,3.4,3.86,6.41,8.08,9.56,12.16.82,1.06,1.51,2.22,2.33,3.43,2.95-2.64,5.66-5.15,8.45-7.57,10.09-8.76,20.86-16.54,32.52-23.11,3.95-2.23,7.53-2.35,11.61-.13,14.29,7.78,27.02,17.64,38.93,28.62.7.65,1.15,1.57,1.97,2.74,1.01-1.38,1.55-2.12,2.09-2.84,3.35-4.43,6.48-9.06,10.13-13.24,3.71-4.25,7.01-4.28,10.92-.2,4.4,4.6,8.64,9.4,12.56,14.41,5.4,6.9,9.57,14.55,12.59,22.8.85,2.33,2.24.76,3.3.38,5.16-1.82,10.19-4.05,15.43-5.59,7.33-2.15,14.84-2.9,22.52-2,3.82.45,6.68,2.01,8.98,5,4.65,6.04,7.91,12.8,9.69,20.15,1.4,5.78,2.18,11.71,3.08,17.6.24,1.61.55,2.22,2.36,1.93,15.01-2.35,29.77-.98,44.31,3.21.93.27,1.84.6,2.72,1.01,2.78,1.28,4.2,3.63,3.19,6.5-2.06,5.83-4.5,11.53-6.82,17.27-.35.88-.89,1.68-1.42,2.67,3.94,1.3,7.68,2.48,11.38,3.76,12.85,4.44,25.18,9.98,36.79,17.11,3.3,2.03,4.8,4.67,4.93,8.5.54,16.83-1.74,33.34-5.48,49.69-.17.76-.33,1.53-.52,2.46,3.76.26,7.28.37,10.77.79,3.2.38,6.39.94,9.52,1.7,4.34,1.06,5.96,3.79,4.91,8.16-3.72,15.51-10.05,29.78-20.4,42.08-.1.12-.14.28-.3.64,2.68,2.05,5.5,4.03,8.11,6.25,7.94,6.74,14.9,14.25,19.31,23.91,1.95,4.26,1.76,8.08-.11,12.26-4.62,10.33-12.07,18.24-20.8,25.12-2.14,1.68-4.36,3.27-6.65,4.98,7.53,8.87,12.89,18.76,16.82,29.42,1.56,4.23,2.8,8.58,3.95,12.94,1.18,4.49-.59,7.65-5.1,8.47-5.77,1.06-11.63,1.72-17.48,2.28-2.04.19-2.65.49-2.13,2.68,3.74,15.77,5.84,31.73,5.64,47.98-.06,4.94-1.7,8.18-6.06,10.84-13.69,8.33-28.41,14.16-43.57,19.03-1.06.34-2.16.52-3.49.84.54,1.12,1.07,2.09,1.5,3.11,2.16,5.21,4.53,10.34,6.36,15.66,1.62,4.69.07,7.26-4.82,8.78-8.83,2.74-17.88,4.43-27.13,4.48-6.51.04-13.03-.42-19.94-.67-.23,1.94-.45,4.31-.8,6.66-1.67,11.37-4.74,22.18-11.54,31.75-2.99,4.2-6.84,5.77-11.68,6.1-12.59.86-24.31-2.27-35.6-7.5-3.05-1.41-2.99-1.45-4.22,1.54-5.62,13.74-13.97,25.61-24.7,35.82-4.38,4.16-7.32,4.13-11.27-.48-3.5-4.1-6.55-8.59-9.78-12.92-.52-.7-.97-1.46-1.55-2.34-3.12,2.77-6.08,5.47-9.1,8.08-10.47,9.07-21.58,17.2-34.01,23.45-2.77,1.4-5.32,1.42-8.06,0-11.81-6.14-22.57-13.81-32.66-22.45-3.36-2.88-6.63-5.87-10.17-9.01-.51.72-1.06,1.56-1.67,2.36-3.25,4.32-6.27,8.83-9.83,12.88-3.98,4.52-6.77,4.58-11.11.5-8.05-7.58-14.83-16.19-19.94-26.03-2.14-4.13-4.07-8.37-5.96-12.26-6.43,2.21-12.74,4.66-19.22,6.51-7.35,2.1-14.89,2.54-22.55,1.45-3.73-.53-6.18-2.51-8.27-5.31-5.68-7.59-8.9-16.23-10.72-25.43-.89-4.49-1.41-9.05-2.08-13.48-5.96.29-11.9.78-17.84.82-9.83.07-19.45-1.58-28.86-4.38-5.22-1.55-6.79-4.08-4.97-9.29,1.91-5.46,4.33-10.75,6.77-16,.85-1.83.8-2.35-1.25-2.94-16.26-4.74-31.75-11.24-46.19-20.18-3.04-1.88-4.46-4.34-4.59-7.92-.59-16.83,1.57-33.35,5.38-49.69.69-2.95.68-2.71-2.32-3-5.61-.54-11.24-1.12-16.77-2.18-5.03-.96-6.71-3.94-5.49-8.88,2.43-9.83,5.86-19.31,11.06-28.03,2.84-4.77,6.05-9.31,9.29-14.25-.48-.39-1.23-1.06-2.03-1.65-8.05-5.92-15.59-12.38-20.93-20.96-1.99-3.2-3.78-6.62-4.98-10.17-.71-2.11-.67-4.87.04-7,3.26-9.69,9.74-17.21,17.25-23.86,2.95-2.61,6.16-4.96,9.38-7.25,1.47-1.05,1.39-1.74.36-3.06-9.28-11.78-15.52-25.04-19.18-39.55-1.56-6.18-.25-8.79,5.87-9.99,5.04-.99,10.21-1.36,15.33-1.95,1.1-.13,2.23-.02,3.73-.02Zm181.15,89.48c0,37.29,30.54,67.95,67.77,68.04,37.61.09,68.41-30.6,68.45-68.19.04-37.03-30.61-67.82-67.25-68.12-38.72-.32-69.21,31.3-68.96,68.27Zm-12.01-6.62c1.14-3.23.11-4.81-1.89-6.63-5.48-4.98-11.08-9.96-15.75-15.66-6.89-8.42-10.74-18.31-11.13-29.36-.11-3.22,1.04-5.48,4.02-7.05,10.11-5.32,20.83-6.51,31.98-5.03,7.73,1.02,15.14,3.13,22.19,6.51,1.89.9,3.09-.45,4.23-1.5,1.32-1.23-.17-2.03-.8-2.78-12.59-15.2-28.1-26.32-46.67-33.04-27.23-9.85-54.82-8.68-82.54-2.4-1.4.32-1.71.99-1.27,2.44,4.59,15.22,10.78,29.72,19.51,43.05,16.2,24.75,38.05,41.88,67.03,49.24,3.64.93,7.38,1.47,11.09,2.2Zm80.27-199.47c-.94.85-1.46,1.24-1.88,1.71-8.23,9.33-16.06,18.97-22.48,29.68-10.56,17.6-17.06,36.48-18.02,57.08-.69,14.62,1.76,28.76,6.87,42.47.87,2.33,1.54,2.83,3.6,1.55.95-.59,1.6-2.06,1.9-3.25,1.58-6.32,2.58-12.81,4.57-18.99,3.42-10.63,9.73-19.43,18.79-26.1,5.55-4.08,7.32-4.03,12.94.06,9.63,7,15.85,16.5,19.38,27.68,1.83,5.81,2.81,11.9,3.95,17.9.39,2.07,1.59,2.94,3.31,3.31,1.99.44,1.81-1.44,2.21-2.51,7.75-20.36,8.85-41.18,4.03-62.34-4.57-20.05-14.16-37.64-26.86-53.62-3.91-4.92-8.07-9.63-12.28-14.63Zm45.55,272.21c.86.99,1.65,1.89,2.42,2.81,17.58,20.77,40.02,33.01,66.7,37.46,19.11,3.18,38.13,1.86,57.01-2.16,2.02-.43,4.03-.92,5.9-1.35.11-.5.2-.66.17-.8-.13-.55-.28-1.09-.44-1.63-4.13-13.64-9.6-26.7-17.02-38.89-18.03-29.6-43.46-48.71-78.02-54.78-2.57-.45-3.57.42-3.03,2.97.21.98,1.06,1.93,1.85,2.65,3.81,3.48,7.96,6.62,11.51,10.34,9.36,9.8,15.31,21.26,16.09,35.08.19,3.29-.91,5.57-3.82,7.15-5.91,3.21-12.23,4.99-18.9,5.5-11.92.91-23.25-1.58-34.2-6.17-3.45-1.45-3.48-1.39-6.22,1.84Zm-182.66,41.95c.02.22.04.43.06.65,8.72-1.02,17.56-1.46,26.14-3.17,25.4-5.05,46.67-17.37,63.24-37.49,1.89-2.3,1.96-2.71-.61-4.12-.8-.44-2.17-.41-3.05-.05-8.99,3.78-18.24,6.37-28.07,6.7-8.88.3-17.33-1.27-25.29-5.31-2.96-1.5-4.71-3.65-4.29-7.1.4-3.27.59-6.61,1.37-9.79,3.33-13.58,11.56-23.95,21.99-32.8,1.66-1.41,3.65-2.54,4.97-4.2.76-.96.55-2.75.52-4.16,0-.16-1.82-.54-2.7-.35-4.81,1.02-9.66,1.91-14.35,3.35-27.72,8.51-48.1,26.24-63.13,50.61-7.76,12.58-13.21,26.17-17.7,40.19-.61,1.89.63,2.09,1.8,2.35,12.87,2.89,25.87,4.74,39.1,4.69Zm94.63,7.15c.09,6.96,1.25,16.64,3.82,26.12,6.61,24.38,20.2,44.67,37.09,63.01,1.04,1.13,1.79.97,2.73-.15,4.26-5.07,8.83-9.89,12.83-15.15,19.78-26.04,30.83-54.86,27.35-88.14-.95-9.11-3.2-17.92-6.39-26.51-.58-1.57-1.73-2.13-2.98-1.29-.99.67-1.95,1.89-2.23,3.04-1.15,4.86-1.75,9.85-3.08,14.65-3.27,11.88-9.14,22.21-19.1,29.83-7.11,5.44-9.22,5.29-16.2-.48-10.88-9-16.73-20.89-19.78-34.37-.77-3.38-1.27-6.82-1.75-10.25-.29-2.09-1.89-2.57-3.42-2.81-.48-.07-1.42,1.22-1.75,2.05-4.77,12.07-7.02,24.63-7.14,40.44Zm87.95-181.32c1.78,1.52,3.02,3.16,5.63,1.96,8.43-3.89,17.32-6.14,26.6-6.71,9.54-.58,18.63,1.11,27.13,5.67,2.94,1.57,4.37,3.89,3.78,7.11-.96,5.21-1.61,10.57-3.39,15.52-3.85,10.75-11.1,19.2-19.79,26.45-1.74,1.45-3.71,2.68-5.16,4.37-.78.9-.83,2.57-.83,3.89,0,.26,1.78.88,2.64.73,3.58-.6,7.17-1.23,10.66-2.19,26.66-7.31,47.4-22.9,63.06-45.48,9.94-14.33,16.7-30.15,21.85-46.73.13-.43.1-.91.16-1.48-.82-.23-1.5-.44-2.19-.6-10.94-2.6-22.01-4.26-33.26-4.67-29.58-1.07-56.63,5.99-79.98,24.89-6.23,5.04-11.82,10.71-16.9,17.27Zm172.81-59.21c-.25-.28-.79-1.37-1.66-1.81-13.66-6.83-28.17-11.07-43.14-13.78-1.22-.22-2.71.16-3.88.69-6.74,3.06-13.35,6.43-20.15,9.34-5.32,2.27-5.2,2.01-4.18,7.76.49,2.76,1.84,3.25,4.21,3.41,12.35.8,24.46,3.08,36.39,6.36,4.79,1.32,6.56,4.06,5.01,8.66-3.57,10.6-7.41,21.12-11.18,31.65-.75,2.09-2.65,4.3-2.29,6.11.37,1.85,2.86,3.29,4.43,4.9.11.12.23.23.34.35.81.84,1.51.89,2.45.01,6.55-6.18,13.93-11.22,21.7-15.75.9-.52,1.8-1.51,2.14-2.47,5.06-14.43,8.86-29.15,9.84-45.44Zm-436.91,1.69c.16,1.7.25,2.75.35,3.79,1.29,13.24,4.65,26,8.87,38.57.69,2.04,1.83,3.36,3.63,4.55,5.98,3.96,11.96,7.94,17.63,12.33,4.53,3.5,4.18,3.59,8.47.06,2.24-1.85,2.22-3.33,1.06-5.72-5.55-11.41-9.87-23.29-12.85-35.64-.91-3.76.81-6.51,4.5-7.57,1.62-.47,3.26-.93,4.92-1.22,9.68-1.71,19.34-3.65,29.07-4.96,8.2-1.1,5.9.91,7.98-6.95.04-.16.06-.32.1-.47.38-1.48-.09-2.21-1.62-2.87-7.62-3.26-15.2-6.62-22.68-10.17-1.86-.88-3.51-1.37-5.52-.97-14.03,2.85-27.72,6.7-40.72,12.86-2.34,1.11-3.92,2.2-3.19,4.38Zm436.95,247.64c-.02-.4-.02-.57-.04-.73-1.36-15.19-4.72-29.93-10.08-44.2-.3-.81-1.1-1.54-1.84-2.05-5.96-4.13-11.98-8.18-17.96-12.29-1.81-1.24-3.72-3.81-5.26-3.58-1.92.28-3.62,2.72-5.19,4.44-.51.56-.66,1.93-.35,2.68,1.41,3.43,3.31,6.67,4.53,10.15,3.13,8.89,6.15,17.82,8.9,26.83,1.17,3.81-.68,6.66-4.36,7.63-11.95,3.15-24.04,5.61-36.39,6.51-3.99.29-3.99.23-4.98,3.98-.24.94-.37,1.93-.78,2.79-.92,1.93-.08,2.5,1.68,3.26,7.84,3.37,15.55,7.02,23.36,10.46,1.24.55,2.81.91,4.1.69,4.2-.73,8.37-1.7,12.52-2.73,10.28-2.55,20.27-5.96,29.82-10.58,1.51-.73,2.65-1.6,2.3-3.26Zm-257.92,65.23c2.02,8.97,3.12,17.92,2.92,26.98-.04,1.92.4,3.42,1.64,4.84,8.81,10.04,18.28,19.37,29.11,27.24,5.51,4,5.55,4.09,11.09.16,11.07-7.83,20.89-17.01,29.44-27.53.88-1.09,1.4-2.7,1.55-4.13.67-6.82,1.1-13.66,1.73-20.48.23-2.44.78-4.85,1.17-7.25-2.09-.65-3.91-1.07-5.6-1.79-2.1-.9-3.33-.36-4.58,1.55-6.77,10.29-14.78,19.57-23.49,28.25-4.24,4.23-7.11,4.41-11.05.02-7.05-7.86-13.83-15.97-20.66-24.02-1.71-2.01-2.79-5.34-4.85-6.05-2.06-.71-5,1.08-7.55,1.78-.23.06-.43.2-.87.42Zm-178.91-66.94c.03,2.18-.67,3.71,1.47,4.73,13.87,6.59,28.43,10.94,43.5,13.64,1.01.18,2.32,0,3.19-.52,7.73-4.61,15.86-8.28,24.41-11.06.57-.18,1.22-1.35,1.16-2-.16-1.59-.83-3.12-1.07-4.7-.3-1.98-1.12-2.77-3.28-2.91-12.69-.78-25.11-3.18-37.38-6.43-4.25-1.13-5.98-3.97-4.88-8.19,2.89-11.1,6.64-21.91,11.38-32.37.9-1.98,2.63-4.25,2.23-5.98-.43-1.88-2.91-3.28-4.5-4.89-.11-.12-.23-.33-.34-.33-.81.01-1.91-.26-2.38.17-6.52,5.85-13.57,10.93-21.17,15.28-1.03.59-2.13,1.62-2.52,2.69-5.19,14.07-8.69,28.53-9.81,42.85Zm254.31-334.68c.11-.02.22-.04.32-.06,0-1.05-.14-2.12.03-3.14.47-2.83-.75-4.88-2.55-6.93-9.26-10.54-19.41-20.08-30.93-28.15-2.25-1.58-3.78-1.48-5.95.06-11.76,8.31-22.05,18.16-31.47,28.99-1.37,1.57-1.97,3.18-1.94,5.25.11,8.5-.64,16.94-2.62,25.23-.31,1.32.11,1.81,1.16,2.13,1.54.48,3.21.69,4.61,1.42,2.13,1.11,3.09.21,4.24-1.5,6.92-10.39,15-19.84,23.88-28.6,3.98-3.93,6.56-3.81,10.55.11,7.92,7.77,15.1,16.17,21.54,25.21,3.83,5.37,3.79,5.31,10.25,3.79,1.87-.44,2.22-1.16,1.93-2.99-1.12-6.92-2.04-13.87-3.04-20.81Zm-88.35,121.6c-3.53-20.59-2-40.7,4.27-60.54-12.45-3.07-24.63-3.75-36.94-2.62-2.31.21-4.04,1.19-5.43,3.13-5.07,7.05-9.38,14.5-12.55,22.58-1.37,3.5-2.6,7.05-3.99,10.86,10.38,2.31,19.96,5.55,29.11,10.03,9.14,4.48,17.58,10.02,25.53,16.55Zm104.32.43c.97-.73,1.48-1.07,1.95-1.47,14.73-12.19,31.35-20.57,50.03-24.73,2.18-.48,2.85-1.01,2.15-3.28-3.69-11.92-9.39-22.78-17.02-32.62-.47-.61-1.47-1.06-2.26-1.11-5.55-.37-11.11-.91-16.65-.83-7.33.1-14.58,1.16-22.09,3.09,6.28,19.91,7.84,40.02,3.89,60.94Zm54.89,207.44c-10.04-2.28-19.66-5.39-28.79-9.91-9.19-4.55-17.72-10.12-25.86-17.1,0,1-.05,1.46,0,1.91.52,4.07,1.25,8.13,1.57,12.22,1.19,15.13-.49,29.97-5.13,44.43-.62,1.95-.25,2.48,1.64,2.91,11.93,2.74,23.96,3.3,36.08,1.77,1.19-.15,2.59-1.01,3.33-1.97,2.03-2.6,3.81-5.4,5.59-8.19,5.09-8,8.74-16.65,11.56-26.08Zm-154.75,34.08c-6.64-20.1-7.8-40.07-4.59-60.43-.8.35-1.26.75-1.73,1.15-.49.42-.98.84-1.49,1.24-14.37,11.28-30.47,19.01-48.23,23.22-2.59.61-2.75,1.56-2.04,3.76,3.62,11.16,9,21.37,15.85,30.87,1.11,1.53,2.32,2.21,4.14,2.44,8.55,1.07,17.09.96,25.61-.11,4.05-.51,8.06-1.38,12.48-2.15Zm202.73-117.43c.47-.38.82-.58,1.08-.87,8.56-9.48,15.69-19.89,20.38-31.85.33-.84.17-2.06-.19-2.93-4.68-11.49-11.57-21.58-19.75-30.85-.41-.47-.59-1.14-.97-1.9-14.46,16.15-31.21,27.36-51.53,34.5,10.26,3.64,19.31,8.13,27.8,13.77,8.57,5.7,16.21,12.47,23.19,20.13Zm-309.6-67.64c-.51.37-.87.55-1.13.83-8.72,9.28-15.53,19.8-20.4,31.55-.35.84-.23,2.08.12,2.96,2.93,7.39,6.8,14.29,11.55,20.65,2.97,3.98,6.22,7.75,9.52,11.83,14.38-15.51,30.92-26.98,51.12-34.09-20.16-7.14-36.79-18.45-50.78-33.73Zm90.25,298.97c2.12-3.09,4.07-5.64,5.71-8.37,7.4-12.29,10.56-25.79,10.36-39.98-.11-7.78-1.39-15.54-2.2-23.31-.17-1.63-1.07-2.34-2.86-1.98-1.97.4-3.99.69-6,.71-8.06.09-16.12.09-24.18.05-1.36,0-2.35.16-2.72,1.68-1.84,7.51-2.58,15.1-1.78,22.8,1.43,13.73,6.83,25.95,14.65,37.15,2.66,3.81,5.81,7.27,9.02,11.24Zm129.39.12c.58-1.01.92-1.77,1.41-2.41,2.89-3.78,6.06-7.37,8.7-11.32,11.46-17.17,16.43-35.74,11.74-56.34-.52-2.27-1.28-3.03-3.64-2.85-10.01.76-20.01.55-29.96-.85-1.84-.26-2.18.62-2.47,2.08-2.7,13.76-3.38,27.54-.4,41.34,2.35,10.87,6.73,20.81,14.61,30.35Zm196.56-341.03c-.53-.44-1-1.16-1.54-1.21-3.45-.31-6.92-.73-10.37-.64-11.62.3-22.59,3.3-32.97,8.51-8.56,4.3-16.34,9.73-23.46,16.12-.86.77-1.99,1.41-.77,2.94,6.3,7.92,11.33,16.66,15.88,25.67,1.03,2.04,2.14,2.4,4.19,1.78,10.95-3.35,20.37-9.24,28.51-17.19,7.94-7.75,13.06-17.34,17.33-27.43,1.13-2.67,2.04-5.42,3.2-8.54Zm-196.91-189.11c-5.89,6.99-9.75,14.39-12.28,22.45-5.01,16.01-4.88,32.23-1.69,48.57.37,1.92,1.09,2.21,2.88,2.14,10.14-.39,20.29-.68,30.44-.83,1.69-.02,2.31-.6,2.65-2.03,1.98-8.33,2.56-16.72,1.28-25.21-2.2-14.6-8.67-27.23-17.76-38.65-1.69-2.12-3.53-4.12-5.52-6.43Zm-128.9.13c-.73.7-1.4,1.16-1.85,1.78-4.02,5.45-8.5,10.63-11.91,16.44-9.4,15.97-12.87,33.08-8.5,51.44.49,2.05,1.33,2.43,3.27,2.47,9.92.17,19.84.45,29.75.89,1.98.09,2.81-.42,3.02-2.3.71-6.41,1.81-12.8,2.11-19.23.59-12.57-1.33-24.79-6.5-36.37-2.4-5.38-5.37-10.44-9.39-15.13Zm-132.55,76.6c.05.32.04.49.1.63,10.42,24.99,30.57,38.55,55.16,46.84.56.19,1.83-.48,2.15-1.08,1.07-1.98,1.72-4.18,2.79-6.16,4.14-7.65,8.38-15.25,12.65-23.01-12.91-16.82-50.37-25.84-72.85-17.22Zm-64.43,111.45c.34,1.36.46,2.42.86,3.36,2.23,5.27,4.16,10.7,6.87,15.71,9.1,16.85,22.24,29.11,40.88,34.93,2.37.74,3.39.33,4.66-1.9,4.56-7.97,9.37-15.81,14.28-23.58,2.2-3.47,2.45-3.38-.63-6.04-13.06-11.29-27.76-19.37-44.91-22.44-7.18-1.29-14.42-1.33-22.02-.05Zm458.37-111.52c-1.06-.3-1.73-.59-2.42-.68-5.67-.72-11.34-1.77-17.04-2.04-19.64-.93-37.12,4.56-51.79,18.08-1.72,1.59-1.72,2.66-.56,4.65,4.27,7.3,8.46,14.67,12.31,22.2,3.04,5.95,2.83,6.13,9.13,3.69,16.09-6.22,30.3-15.14,41.02-28.96,3.91-5.05,7.03-10.58,9.36-16.95ZM89.57,425.53c.85.26,1.43.52,2.04.61,7.26,1.01,14.5.79,21.68-.61,17.45-3.42,32.1-12.24,45.32-23.76,1.12-.98.69-1.65.06-2.65-5.4-8.69-10.8-17.38-16.06-26.15-.88-1.47-1.7-2-3.27-1.37-4.03,1.62-8.26,2.86-12.07,4.89-19.83,10.54-30.79,28.01-37.69,49.05Zm64.48,111.7c.88.32,1.46.6,2.08.73,13.34,2.85,26.68,3.31,40.02-.06,11.43-2.89,21.4-8.39,29.84-16.64.84-.82,1.38-1.4.58-2.83-5.04-9.07-9.96-18.21-14.78-27.41-.76-1.46-1.48-1.61-2.8-1.16-15.19,5.12-28.92,12.7-40.17,24.29-6.41,6.6-11.31,14.22-14.76,23.08Zm448.96-110.41c1.83-.15,4.64-.43,7.45-.6,1.78-.11,2.17-.79,1.61-2.5-3.4-10.36-8.17-20.01-14.91-28.61-8.92-11.38-20.14-19.44-34.14-23.46-1.39-.4-2.28-.68-3.29,1.05-5.1,8.68-10.38,17.26-15.75,25.78-.98,1.56-1.43,2.56.24,3.81,4.39,3.28,8.58,6.87,13.13,9.91,13.49,9.04,28.24,14.4,45.66,14.62Zm-54.7,110.94c-.77-1.89-1.25-3.24-1.85-4.54-5.48-11.76-13.75-21.16-24.21-28.74-8.83-6.4-18.53-11.06-28.85-14.48-.99-.33-2.16-1.11-2.8.58-3.62,9.55-8.65,18.38-14.31,26.83-1.47,2.2-.94,3.19.74,4.74,16.2,14.87,35.56,19.53,56.91,17.71,4.63-.4,9.22-1.32,14.36-2.09Zm-80.7-369.16c.61-.46,1.07-.76,1.47-1.13,7.74-7.16,16.48-12.69,26.5-16.08,1.46-.5,1.94-1.27,1.78-2.65-.32-2.89-.52-5.79-.98-8.66-1.31-8.28-3.63-16.19-8.4-23.24-1.22-1.81-2.72-2.43-4.86-2.49-11.21-.31-21.43,3.23-31.41,7.84-1.69.78-1.56,2.01-1.34,3.42,1.61,10.24,1.56,20.43-.89,30.55-.4,1.64.25,2.26,1.77,2.33.48.02.97.07,1.45.1,4.91.22,9.17,1.63,11.86,6.19.8,1.36,1.95,2.5,3.03,3.85Zm-.15,360.95c-3.71,6.73-8.82,10.94-16.7,10.58-1.23-.06-1.69.68-1.34,1.94.37,1.32.67,2.66.9,4.01,1.5,8.91,1.53,17.82.12,26.75-.15.98.18,2.71.81,3.02,8.79,4.37,17.93,7.53,27.84,8.36,5.29.44,9.16-.89,11.1-6.16.36-.98.95-1.87,1.38-2.82,3.47-7.59,4.87-15.65,5.7-23.88.25-2.52-.28-3.77-2.77-4.65-8.84-3.13-16.69-8.01-23.74-14.19-1.02-.89-2.01-1.81-3.29-2.97Zm-232.52.3c-.77.41-1.09.5-1.31.71-7.96,7.55-17.08,13.19-27.44,16.86-.58.2-1.22,1.32-1.19,1.98.55,10.49,2.54,20.59,7.7,29.95,1.92,3.49,4.37,4.92,8.31,4.85,10.69-.18,20.38-3.73,29.86-8.2,1.5-.71,1.12-1.84,1.05-3.08-.36-6.43-.93-12.86-.83-19.29.07-4.36,1.12-8.71,1.8-13.53-8.3.74-14.28-2.95-17.96-10.25Zm-.35-361.16c1.82-2.28,3.24-4.48,5.1-6.22,1.44-1.35,3.33-2.44,5.21-3.07,2.11-.7,4.43-.79,6.67-1.08,1.23-.16,1.68-.69,1.35-1.95-2.7-10.4-2.92-20.86-.94-31.41.13-.71-.57-2.03-1.23-2.37-9.42-4.81-19.23-8.15-30-8.3-3.76-.05-5.95,1.37-7.75,4.49-5.2,9.03-7.15,18.9-8.05,29.11-.18,2.08.43,3.02,2.38,3.7,9.11,3.16,17.15,8.14,24.36,14.52.9.79,1.79,1.59,2.91,2.59Zm-98.13,170.13c-.44-.28-.68-.53-.97-.62-10.46-3.21-19.92-8.25-28.34-15.27-.55-.45-1.97-.55-2.55-.16-8.99,6.04-16.97,13.07-22.49,22.61-1.57,2.72-1.47,4.91.03,7.61,5.21,9.36,13.02,16.1,21.56,22.2,1.69,1.21,2.76,1.13,4.37-.24,7.66-6.48,16.3-11.29,25.95-14.08,2.35-.68,2.73-1.53,1.59-3.45-3.24-5.47-3.18-10.95-.07-16.45.35-.62.57-1.31.93-2.17Zm428.97,20.8c.79.42,1.05.62,1.34.7,10.48,3,19.81,8.15,28.11,15.17,1.15.97,2.04.93,3.18,0,1.37-1.12,2.91-2.04,4.32-3.12,7.27-5.51,13.69-11.79,18.08-19.94,1.13-2.1,1.53-4.02.09-6.1-2.25-3.24-4.02-6.93-6.76-9.68-4.65-4.67-9.93-8.7-14.86-13.1-1.72-1.54-2.99-1.52-4.78-.01-7.24,6.08-15.38,10.62-24.35,13.63-1.34.45-2.66.98-4.41,1.63,4.95,7,4.69,13.89.04,20.81Zm-137.6-191.47c-14.91.35-26.31,1.16-37.46,4.25-1.79.5-1.99,1.15-1.18,2.69,1.68,3.21,3.35,6.45,4.79,9.78.71,1.65,1.53,1.86,3.16,1.46,12.42-3.08,25.03-3.87,37.76-2.92,6.26.47,11.88,1.37,16.02,7.51,7.92,11.75,14.6,23.94,18.41,37.64.16.58,1.35,1.25,2.04,1.24,3.79-.07,7.58-.44,11.37-.52,2.15-.04,2.34-.83,1.82-2.71-5.69-20.35-16.42-37.96-29.41-54.34-.66-.83-1.94-1.51-3-1.63-9.22-1.01-18.46-1.87-24.31-2.45Zm-113.78,357.61c-2.29-4.75-4.25-8.97-6.42-13.09-.26-.49-1.71-.69-2.48-.5-14.53,3.57-29.19,4.08-43.99,2.2-3.4-.43-5.91-1.9-8.05-4.68-9.22-11.97-16.04-25.11-20.27-39.61-.19-.65-1.05-1.61-1.56-1.58-4.57.24-9.13.67-13.99,1.08.54,2.14.96,4.26,1.6,6.31,5.89,18.85,16.2,35.23,28.35,50.57.62.78,1.86,1.32,2.88,1.48,15.71,2.39,31.48,3.2,47.28.98,5.48-.77,10.88-2.04,16.66-3.14Zm-134.24-232.51c-3.02,3.35-6.09,6.52-8.89,9.91-9.73,11.8-16.7,25.23-23.05,39.06-2.19,4.76-2.3,8.77-.14,13.66,7.33,16.57,16.03,32.19,28.46,45.54,1.19,1.28,2.2,2.73,3.4,4.24,3.15-4.61,5.82-8.42,8.33-12.33.27-.42-.24-1.66-.73-2.18-10.46-11.01-18.48-23.56-24.13-37.67-1.19-2.98-1.23-5.62,0-8.6,5.79-14.03,13.77-26.61,24.24-37.62.47-.49.69-1.85.36-2.37-2.42-3.8-5.01-7.48-7.85-11.63Zm37.33-64.38c4.7.36,9.1.65,13.48,1.07,1.52.15,2.06-.41,2.46-1.84,4.09-14.73,11.2-27.93,20.57-39.96,1.74-2.24,3.86-3.45,6.68-3.86,15.2-2.22,30.24-1.58,45.14,2.2,1.33.34,1.99.16,2.58-1.22,1.36-3.18,2.9-6.3,4.51-9.37,1.54-2.95,1.61-2.93-1.6-3.74-19.82-5.02-39.8-4.63-59.83-1.66-1.52.23-3.35,1.04-4.28,2.2-7.55,9.39-14.31,19.31-19.78,30.08-4.17,8.21-7.58,16.71-9.93,26.09Zm171.28,296.3c.49.27.75.49,1.04.56,2.5.64,4.99,1.34,7.52,1.85,18.53,3.75,37.1,3.04,55.66.26.85-.13,1.83-.74,2.38-1.42,8.54-10.69,16.31-21.92,21.93-34.43,2.96-6.59,5.08-13.56,7.58-20.36.62-1.68.05-2.33-1.76-2.35-2.98-.04-5.97-.34-8.95-.48-3.88-.18-3.89-.16-5.06,3.52-4.37,13.76-10.98,26.31-19.87,37.7-1.94,2.49-4.27,3.86-7.28,4.26-14.05,1.88-28.03,1.49-41.91-1.44-4.75-1-4.73-1.01-6.87,3.44-1.43,2.96-2.91,5.89-4.41,8.89Zm134.06-231.95c-2.8,4.08-5.1,7.59-7.58,10.96-1.04,1.41-.86,2.24.32,3.46,10.62,11,18.53,23.74,24.26,37.9,1,2.48,1,4.77.03,7.23-5.63,14.29-13.58,27.1-24.38,38.07-1.16,1.18-1.19,2.01-.29,3.3,2.04,2.91,3.96,5.9,5.91,8.86,1.42,2.17,1.63,2.14,3.51.22,13.94-14.27,23.52-31.23,31.06-49.53,1.37-3.32,1.27-5.99-.13-9.3-5.82-13.73-12.6-26.9-21.8-38.69-3.35-4.29-7.16-8.22-10.91-12.48Zm-356.58-94.81c-2.7-2.81-5.34-5.38-7.74-8.15-1.11-1.28-2.02-1.71-3.7-1.24-15.34,4.35-30.09,10.1-43.97,18.03-2.09,1.2-2.86,2.61-2.84,5.01.1,16.08,2.57,31.82,6.67,47.32.2.77,1.23,1.63,2.05,1.89,3.37,1.08,6.8,1.96,10.22,2.87.41.11.86.01,1.5.01-.45-1.58-.82-2.88-1.19-4.19-3.47-12.47-5.82-25.1-6.27-38.09-.15-4.36,1.53-6.91,5.24-8.81,9.72-4.98,19.82-8.97,30.34-11.9,3.22-.9,6.44-1.83,9.71-2.75Zm370.75,301.44c2.4,2.62,5,5.16,7.2,8,1.35,1.74,2.61,1.96,4.55,1.41,15.36-4.35,30.1-10.15,43.92-18.23,1.54-.9,2.09-1.88,2.14-3.62.37-14.89-2.19-29.4-5.17-43.9-.94-4.55-2.68-7.03-7.49-7.41-2.55-.2-5.02-1.35-7.61-2.09,0,.5-.04.67,0,.81,4.37,13.35,6.61,27.07,7.57,41.06.32,4.73-1.42,7.75-5.59,9.62-.51.23-1,.52-1.51.77-9.74,4.96-19.96,8.66-30.49,11.56-2.61.72-5.24,1.4-7.53,2Zm-.38-301.35c1.71.45,3.31.9,4.93,1.31,12.07,3.08,23.67,7.39,34.82,12.97,4.22,2.11,6.02,4.95,5.71,9.76-.82,12.94-2.89,25.63-6.55,38.06-.34,1.17-.66,2.35-1.07,3.84,3.37-.94,6.19-2.08,9.11-2.43,3.35-.41,4.76-1.74,5.55-5.16,3.48-15.07,5.98-30.21,5.7-45.74-.03-1.72-.58-2.78-2.1-3.69-14.05-8.33-29.17-14.02-44.85-18.36-.77-.21-2.02,0-2.56.53-2.89,2.79-5.63,5.75-8.67,8.9ZM165.83,500.17c-.2-.16-.36-.36-.56-.42-.61-.19-1.24-.34-1.86-.5-13.51-3.35-26.58-7.85-38.85-14.53-2.68-1.46-3.92-3.48-3.9-6.62.07-12.69,2.35-25.03,5.58-37.23.57-2.13,1.14-4.26,1.81-6.81-2.84.79-5.19,1.84-7.61,2.04-4.8.4-6.55,2.9-7.5,7.5-3.04,14.82-5.63,29.65-5.08,44.85.03.71.58,1.69,1.18,2.04,14.32,8.47,29.67,14.51,45.65,18.97.74.21,1.93.18,2.39-.27,2.98-2.91,5.81-5.97,8.73-9.02ZM313.01,113.39c.87-.79,1.79-1.52,2.59-2.37,9.17-9.62,19.33-18.02,30.56-25.18,3.6-2.3,6.51-2.07,9.99.07,11.59,7.1,21.61,16.04,31.07,25.69.63.64,1.39,1.15,2.03,1.68,1.04-3.85,1.86-7.45,3.04-10.94.49-1.46.4-2.35-.67-3.38-11.74-11.39-24.32-21.68-38.63-29.74-1.45-.82-2.64-.82-4.01.07-3.91,2.56-8.12,4.74-11.76,7.64-9.02,7.18-17.8,14.64-26.61,22.08-.61.52-1.06,1.83-.87,2.61.92,3.8,2.07,7.55,3.27,11.77Zm.15,471.41c-1.27,4.47-2.45,8.3-3.37,12.19-.18.79.42,2.06,1.06,2.69,11.07,10.93,23.26,20.43,36.5,28.61,2.6,1.61,4.68,1.59,7.29.04,13.48-8,25.53-17.8,36.75-28.67.65-.63,1.26-1.91,1.08-2.69-.93-3.94-2.14-7.82-3.25-11.72-.28-.29-.56-.58-.83-.87-.27.7-.36,1.56-.83,2.06-9.44,9.92-19.77,18.75-31.37,26.1-3.61,2.29-6.74,2.22-10.3-.05-11.09-7.08-21-15.55-30.14-24.96-.76-.79-1.5-1.6-2.58-2.75Zm114.58-259.31c6.25-5.49,11.67-10.93,15.2-17.82,1.96-3.82,3.07-8.08,4.53-12.15.6-1.68-.22-2.45-1.79-2.99-12.13-4.19-23.8-1.85-35.85,2.36,8.37,8.86,13.81,19.1,17.92,30.6Zm-17.9,78.07c11.65,4.24,22.99,6.24,34.78,2.73,3.35-1,3.5-1.18,2.69-4.55-2.15-8.88-6.81-16.32-13.24-22.71-1.97-1.96-4.02-3.85-6.36-6.08-4.04,11.55-9.44,21.74-17.87,30.6Zm-75.86,23.91c-.22.38-.3.45-.29.5.09.64.17,1.28.29,1.91,2.15,11.36,6.46,21.59,15.18,29.61,1.41,1.29,2.36,1.17,3.67.02,9.57-8.36,13.51-19.52,15.99-32.08-11.9,2.33-23.47,2.44-34.85.03Zm-41.93-132.62c-11.91-4.45-23.69-6.33-35.88-2.27-1.63.54-1.81,1.48-1.51,2.97,2.41,12.02,9.69,20.87,18.58,28.69,1.19,1.05,1.71.55,2.15-.81,3.24-9.94,8.4-18.8,15.25-26.68.46-.53.84-1.12,1.4-1.89Zm-17.04,78.94c-.33-.03-.59-.12-.79-.05-.37.14-.74.32-1.03.57-8.87,7.73-15.98,16.58-18.51,28.46-.39,1.82.02,2.56,1.79,3.16,8.12,2.75,16.33,2.74,24.57.94,3.65-.79,7.2-2.02,11.27-3.19-7.97-9.17-13.92-18.81-17.3-29.9Zm93.8-102.69c-.56-2.57-.92-4.45-1.38-6.3-2.45-9.81-6.56-18.7-14.21-25.65-1.56-1.42-2.61-1.46-4.21.02-9.2,8.46-13.2,19.4-15.54,31.87,11.75-2.36,23.26-2.55,35.34.07Z"/>
      <path class="cls-1" d="m283.06,349.37c-.25-36.97,30.24-68.59,68.96-68.27,36.64.3,67.29,31.09,67.25,68.12-.04,37.6-30.84,68.28-68.45,68.19-37.23-.09-67.77-30.75-67.77-68.04Zm103.57-.04c-.11,0-.23-.02-.34-.03,0-2.18.07-4.36-.01-6.54-.25-7.16-1.54-14.01-8.22-18.12-6.51-4-13.21-7.73-19.98-11.27-4.17-2.18-8.69-2.29-13.13-.41-8.13,3.45-15.76,7.79-22.69,13.26-3.38,2.67-5.43,6.34-5.63,10.61-.35,7.32-.42,14.67-.35,22,.07,7.11,3.45,12.52,9.53,16.1,5.97,3.51,12.01,6.91,18.16,10.1,3.26,1.69,6.91,2.49,10.56,1.27,9.73-3.27,18.49-8.37,26.36-14.92,2.72-2.26,4.31-5.4,4.61-9.06.37-4.33.76-8.67,1.14-13Z"/>
      <path class="cls-1" d="m271.05,342.74c-3.71-.73-7.45-1.27-11.09-2.2-28.97-7.37-50.83-24.49-67.03-49.24-8.73-13.33-14.92-27.83-19.51-43.05-.44-1.45-.12-2.13,1.27-2.44,27.72-6.28,55.31-7.45,82.54,2.4,18.57,6.72,34.08,17.84,46.67,33.04.63.76,2.12,1.56.8,2.78-1.14,1.05-2.34,2.4-4.23,1.5-7.04-3.37-14.46-5.48-22.19-6.51-11.15-1.48-21.87-.29-31.98,5.03-2.98,1.57-4.13,3.83-4.02,7.05.39,11.05,4.24,20.94,11.13,29.36,4.67,5.7,10.27,10.68,15.75,15.66,2,1.82,3.03,3.39,1.89,6.63Z"/>
      <path class="cls-1" d="m351.33,143.27c4.21,5,8.37,9.72,12.28,14.63,12.71,15.98,22.29,33.57,26.86,53.62,4.82,21.16,3.73,41.98-4.03,62.34-.41,1.07-.22,2.94-2.21,2.51-1.71-.37-2.92-1.24-3.31-3.31-1.14-6-2.12-12.1-3.95-17.9-3.53-11.18-9.74-20.68-19.38-27.68-5.62-4.08-7.39-4.14-12.94-.06-9.06,6.67-15.36,15.47-18.79,26.1-1.99,6.18-2.99,12.67-4.57,18.99-.3,1.19-.95,2.66-1.9,3.25-2.06,1.28-2.73.78-3.6-1.55-5.11-13.7-7.55-27.85-6.87-42.47.97-20.6,7.47-39.48,18.02-57.08,6.43-10.71,14.25-20.35,22.48-29.68.42-.47.94-.86,1.88-1.71Z"/>
      <path class="cls-1" d="m396.88,415.48c2.74-3.23,2.77-3.29,6.22-1.84,10.95,4.59,22.28,7.08,34.2,6.17,6.66-.51,12.99-2.29,18.9-5.5,2.91-1.58,4.01-3.86,3.82-7.15-.78-13.82-6.73-25.28-16.09-35.08-3.55-3.72-7.7-6.86-11.51-10.34-.79-.72-1.64-1.67-1.85-2.65-.54-2.55.46-3.42,3.03-2.97,34.56,6.07,59.99,25.19,78.02,54.78,7.42,12.18,12.89,25.25,17.02,38.89.16.54.32,1.08.44,1.63.03.14-.06.3-.17.8-1.87.43-3.87.92-5.9,1.35-18.88,4.03-37.9,5.35-57.01,2.16-26.69-4.45-49.12-16.68-66.7-37.46-.77-.91-1.56-1.81-2.42-2.81Z"/>
      <path class="cls-1" d="m214.21,457.43c-13.23.05-26.23-1.79-39.1-4.69-1.17-.26-2.4-.46-1.8-2.35,4.49-14.02,9.94-27.61,17.7-40.19,15.03-24.37,35.42-42.1,63.13-50.61,4.69-1.44,9.55-2.33,14.35-3.35.88-.19,2.7.19,2.7.35.04,1.41.24,3.2-.52,4.16-1.32,1.67-3.31,2.79-4.97,4.2-10.43,8.86-18.66,19.22-21.99,32.8-.78,3.18-.98,6.52-1.37,9.79-.42,3.46,1.33,5.6,4.29,7.1,7.96,4.04,16.41,5.61,25.29,5.31,9.82-.33,19.07-2.92,28.07-6.7.88-.37,2.25-.39,3.05.05,2.57,1.41,2.5,1.83.61,4.12-16.57,20.11-37.84,32.44-63.24,37.49-8.59,1.71-17.42,2.15-26.14,3.17-.02-.22-.04-.43-.06-.65Z"/>
      <path class="cls-1" d="m308.84,464.58c.12-15.81,2.37-28.37,7.14-40.44.33-.83,1.27-2.13,1.75-2.05,1.53.24,3.13.72,3.42,2.81.48,3.43.98,6.88,1.75,10.25,3.06,13.48,8.9,25.37,19.78,34.37,6.98,5.77,9.09,5.93,16.2.48,9.96-7.62,15.83-17.95,19.1-29.83,1.32-4.8,1.93-9.8,3.08-14.65.27-1.14,1.23-2.37,2.23-3.04,1.25-.84,2.4-.28,2.98,1.29,3.19,8.58,5.44,17.4,6.39,26.51,3.48,33.28-7.57,62.1-27.35,88.14-4,5.26-8.57,10.09-12.83,15.15-.94,1.12-1.7,1.28-2.73.15-16.89-18.34-30.48-38.62-37.09-63.01-2.57-9.48-3.72-19.16-3.82-26.12Z"/>
      <path class="cls-1" d="m396.79,283.26c5.08-6.56,10.67-12.23,16.9-17.27,23.35-18.91,50.41-25.96,79.98-24.89,11.25.41,22.32,2.07,33.26,4.67.69.16,1.37.38,2.19.6-.06.58-.03,1.06-.16,1.48-5.14,16.58-11.9,32.4-21.85,46.73-15.66,22.58-36.4,38.16-63.06,45.48-3.49.96-7.08,1.59-10.66,2.19-.86.14-2.64-.47-2.64-.73,0-1.32.06-2.99.83-3.89,1.45-1.69,3.43-2.92,5.16-4.37,8.69-7.25,15.94-15.69,19.79-26.45,1.77-4.94,2.43-10.31,3.39-15.52.59-3.22-.84-5.54-3.78-7.11-8.5-4.55-17.58-6.25-27.13-5.67-9.28.57-18.17,2.82-26.6,6.71-2.61,1.2-3.85-.44-5.63-1.96Z"/>
      <path class="cls-1" d="m569.6,224.06c-.98,16.29-4.78,31.01-9.84,45.44-.34.97-1.24,1.95-2.14,2.47-7.76,4.53-15.15,9.57-21.7,15.75-.93.88-1.63.82-2.45-.01-.11-.12-.23-.23-.34-.35-1.56-1.62-4.06-3.05-4.43-4.9-.36-1.81,1.54-4.02,2.29-6.11,3.77-10.53,7.61-21.05,11.18-31.65,1.55-4.6-.22-7.34-5.01-8.66-11.92-3.28-24.03-5.56-36.39-6.36-2.37-.15-3.72-.65-4.21-3.41-1.02-5.75-1.14-5.49,4.18-7.76,6.8-2.91,13.41-6.28,20.15-9.34,1.17-.53,2.66-.91,3.88-.69,14.97,2.71,29.48,6.95,43.14,13.78.87.44,1.41,1.53,1.66,1.81Z"/>
      <path class="cls-1" d="m132.68,225.75c-.73-2.18.86-3.27,3.19-4.38,12.99-6.16,26.69-10.01,40.72-12.86,2-.41,3.66.09,5.52.97,7.49,3.55,15.07,6.91,22.68,10.17,1.53.66,2,1.39,1.62,2.87-.04.16-.06.32-.1.47-2.08,7.86.22,5.84-7.98,6.95-9.74,1.31-19.39,3.25-29.07,4.96-1.66.29-3.3.76-4.92,1.22-3.7,1.06-5.41,3.81-4.5,7.57,2.98,12.35,7.3,24.23,12.85,35.64,1.16,2.39,1.19,3.87-1.06,5.72-4.29,3.54-3.94,3.44-8.47-.06-5.67-4.38-11.65-8.36-17.63-12.33-1.8-1.19-2.94-2.51-3.63-4.55-4.22-12.57-7.58-25.33-8.87-38.57-.1-1.04-.19-2.09-.35-3.79Z"/>
      <path class="cls-1" d="m569.63,473.39c.35,1.66-.79,2.53-2.3,3.26-9.55,4.62-19.54,8.03-29.82,10.58-4.14,1.03-8.32,1.99-12.52,2.73-1.3.23-2.86-.14-4.1-.69-7.81-3.44-15.53-7.08-23.36-10.46-1.76-.76-2.6-1.33-1.68-3.26.41-.86.54-1.85.78-2.79.98-3.75.98-3.69,4.98-3.98,12.35-.9,24.44-3.36,36.39-6.51,3.67-.97,5.52-3.82,4.36-7.63-2.76-9.01-5.77-17.94-8.9-26.83-1.23-3.48-3.12-6.73-4.53-10.15-.31-.74-.16-2.11.35-2.68,1.56-1.72,3.27-4.16,5.19-4.44,1.55-.22,3.46,2.34,5.26,3.58,5.98,4.11,11.99,8.16,17.96,12.29.74.51,1.54,1.24,1.84,2.05,5.37,14.27,8.72,29.01,10.08,44.2.01.16.02.32.04.73Z"/>
      <path class="cls-1" d="m311.71,538.62c.45-.22.65-.36.87-.42,2.55-.7,5.48-2.5,7.55-1.78,2.06.71,3.14,4.04,4.85,6.05,6.83,8.06,13.61,16.16,20.66,24.02,3.94,4.39,6.81,4.21,11.05-.02,8.71-8.68,16.72-17.96,23.49-28.25,1.25-1.91,2.48-2.44,4.58-1.55,1.69.72,3.51,1.14,5.6,1.79-.4,2.4-.95,4.81-1.17,7.25-.63,6.82-1.06,13.66-1.73,20.48-.14,1.42-.66,3.04-1.55,4.13-8.55,10.52-18.37,19.7-29.44,27.53-5.54,3.92-5.57,3.84-11.09-.16-10.84-7.87-20.31-17.2-29.11-27.24-1.24-1.42-1.68-2.92-1.64-4.84.2-9.06-.9-18.01-2.92-26.98Z"/>
      <path class="cls-1" d="m132.81,471.68c1.11-14.32,4.61-28.79,9.81-42.85.4-1.07,1.49-2.1,2.52-2.69,7.6-4.35,14.65-9.43,21.17-15.28.47-.42,1.57-.15,2.38-.17.11,0,.23.21.34.33,1.59,1.61,4.06,3.01,4.5,4.89.4,1.73-1.33,3.99-2.23,5.98-4.73,10.46-8.49,21.26-11.38,32.37-1.1,4.22.63,7.06,4.88,8.19,12.27,3.25,24.7,5.65,37.38,6.43,2.16.13,2.98.93,3.28,2.91.24,1.59.91,3.12,1.07,4.7.06.64-.59,1.81-1.16,2-8.56,2.77-16.69,6.45-24.41,11.06-.87.52-2.18.7-3.19.52-15.07-2.71-29.63-7.05-43.5-13.64-2.15-1.02-1.45-2.55-1.47-4.73Z"/>
      <path class="cls-1" d="m387.12,137c1,6.94,1.92,13.89,3.04,20.81.3,1.83-.06,2.55-1.93,2.99-6.45,1.51-6.42,1.58-10.25-3.79-6.44-9.03-13.62-17.44-21.54-25.21-4-3.92-6.57-4.04-10.55-.11-8.87,8.76-16.95,18.21-23.88,28.6-1.14,1.72-2.1,2.61-4.24,1.5-1.4-.73-3.07-.94-4.61-1.42-1.05-.33-1.48-.82-1.16-2.13,1.97-8.29,2.72-16.72,2.62-25.23-.03-2.07.58-3.68,1.94-5.25,9.42-10.83,19.72-20.69,31.47-28.99,2.17-1.53,3.7-1.64,5.95-.06,11.52,8.07,21.67,17.61,30.93,28.15,1.8,2.05,3.02,4.09,2.55,6.93-.17,1.02-.03,2.09-.03,3.14-.11.02-.22.04-.32.06Z"/>
      <path class="cls-1" d="m298.77,258.59c-7.95-6.54-16.39-12.07-25.53-16.55-9.15-4.48-18.73-7.72-29.11-10.03,1.4-3.81,2.62-7.37,3.99-10.86,3.18-8.08,7.49-15.53,12.55-22.58,1.39-1.94,3.12-2.92,5.43-3.13,12.31-1.13,24.49-.45,36.94,2.62-6.27,19.84-7.8,39.95-4.27,60.54Z"/>
      <path class="cls-1" d="m403.09,259.03c3.95-20.93,2.39-41.03-3.89-60.94,7.51-1.93,14.76-2.99,22.09-3.09,5.55-.08,11.11.46,16.65.83.79.05,1.79.51,2.26,1.11,7.63,9.85,13.32,20.7,17.02,32.62.7,2.26.03,2.79-2.15,3.28-18.68,4.15-35.31,12.53-50.03,24.73-.47.39-.98.74-1.95,1.47Z"/>
      <path class="cls-1" d="m457.98,466.47c-2.82,9.43-6.47,18.08-11.56,26.08-1.77,2.79-3.56,5.59-5.59,8.19-.75.96-2.14,1.82-3.33,1.97-12.12,1.52-24.15.96-36.08-1.77-1.89-.43-2.27-.97-1.64-2.91,4.63-14.46,6.31-29.3,5.13-44.43-.32-4.09-1.05-8.15-1.57-12.22-.06-.45,0-.92,0-1.91,8.14,6.99,16.67,12.55,25.86,17.1,9.12,4.52,18.74,7.63,28.79,9.91Z"/>
      <path class="cls-1" d="m303.22,500.55c-4.41.77-8.42,1.64-12.48,2.15-8.52,1.06-17.06,1.18-25.61.11-1.82-.23-3.03-.91-4.14-2.44-6.85-9.5-12.23-19.71-15.85-30.87-.71-2.2-.55-3.15,2.04-3.76,17.76-4.21,33.85-11.95,48.23-23.22.51-.4.99-.82,1.49-1.24.47-.4.94-.8,1.73-1.15-3.21,20.36-2.05,40.33,4.59,60.43Z"/>
      <path class="cls-1" d="m505.96,383.12c-6.98-7.66-14.62-14.43-23.19-20.13-8.48-5.64-17.53-10.13-27.8-13.77,20.32-7.14,37.07-18.36,51.53-34.5.38.76.56,1.43.97,1.9,8.18,9.27,15.07,19.36,19.75,30.85.36.87.52,2.1.19,2.93-4.68,11.95-11.81,22.36-20.38,31.85-.26.29-.61.49-1.08.87Z"/>
      <path class="cls-1" d="m196.35,315.48c13.99,15.28,30.62,26.59,50.78,33.73-20.2,7.11-36.74,18.58-51.12,34.09-3.3-4.08-6.55-7.85-9.52-11.83-4.75-6.36-8.63-13.26-11.55-20.65-.35-.88-.47-2.12-.12-2.96,4.87-11.75,11.68-22.27,20.4-31.55.26-.28.62-.47,1.13-.83Z"/>
      <path class="cls-1" d="m286.61,614.45c-3.21-3.97-6.36-7.43-9.02-11.24-7.82-11.2-13.22-23.42-14.65-37.15-.8-7.69-.06-15.29,1.78-22.8.37-1.52,1.36-1.68,2.72-1.68,8.06.04,16.12.04,24.18-.05,2-.02,4.03-.31,6-.71,1.8-.37,2.69.35,2.86,1.98.81,7.77,2.09,15.53,2.2,23.31.2,14.18-2.96,27.69-10.36,39.98-1.64,2.73-3.59,5.28-5.71,8.37Z"/>
      <path class="cls-1" d="m416,614.57c-7.88-9.54-12.26-19.48-14.61-30.35-2.99-13.8-2.3-27.58.4-41.34.29-1.46.63-2.34,2.47-2.08,9.95,1.41,19.95,1.62,29.96.85,2.36-.18,3.12.58,3.64,2.85,4.69,20.6-.28,39.17-11.74,56.34-2.64,3.95-5.81,7.54-8.7,11.32-.49.64-.82,1.4-1.41,2.41Z"/>
      <path class="cls-1" d="m612.56,273.54c-1.16,3.12-2.07,5.88-3.2,8.54-4.27,10.09-9.39,19.68-17.33,27.43-8.15,7.94-17.56,13.83-28.51,17.19-2.05.63-3.16.26-4.19-1.78-4.55-9.01-9.57-17.74-15.88-25.67-1.22-1.53-.09-2.17.77-2.94,7.12-6.39,14.9-11.82,23.46-16.12,10.38-5.21,21.35-8.21,32.97-8.51,3.45-.09,6.92.33,10.37.64.53.05,1,.77,1.54,1.21Z"/>
      <path class="cls-1" d="m415.65,84.44c1.99,2.31,3.84,4.31,5.52,6.43,9.09,11.42,15.56,24.05,17.76,38.65,1.28,8.49.7,16.89-1.28,25.21-.34,1.43-.96,2-2.65,2.03-10.15.15-20.3.45-30.44.83-1.79.07-2.5-.22-2.88-2.14-3.19-16.33-3.32-32.56,1.69-48.57,2.52-8.06,6.39-15.46,12.28-22.45Z"/>
      <path class="cls-1" d="m286.75,84.57c4.02,4.69,6.99,9.75,9.39,15.13,5.16,11.57,7.09,23.8,6.5,36.37-.3,6.43-1.4,12.82-2.11,19.23-.21,1.88-1.04,2.38-3.02,2.3-9.91-.44-19.83-.72-29.75-.89-1.94-.03-2.79-.41-3.27-2.47-4.36-18.36-.89-35.47,8.5-51.44,3.42-5.81,7.89-11,11.91-16.44.46-.62,1.12-1.09,1.85-1.78Z"/>
      <path class="cls-1" d="m154.2,161.17c22.49-8.62,59.95.4,72.85,17.22-4.27,7.75-8.51,15.35-12.65,23.01-1.07,1.98-1.72,4.19-2.79,6.16-.33.6-1.59,1.27-2.15,1.08-24.58-8.29-44.74-21.85-55.16-46.84-.06-.14-.05-.31-.1-.63Z"/>
      <path class="cls-1" d="m89.77,272.62c7.6-1.28,14.84-1.24,22.02.05,17.15,3.07,31.85,11.15,44.91,22.44,3.08,2.66,2.83,2.57.63,6.04-4.91,7.76-9.72,15.6-14.28,23.58-1.27,2.23-2.29,2.64-4.66,1.9-18.64-5.82-31.78-18.08-40.88-34.93-2.71-5.01-4.64-10.45-6.87-15.71-.4-.94-.52-2-.86-3.36Z"/>
      <path class="cls-1" d="m548.14,161.09c-2.33,6.37-5.44,11.9-9.36,16.95-10.71,13.82-24.93,22.74-41.02,28.96-6.3,2.43-6.08,2.26-9.13-3.69-3.85-7.53-8.04-14.89-12.31-22.2-1.16-1.98-1.16-3.06.56-4.65,14.67-13.52,32.15-19.01,51.79-18.08,5.7.27,11.36,1.31,17.04,2.04.69.09,1.36.38,2.42.68Z"/>
      <path class="cls-1" d="m89.57,425.53c6.9-21.04,17.87-38.51,37.69-49.05,3.81-2.03,8.04-3.27,12.07-4.89,1.56-.63,2.39-.1,3.27,1.37,5.27,8.77,10.66,17.47,16.06,26.15.62,1,1.06,1.67-.06,2.65-13.22,11.52-27.87,20.34-45.32,23.76-7.18,1.41-14.42,1.62-21.68.61-.61-.08-1.19-.35-2.04-.61Z"/>
      <path class="cls-1" d="m154.05,537.22c3.45-8.87,8.35-16.48,14.76-23.08,11.26-11.59,24.98-19.17,40.17-24.29,1.32-.45,2.04-.29,2.8,1.16,4.82,9.19,9.74,18.33,14.78,27.41.79,1.43.25,2.01-.58,2.83-8.44,8.25-18.4,13.75-29.84,16.64-13.34,3.38-26.68,2.92-40.02.06-.61-.13-1.19-.41-2.08-.73Z"/>
      <path class="cls-1" d="m603,426.81c-17.41-.22-32.17-5.58-45.66-14.62-4.55-3.05-8.74-6.63-13.13-9.91-1.68-1.25-1.22-2.25-.24-3.81,5.36-8.52,10.65-17.1,15.75-25.78,1.01-1.73,1.9-1.45,3.29-1.05,14,4.02,25.22,12.08,34.14,23.46,6.74,8.6,11.51,18.25,14.91,28.61.56,1.71.17,2.39-1.61,2.5-2.82.17-5.63.45-7.45.6Z"/>
      <path class="cls-1" d="m548.31,537.76c-5.15.76-9.73,1.69-14.36,2.09-21.35,1.83-40.71-2.83-56.91-17.71-1.68-1.54-2.21-2.54-.74-4.74,5.65-8.45,10.68-17.28,14.31-26.83.64-1.68,1.81-.9,2.8-.58,10.32,3.42,20.01,8.08,28.85,14.48,10.46,7.58,18.73,16.98,24.21,28.74.6,1.29,1.08,2.64,1.85,4.54Z"/>
      <path class="cls-1" d="m467.61,168.59c-1.07-1.35-2.23-2.49-3.03-3.85-2.69-4.56-6.95-5.97-11.86-6.19-.48-.02-.97-.07-1.45-.1-1.53-.07-2.17-.69-1.77-2.33,2.44-10.11,2.5-20.31.89-30.55-.22-1.41-.35-2.63,1.34-3.42,9.98-4.61,20.19-8.15,31.41-7.84,2.14.06,3.64.69,4.86,2.49,4.76,7.05,7.09,14.97,8.4,23.24.45,2.87.66,5.77.98,8.66.15,1.39-.32,2.16-1.78,2.65-10.02,3.39-18.76,8.92-26.5,16.08-.4.37-.86.67-1.47,1.13Z"/>
      <path class="cls-1" d="m467.45,529.55c1.28,1.16,2.28,2.08,3.29,2.97,7.05,6.17,14.9,11.05,23.74,14.19,2.49.88,3.02,2.13,2.77,4.65-.83,8.23-2.23,16.29-5.7,23.88-.43.95-1.02,1.84-1.38,2.82-1.94,5.27-5.81,6.6-11.1,6.16-9.91-.83-19.05-3.99-27.84-8.36-.64-.32-.97-2.05-.81-3.02,1.41-8.93,1.38-17.84-.12-26.75-.23-1.35-.53-2.69-.9-4.01-.35-1.25.11-1.99,1.34-1.94,7.89.36,12.99-3.85,16.7-10.58Z"/>
      <path class="cls-1" d="m234.94,529.84c3.68,7.3,9.66,11,17.96,10.25-.68,4.82-1.73,9.17-1.8,13.53-.1,6.42.47,12.86.83,19.29.07,1.23.45,2.37-1.05,3.08-9.48,4.46-19.18,8.02-29.86,8.2-3.94.07-6.39-1.36-8.31-4.85-5.16-9.36-7.15-19.46-7.7-29.95-.03-.66.61-1.77,1.19-1.98,10.35-3.67,19.47-9.32,27.44-16.86.22-.21.54-.3,1.31-.71Z"/>
      <path class="cls-1" d="m234.58,168.68c-1.12-1-2.01-1.79-2.91-2.59-7.2-6.37-15.25-11.36-24.36-14.52-1.96-.68-2.57-1.62-2.38-3.7.9-10.21,2.85-20.08,8.05-29.11,1.79-3.11,3.99-4.54,7.75-4.49,10.77.15,20.58,3.49,30,8.3.67.34,1.37,1.66,1.23,2.37-1.98,10.55-1.75,21.01.94,31.41.33,1.26-.12,1.79-1.35,1.95-2.24.29-4.56.38-6.67,1.08-1.88.63-3.76,1.72-5.21,3.07-1.85,1.74-3.27,3.94-5.1,6.22Z"/>
      <path class="cls-1" d="m136.45,338.81c-.36.86-.58,1.55-.93,2.17-3.11,5.5-3.17,10.98.07,16.45,1.14,1.92.76,2.77-1.59,3.45-9.65,2.79-18.29,7.6-25.95,14.08-1.61,1.36-2.68,1.44-4.37.24-8.54-6.1-16.34-12.84-21.56-22.2-1.5-2.69-1.6-4.89-.03-7.61,5.52-9.54,13.5-16.58,22.49-22.61.58-.39,2.01-.3,2.55.16,8.42,7.02,17.88,12.06,28.34,15.27.29.09.53.33.97.62Z"/>
      <path class="cls-1" d="m565.42,359.61c4.65-6.91,4.91-13.8-.04-20.81,1.75-.65,3.07-1.18,4.41-1.63,8.98-3.01,17.12-7.55,24.35-13.63,1.79-1.51,3.05-1.53,4.78.01,4.92,4.4,10.21,8.43,14.86,13.1,2.73,2.74,4.51,6.44,6.76,9.68,1.45,2.08,1.04,4-.09,6.1-4.39,8.15-10.8,14.43-18.08,19.94-1.41,1.07-2.95,2-4.32,3.12-1.13.92-2.03.97-3.18,0-8.31-7.02-17.63-12.17-28.11-15.17-.29-.08-.55-.28-1.34-.7Z"/>
      <path class="cls-1" d="m427.83,168.14c5.85.58,15.09,1.44,24.31,2.45,1.06.12,2.34.8,3,1.63,12.99,16.38,23.72,33.99,29.41,54.34.52,1.87.34,2.66-1.82,2.71-3.79.07-7.58.45-11.37.52-.7.01-1.88-.66-2.04-1.24-3.81-13.7-10.49-25.89-18.41-37.64-4.14-6.14-9.76-7.04-16.02-7.51-12.73-.95-25.34-.17-37.76,2.92-1.63.41-2.45.19-3.16-1.46-1.44-3.33-3.1-6.56-4.79-9.78-.81-1.54-.61-2.19,1.18-2.69,11.14-3.09,22.55-3.9,37.46-4.25Z"/>
      <path class="cls-1" d="m314.04,525.75c-5.78,1.1-11.19,2.37-16.66,3.14-15.8,2.22-31.56,1.41-47.28-.98-1.03-.16-2.26-.7-2.88-1.48-12.15-15.33-22.47-31.72-28.35-50.57-.64-2.05-1.06-4.16-1.6-6.31,4.86-.4,9.42-.83,13.99-1.08.51-.03,1.37.93,1.56,1.58,4.23,14.5,11.05,27.64,20.27,39.61,2.14,2.78,4.66,4.25,8.05,4.68,14.8,1.88,29.46,1.37,43.99-2.2.77-.19,2.23.02,2.48.5,2.17,4.12,4.13,8.34,6.42,13.09Z"/>
      <path class="cls-1" d="m179.8,293.24c2.83,4.15,5.43,7.83,7.85,11.63.33.52.11,1.88-.36,2.37-10.47,11.01-18.45,23.58-24.24,37.62-1.23,2.97-1.19,5.62,0,8.6,5.64,14.11,13.67,26.66,24.13,37.67.5.52,1,1.77.73,2.18-2.51,3.92-5.18,7.73-8.33,12.33-1.2-1.5-2.21-2.95-3.4-4.24-12.42-13.35-21.13-28.97-28.46-45.54-2.16-4.89-2.05-8.9.14-13.66,6.35-13.83,13.32-27.25,23.05-39.06,2.8-3.39,5.87-6.56,8.89-9.91Z"/>
      <path class="cls-1" d="m217.13,228.86c2.34-9.38,5.76-17.88,9.93-26.09,5.47-10.77,12.23-20.69,19.78-30.08.93-1.15,2.76-1.97,4.28-2.2,20.03-2.96,40.01-3.36,59.83,1.66,3.2.81,3.14.79,1.6,3.74-1.61,3.07-3.14,6.18-4.51,9.37-.59,1.38-1.25,1.56-2.58,1.22-14.89-3.78-29.94-4.42-45.14-2.2-2.82.41-4.94,1.62-6.68,3.86-9.37,12.03-16.48,25.22-20.57,39.96-.4,1.43-.94,1.99-2.46,1.84-4.38-.42-8.78-.71-13.48-1.07Z"/>
      <path class="cls-1" d="m388.41,525.16c1.49-3,2.98-5.93,4.41-8.89,2.15-4.45,2.12-4.44,6.87-3.44,13.88,2.93,27.86,3.32,41.91,1.44,3-.4,5.33-1.77,7.28-4.26,8.89-11.39,15.5-23.95,19.87-37.7,1.17-3.68,1.17-3.7,5.06-3.52,2.98.14,5.96.43,8.95.48,1.81.03,2.38.68,1.76,2.35-2.5,6.8-4.62,13.77-7.58,20.36-5.62,12.51-13.39,23.74-21.93,34.43-.55.68-1.52,1.29-2.38,1.42-18.56,2.78-37.13,3.49-55.66-.26-2.53-.51-5.01-1.21-7.52-1.85-.29-.07-.54-.29-1.04-.56Z"/>
      <path class="cls-1" d="m522.47,293.21c3.75,4.26,7.56,8.19,10.91,12.48,9.19,11.79,15.97,24.96,21.8,38.69,1.4,3.31,1.5,5.98.13,9.3-7.54,18.3-17.12,35.26-31.06,49.53-1.88,1.92-2.08,1.95-3.51-.22-1.95-2.97-3.87-5.96-5.91-8.86-.9-1.29-.87-2.12.29-3.3,10.8-10.97,18.75-23.77,24.38-38.07.97-2.46.98-4.75-.03-7.23-5.72-14.15-13.64-26.9-24.26-37.9-1.18-1.22-1.36-2.04-.32-3.46,2.48-3.37,4.77-6.88,7.58-10.96Z"/>
      <path class="cls-1" d="m165.89,198.4c-3.26.93-6.48,1.85-9.71,2.75-10.52,2.93-20.61,6.92-30.34,11.9-3.71,1.9-5.39,4.45-5.24,8.81.45,12.99,2.8,25.62,6.27,38.09.37,1.31.74,2.62,1.19,4.19-.63,0-1.09.09-1.5-.01-3.42-.92-6.85-1.79-10.22-2.87-.82-.26-1.84-1.11-2.05-1.89-4.1-15.5-6.56-31.24-6.67-47.32-.02-2.4.75-3.81,2.84-5.01,13.88-7.93,28.63-13.69,43.97-18.03,1.67-.47,2.59-.04,3.7,1.24,2.4,2.78,5.04,5.34,7.74,8.15Z"/>
      <path class="cls-1" d="m536.64,499.84c2.29-.61,4.92-1.29,7.53-2,10.52-2.9,20.75-6.6,30.49-11.56.5-.26.99-.54,1.51-.77,4.17-1.87,5.91-4.89,5.59-9.62-.96-13.99-3.2-27.71-7.57-41.06-.05-.14,0-.31,0-.81,2.59.74,5.06,1.88,7.61,2.09,4.8.38,6.55,2.86,7.49,7.41,2.99,14.5,5.54,29.01,5.17,43.9-.04,1.74-.59,2.72-2.14,3.62-13.82,8.08-28.56,13.88-43.92,18.23-1.94.55-3.2.33-4.55-1.41-2.2-2.85-4.81-5.38-7.2-8Z"/>
      <path class="cls-1" d="m536.25,198.49c3.04-3.15,5.78-6.11,8.67-8.9.54-.52,1.8-.75,2.56-.53,15.67,4.34,30.8,10.03,44.85,18.36,1.52.9,2.07,1.97,2.1,3.69.28,15.52-2.22,30.67-5.7,45.74-.79,3.42-2.2,4.75-5.55,5.16-2.92.35-5.74,1.5-9.11,2.43.42-1.49.73-2.67,1.07-3.84,3.66-12.43,5.74-25.12,6.55-38.06.3-4.82-1.49-7.65-5.71-9.76-11.15-5.58-22.75-9.89-34.82-12.97-1.61-.41-3.22-.85-4.93-1.31Z"/>
      <path class="cls-1" d="m165.83,500.17c-2.93,3.06-5.76,6.12-8.73,9.02-.46.45-1.66.47-2.39.27-15.99-4.46-31.33-10.5-45.65-18.97-.6-.36-1.15-1.34-1.18-2.04-.55-15.2,2.04-30.03,5.08-44.85.94-4.6,2.69-7.09,7.5-7.5,2.42-.2,4.77-1.25,7.61-2.04-.68,2.54-1.25,4.68-1.81,6.81-3.23,12.2-5.51,24.54-5.58,37.23-.02,3.14,1.22,5.16,3.9,6.62,12.27,6.68,25.34,11.19,38.85,14.53.62.15,1.25.3,1.86.5.2.06.35.26.56.42Z"/>
      <path class="cls-1" d="m313.01,113.39c-1.2-4.22-2.35-7.97-3.27-11.77-.19-.77.25-2.09.87-2.61,8.81-7.44,17.59-14.9,26.61-22.08,3.64-2.9,7.84-5.08,11.76-7.64,1.37-.9,2.56-.89,4.01-.07,14.31,8.05,26.89,18.35,38.63,29.74,1.07,1.04,1.16,1.92.67,3.38-1.18,3.49-2,7.1-3.04,10.94-.64-.53-1.4-1.04-2.03-1.68-9.46-9.65-19.48-18.59-31.07-25.69-3.49-2.14-6.39-2.37-9.99-.07-11.23,7.16-21.38,15.56-30.56,25.18-.8.84-1.72,1.58-2.59,2.37Z"/>
      <path class="cls-1" d="m313.17,584.81c1.08,1.15,1.82,1.96,2.58,2.75,9.14,9.41,19.05,17.88,30.14,24.96,3.56,2.27,6.7,2.34,10.3.05,11.6-7.35,21.93-16.18,31.37-26.1.48-.5.56-1.37.83-2.06.28.29.56.58.83.87,1.11,3.9,2.31,7.78,3.25,11.72.19.78-.43,2.06-1.08,2.69-11.22,10.87-23.27,20.67-36.75,28.67-2.61,1.55-4.69,1.56-7.29-.04-13.24-8.18-25.44-17.67-36.5-28.61-.64-.64-1.24-1.91-1.06-2.69.92-3.89,2.1-7.73,3.37-12.19Z"/>
      <path class="cls-1" d="m427.75,325.49c-4.1-11.5-9.55-21.74-17.92-30.6,12.06-4.21,23.72-6.55,35.85-2.36,1.57.54,2.39,1.31,1.79,2.99-1.46,4.07-2.57,8.33-4.53,12.15-3.53,6.89-8.95,12.33-15.2,17.82Z"/>
      <path class="cls-1" d="m409.85,403.56c8.42-8.86,13.83-19.05,17.87-30.6,2.34,2.23,4.39,4.12,6.36,6.08,6.43,6.39,11.09,13.82,13.24,22.71.82,3.36.66,3.55-2.69,4.55-11.78,3.5-23.13,1.51-34.78-2.73Z"/>
      <path class="cls-1" d="m333.99,427.48c11.38,2.41,22.95,2.3,34.85-.03-2.49,12.56-6.42,23.71-15.99,32.08-1.31,1.14-2.26,1.27-3.67-.02-8.72-8.01-13.03-18.25-15.18-29.61-.12-.63-.2-1.27-.29-1.91,0-.06.07-.12.29-.5Z"/>
      <path class="cls-1" d="m292.06,294.86c-.56.77-.94,1.36-1.4,1.89-6.85,7.88-12.02,16.74-15.25,26.68-.44,1.36-.96,1.86-2.15.81-8.88-7.82-16.17-16.66-18.58-28.69-.3-1.49-.12-2.42,1.51-2.97,12.19-4.06,23.96-2.18,35.88,2.27Z"/>
      <path class="cls-1" d="m275.01,373.8c3.37,11.08,9.33,20.73,17.3,29.9-4.07,1.17-7.63,2.4-11.27,3.19-8.25,1.79-16.46,1.81-24.57-.94-1.77-.6-2.17-1.35-1.79-3.16,2.53-11.88,9.64-20.73,18.51-28.46.29-.25.67-.44,1.03-.57.2-.07.46.02.79.05Z"/>
      <path class="cls-1" d="m368.81,271.11c-12.09-2.61-23.59-2.43-35.34-.07,2.33-12.47,6.34-23.42,15.54-31.87,1.6-1.47,2.65-1.44,4.21-.02,7.65,6.96,11.76,15.84,14.21,25.65.46,1.86.82,3.74,1.38,6.3Z"/>
      <path d="m386.63,349.33c-.38,4.33-.77,8.66-1.14,13-.31,3.65-1.9,6.8-4.61,9.06-7.87,6.54-16.62,11.64-26.36,14.92-3.65,1.23-7.3.42-10.56-1.27-6.15-3.19-12.19-6.59-18.16-10.1-6.08-3.57-9.46-8.99-9.53-16.1-.08-7.33,0-14.68.35-22,.2-4.27,2.25-7.95,5.63-10.61,6.94-5.47,14.56-9.82,22.69-13.26,4.44-1.88,8.96-1.77,13.13.41,6.78,3.54,13.47,7.27,19.98,11.27,6.68,4.1,7.97,10.95,8.22,18.12.08,2.18.01,4.36.01,6.54.11,0,.23.02.34.03Zm-12.2.15c-.06,0-.11,0-.17,0,0-2.58.03-5.17,0-7.75-.05-3.4-.99-6.33-4.23-8.11-5.64-3.11-11.21-6.35-16.91-9.35-.98-.52-2.68-.59-3.63-.08-5.98,3.14-11.85,6.5-17.75,9.79-2.34,1.3-3.45,3.39-3.48,5.98-.08,6.21-.1,12.42-.03,18.63.02,2.06.59,4.07,2.55,5.21,6.05,3.53,12.09,7.08,18.25,10.4,1.09.59,3.04.6,4.13.02,6.17-3.3,12.27-6.75,18.22-10.44,1.23-.76,2.2-2.66,2.43-4.16.5-3.33.46-6.74.64-10.12Z"/>
      <path class="cls-1" d="m374.43,349.48c-.18,3.38-.14,6.79-.64,10.12-.23,1.5-1.2,3.4-2.43,4.16-5.95,3.69-12.05,7.14-18.22,10.44-1.09.58-3.04.57-4.13-.02-6.16-3.32-12.2-6.88-18.25-10.4-1.96-1.14-2.53-3.15-2.55-5.21-.07-6.21-.05-12.42.03-18.63.03-2.58,1.14-4.67,3.48-5.98,5.9-3.29,11.77-6.65,17.75-9.79.96-.5,2.65-.43,3.63.08,5.7,3,11.27,6.24,16.91,9.35,3.24,1.78,4.19,4.71,4.23,8.11.04,2.58,0,5.17,0,7.75.06,0,.11,0,.17,0Z"/>
    </g>
  </g>
</svg>